<?xml version="1.0" encoding="UTF-8" standalone="no"?><!DOCTYPE svg PUBLIC "-//W3C//DTD SVG 1.1//EN" "http://www.w3.org/Graphics/SVG/1.1/DTD/svg11.dtd"><svg width="100%" height="100%" viewBox="0 0 1172 1062" version="1.1" xmlns="http://www.w3.org/2000/svg" xmlns:xlink="http://www.w3.org/1999/xlink" xml:space="preserve" xmlns:serif="http://www.serif.com/" style="fill-rule:evenodd;clip-rule:evenodd;stroke-linecap:round;stroke-linejoin:round;stroke-miterlimit:1.5;"><rect id="image" x="0.417" y="0.417" width="1171" height="1061" style="fill:none;stroke:#000;stroke-width:0.83px;"/><path id="LM" d="M277.417,1061.42c-24.834,-24.834 -167.988,-130.952 -277,-356l-0,-36c12.829,19.063 192.696,302.326 311,392l-34,-0Z" style="fill:none;stroke:#000;stroke-width:0.83px;"/><path id="L1" d="M457.417,1061.42c-240.834,-110.834 -338.988,-388.952 -457,-579c-0,-16.73 -0,187 -0,187c12.829,19.063 192.696,302.326 311,392c-10.018,-0 146,-0 146,-0Z" style="fill:none;stroke:#000;stroke-width:0.83px;"/><path id="L2-3" serif:id="L2/3" d="M457.417,1061.42c-240.834,-110.834 -338.988,-388.952 -457,-579c-0,-11.096 -0,-330.384 -0,-482l61,-0c72.088,71.046 112.183,356.216 250,593.64c152.619,262.926 240.833,369.238 399,467.36l-253,-0Z" style="fill:none;stroke:#000;stroke-width:0.83px;"/><path id="L4" d="M909.417,1061.42c-119.322,-54.913 -315.318,-290.642 -452,-520.866c-139.192,-234.45 -203,-463.637 -203,-540.134c26.056,-0 -193,-0 -193,-0c72.088,71.046 112.183,356.216 250,593.64c152.619,262.926 240.833,369.238 399,467.36c-10.018,-0 199,-0 199,-0Z" style="fill:none;stroke:#000;stroke-width:0.83px;"/><path id="L5" d="M909.417,1061.42c-119.322,-54.913 -315.318,-290.642 -452,-520.866c-139.192,-234.45 -203,-463.637 -203,-540.134l231,-0c14.088,121.046 62.183,293.076 200,530.5c152.619,262.926 327.833,432.378 486,530.5l-262,-0Z" style="fill:none;stroke:#000;stroke-width:0.83px;"/><path id="L6a" d="M1171.42,900.417c-116.322,-88.913 -252.818,-198.642 -389.5,-428.866c-139.192,-234.45 -152,-394.637 -152,-471.134c26.056,-0 -147,-0 -147,-0c14.088,121.046 64.683,293.076 202.5,530.5c152.619,262.926 327.833,432.378 486,530.5l-0,-161Z" style="fill:none;stroke:#000;stroke-width:0.83px;"/><path id="L6b" d="M1171.42,900.417c-116.322,-88.913 -252.818,-198.642 -389.5,-428.866c-139.192,-234.45 -152,-394.637 -152,-471.134l115,-0c14.088,121.046 31.316,209.076 128.5,376.5c78.32,134.926 125.833,213.378 298,355.5c-0,-51.843 -0,168 -0,168Z" style="fill:none;stroke:#000;stroke-width:0.83px;"/></svg>