<?xml version="1.0" encoding="UTF-8" standalone="no"?><!DOCTYPE svg PUBLIC "-//W3C//DTD SVG 1.1//EN" "http://www.w3.org/Graphics/SVG/1.1/DTD/svg11.dtd"><svg width="100%" height="100%" viewBox="0 0 812 951" version="1.1" xmlns="http://www.w3.org/2000/svg" xmlns:xlink="http://www.w3.org/1999/xlink" xml:space="preserve" xmlns:serif="http://www.serif.com/" style="fill-rule:evenodd;clip-rule:evenodd;stroke-linecap:round;stroke-linejoin:round;stroke-miterlimit:1.5;"><rect id="image" x="1.042" y="1.042" width="809.256" height="948.523" style="fill:#fff;fill-opacity:0.15;stroke:#000;stroke-width:2.08px;"/><path id="L1" d="M810.298,949.565l-0,-143c-232.24,4 -523.132,20.162 -809.256,-14.16l-0,157.16c200.96,-0.418 707.959,-0.13 809.256,-0Z" style="fill:#5d3599;fill-opacity:0.15;stroke:#000;stroke-width:2.08px;"/><path id="L2-3" serif:id="L2/3" d="M810.298,617.565l-0,189c-232.24,4 -523.132,20.162 -809.256,-14.16l-0,-161.84c381.207,-0.792 256.826,39.761 426.257,46.937c92.42,3.915 24.229,-60.396 382.999,-59.937Z" style="fill:#5d3599;fill-opacity:0.15;stroke:#000;stroke-width:2.08px;"/><path id="L4" d="M810.298,617.565l-0,-77c-218.591,-18.975 -266.033,35.568 -404.628,19.617c-282.944,-32.563 -249.378,-153.833 -404.628,-52.777l-0,123.16c381.207,-0.792 292.674,49.084 426.257,46.937c99.407,-1.597 24.229,-60.396 382.999,-59.937Z" style="fill:#5d3599;fill-opacity:0.15;stroke:#000;stroke-width:2.08px;"/><path id="L5" d="M810.298,456.565l-0,84c-218.591,-18.975 -266.033,35.568 -404.628,19.617c-282.944,-32.563 -249.378,-153.833 -404.628,-52.777l-0,-88.84c191.207,-54.792 271.045,69.884 404.628,67.738c99.407,-1.597 88.858,-11.197 404.628,-29.738Z" style="fill:#5d3599;fill-opacity:0.15;stroke:#000;stroke-width:2.08px;"/><path id="L6a" d="M810.298,456.565l-0,-138c-327.591,55.025 -294.033,33.568 -432.628,17.617c-282.944,-32.563 -233.378,-63.833 -376.628,-54.777l-0,137.16c191.207,-54.792 271.045,69.884 404.628,67.738c99.407,-1.597 88.858,-11.197 404.628,-29.738Z" style="fill:#5d3599;fill-opacity:0.15;stroke:#000;stroke-width:2.08px;"/><path id="L6b" d="M810.298,142.565l-0,176c-327.591,55.025 -294.033,33.568 -432.628,17.617c-282.944,-32.563 -233.378,-63.833 -376.628,-54.777l-0,-167.84c56.207,-23.792 306.045,65.884 439.628,63.738c99.407,-1.597 169.858,-13.197 369.628,-34.738Z" style="fill:#5d3599;fill-opacity:0.15;stroke:#000;stroke-width:2.08px;"/></svg>