<?xml version="1.0" encoding="UTF-8" standalone="no"?><!DOCTYPE svg PUBLIC "-//W3C//DTD SVG 1.1//EN" "http://www.w3.org/Graphics/SVG/1.1/DTD/svg11.dtd"><svg width="100%" height="100%" viewBox="0 0 960 879" version="1.1" xmlns="http://www.w3.org/2000/svg" xmlns:xlink="http://www.w3.org/1999/xlink" xml:space="preserve" xmlns:serif="http://www.serif.com/" style="fill-rule:evenodd;clip-rule:evenodd;stroke-linecap:round;stroke-linejoin:round;stroke-miterlimit:1.5;"><rect id="image" x="1.042" y="1.042" width="957.256" height="876.523" style="fill:#fff;fill-opacity:0.15;stroke:#000;stroke-width:2.08px;"/><path id="LM" d="M1.042,372.064l-0,-24.758c154.291,-156.967 234.89,-239.127 634.111,-345.068l46.436,-1.196c-57.41,17.97 -297.627,86.033 -425.118,157.696c-59.45,33.417 -185.926,144.33 -255.429,213.326Z" style="fill:#5d3599;fill-opacity:0.15;stroke:#000;stroke-width:2.08px;"/><path id="L1" d="M1.042,372.064l-0,51.404c85.481,-86.963 148.816,-149.651 282.877,-228.308c107.916,-63.318 320.336,-164.69 674.379,-143.937l-0,-50.181l-276.709,-0c-57.41,17.97 -297.627,86.033 -425.118,157.696c-59.45,33.417 -185.926,144.33 -255.429,213.326Z" style="fill:#5d3599;fill-opacity:0.15;stroke:#000;stroke-width:2.08px;"/><path id="L2-3" serif:id="L2/3" d="M1.042,580.064l-0,-156.596c85.481,-86.963 148.816,-149.651 282.877,-228.308c107.916,-63.318 304.336,-163.69 674.379,-143.937l-0,71.819c-266.411,-3.03 -333.848,68.915 -478.628,95.924c-172.284,32.139 -366.125,226.102 -478.628,361.098Z" style="fill:#5d3599;fill-opacity:0.15;stroke:#000;stroke-width:2.08px;"/><path id="L4" d="M1.042,580.064l-0,150.404c32.481,-119.963 349.695,-381.252 499.877,-421.308c124.916,-33.318 252.336,-122.904 457.379,-122.937l-0,-63.181c-266.411,-3.03 -310.553,62.42 -496.294,99.636c-159.913,32.042 -348.459,222.39 -460.962,357.386Z" style="fill:#5d3599;fill-opacity:0.15;stroke:#000;stroke-width:2.08px;"/><path id="L5" d="M20.042,877.565l-19,-0l-0,-147.097c32.481,-119.963 349.695,-381.252 499.877,-421.308c124.916,-33.318 252.336,-122.904 457.379,-122.937l-0,74.819c-207.411,-3.03 -263.934,65.816 -441.628,140.554c-121.682,51.178 -397.125,242.973 -496.628,475.969Z" style="fill:#5d3599;fill-opacity:0.15;stroke:#000;stroke-width:2.08px;"/><path id="L6a" d="M20.042,877.352l55,0.213c32.481,-119.964 327.445,-363.011 441.628,-418.067c116.452,-56.151 236.585,-160.454 441.628,-160.487l-0,-38.182c-214.411,0.971 -263.323,67.499 -441.628,140.767c-119.682,49.178 -397.125,242.76 -496.628,475.756Z" style="fill:#5d3599;fill-opacity:0.15;stroke:#000;stroke-width:2.08px;"/><path id="L6b" d="M149.042,877.565l-74,0.212c32.481,-119.964 318.824,-360.328 459.173,-427.124c88.915,-42.317 219.04,-151.397 424.083,-151.43l-0,126.819c-84.411,-59.03 -303.507,61.07 -469.128,159.713c-97.682,58.179 -321.625,209.814 -340.128,291.81Z" style="fill:#5d3599;fill-opacity:0.15;stroke:#000;stroke-width:2.08px;"/><path id="cc" d="M149.042,877.565l18,-0c24.481,-54.964 227.824,-225.116 368.173,-291.912c88.915,-42.317 242.04,-146.397 307.083,-136.43l44.703,-38.405c-86.411,2.971 -232.21,76.294 -397.831,174.937c-97.682,58.179 -321.625,209.814 -340.128,291.81Z" style="fill:#5d3599;fill-opacity:0.15;stroke:#000;stroke-width:2.08px;"/></svg>