<?xml version="1.0" encoding="UTF-8" standalone="no"?><!DOCTYPE svg PUBLIC "-//W3C//DTD SVG 1.1//EN" "http://www.w3.org/Graphics/SVG/1.1/DTD/svg11.dtd"><svg width="100%" height="100%" viewBox="0 0 4253 3391" version="1.1" xmlns="http://www.w3.org/2000/svg" xmlns:xlink="http://www.w3.org/1999/xlink" xml:space="preserve" xmlns:serif="http://www.serif.com/" style="fill-rule:evenodd;clip-rule:evenodd;stroke-linecap:round;stroke-linejoin:round;stroke-miterlimit:1.5;"><path id="image" d="M4.167,4.167l-0,3381.68l4244.23,0l0,-3381.68l-4244.23,-0Z" style="fill:none;stroke:#000;stroke-width:8.33px;"/><path id="fov" d="M4.167,543.068l-0,2106.68l3018.23,0l0,-2106.68l-3018.23,0Z" style="fill:none;stroke:#000;stroke-width:8.33px;"/><path id="CTXsp" d="M3022.39,843.163l-69.346,-10.782l-119.971,-26.634l-78.582,-24.631l-103.668,-42.501l-80.031,-29.559l-24.546,-11.564l-13.397,-16.258l30.833,-15.237l7.928,-13.015l-6.083,-12.27l6.083,-14.89l68.806,19.692l36.499,3.918l44.691,-2.098l37.563,-5.919l60.371,-7.52l48.617,9.896l43.66,10.32l40.583,-1.324l42.267,-11.891l27.341,-10.879l0.382,213.146Z" style="fill:#acc7d0;stroke:#000;stroke-width:8.33px;"/><path id="LM" d="M884.479,543.556l-22.054,0c-223.554,299.043 -496.214,709.37 -561.273,889.302c-175.261,484.713 -211.675,952.396 -247.547,1216.89l25.88,0c27.284,-138.307 40.437,-673.775 226.399,-1155.66c125.631,-325.552 540.076,-886.705 578.595,-950.531Z" style="fill:#a8c1c9;fill-opacity:0.44;stroke:#000;stroke-width:8.33px;"/><path id="L1" d="M881.118,543.556l106.416,0c-93.218,154.11 -465.012,553.841 -648.922,1020.31c-97.494,247.282 -171.546,681.293 -155.937,1084.74l-103.2,1.148c23.863,-123.704 52.263,-704.758 218.411,-1132.23c144.75,-372.416 519.345,-861.766 583.232,-973.964Z" style="fill:#a8c1c9;fill-opacity:0.44;stroke:#000;stroke-width:8.33px;"/><path id="L2-3" serif:id="L2/3" d="M987.534,543.556l172.711,-0.488c-272.343,209.162 -456.193,629.259 -558.937,756.261c-198.711,245.627 -135.015,279.783 -176.807,431.784c-48.296,175.658 -101.911,383.002 -84.889,653.091c5.121,81.251 -75.01,141.842 -115.252,265.547l-42.246,0c-8.676,-281.814 16.715,-547.423 88.605,-867.5c108.986,-485.248 544.607,-1000.14 716.815,-1238.69Z" style="fill:#a8c1c9;fill-opacity:0.44;stroke:#000;stroke-width:8.33px;"/><path id="L4" d="M1160.25,543.556l227.877,0c-420.609,426.468 -896.395,828.958 -975.199,1942.26c-19.519,87.105 -91.707,118.78 -91.707,162.785c-38.318,0 -70.348,1.148 -96.214,1.148c2.643,-43.718 116.933,-201.061 114.376,-247.581c-23.154,-421.335 111.847,-656.519 112.971,-844.422c0.236,-39.416 51.436,-118.159 141.21,-248.782c245.285,-356.891 287.709,-537.167 566.686,-765.41Z" style="fill:#a8c1c9;fill-opacity:0.44;stroke:#000;stroke-width:8.33px;"/><path id="L5" d="M1388.12,543.556l440.244,0c-394.534,203.287 -849.367,515.536 -993.105,759.775c-254.79,432.939 -385.703,947.048 -366.219,1218.27c5.353,74.511 -75.772,51.362 -70.547,128.146c-34.352,0 -48.774,0 -75.279,0c-2.61,-52.876 62.553,-60.26 89.707,-163.933c80.291,-1120.25 562.247,-1527.66 975.199,-1942.26Z" style="fill:#a8c1c9;fill-opacity:0.44;stroke:#000;stroke-width:8.33px;"/><path id="L6a" d="M1828.37,543.556c8.921,-1.097 347.973,0 273.264,0c-228.346,16.806 -388.505,121.97 -497.073,183.388c-232.688,131.634 -516.436,359.659 -603.863,467.477c-117.573,144.995 -202.769,309.408 -280.116,491.463c-102.53,241.331 -193.401,551.675 -180.479,810.222c2.775,55.519 -83.896,84.466 -101.621,152.497l-39.983,1.148c-1.55,-71.597 74.448,-63.744 70.635,-116.065c-24.923,-342.059 172.135,-938.316 403.326,-1286.06c119.379,-179.562 554.867,-500.573 955.91,-704.07Z" style="fill:#a8c1c9;fill-opacity:0.44;stroke:#000;stroke-width:8.33px;"/><path id="L6b" d="M2122.37,543.107c93.013,0.231 119.455,0.141 173.98,0.449c496.873,132.6 200.156,128.811 42.875,199.014c-132.345,-49.194 -460.346,-42.052 -574.975,7.134c-445.019,190.952 -785.845,521.531 -943.684,885.475c-104.329,240.559 -184.804,496.921 -176.882,767.468c1.627,55.565 -44.467,201.925 -36.192,245.956l-168.993,0c16.45,-72.597 105.448,-99.744 101.635,-152.065c-24.923,-342.059 172.135,-884.316 403.326,-1232.06c119.379,-179.562 790.98,-722.336 1178.91,-721.371Z" style="fill:#a8c1c9;fill-opacity:0.44;stroke:#000;stroke-width:8.33px;"/><path id="cc" d="M1863.37,829.408c298.921,-94.316 517.836,-67.683 447.855,-93.838c-104.345,-39 -432.346,-35.052 -546.975,14.134c-445.019,190.952 -785.845,521.531 -943.684,885.475c-104.329,240.559 -184.804,496.921 -176.882,767.468c1.627,55.565 -44.467,201.925 -36.192,245.956l120.007,1.148c-12.55,-78.597 -3.188,-126.892 -9,-260.213c-14.938,-342.64 36.77,-625.316 369.961,-1073.06c128.727,-172.984 346.034,-351.75 774.91,-487.07Z" style="fill:#a8c1c9;fill-opacity:0.44;stroke:#000;stroke-width:8.33px;"/><path id="alv" d="M1863.37,829.408c27.326,-8.622 -60.23,31.124 -33.575,43.549c37.672,17.56 186.638,6.634 221.596,5.087c79.7,-3.527 236.246,30.585 352.955,93.87c68.295,37.032 83.498,80.331 130.436,122.497c19.589,17.597 22.502,114.281 24.189,142.81c4.23,71.489 -131.95,267.434 -296.19,225.969c-18.735,-4.73 86.827,-19.005 181.23,-102.25c61.369,-54.114 68.013,-127.204 66.602,-152.277c-8.359,-148.521 -57.247,-125.644 -138.362,-184.545c-77.55,-56.311 -245.284,-107.952 -284.187,-110.176c-86.075,-4.921 -230.497,-2.907 -282.382,15.788c-455.019,163.952 -739.82,421.821 -872.659,716.766c-107.678,239.078 -150.917,377.533 -155.799,648.151c-2.373,131.565 214.812,274.945 241.088,353.976l-290.813,1.128c-12.55,-78.597 -3.188,-126.892 -9,-260.213c-14.938,-342.64 36.77,-625.316 369.961,-1073.06c128.727,-172.984 346.034,-351.75 774.91,-487.07Z" style="fill:#a8c1c9;fill-opacity:0.44;stroke:#000;stroke-width:8.33px;"/><path id="ec" d="M2283.96,815.979c7.933,6.055 56.223,-23.012 -5.179,-40.189c-58.3,-16.309 -51.568,-18.54 -82.895,-15.683c-70.731,6.45 -123.348,18.618 -148.606,22.673c-25.259,4.056 -131.65,33.857 -152.741,37.18c-21.092,3.323 56.422,24.114 49.427,19.72c-6.996,-4.394 91.182,-25.123 115.623,-29.964c37.183,-7.365 147.414,-52.469 224.371,6.263Z" style="fill:#a8c1c9;fill-opacity:0.44;stroke:#000;stroke-width:8.33px;"/><path id="ec1" serif:id="ec" d="M2577.07,1132.51c-9.89,-1.332 -62.305,-33.345 90.279,-57.829c59.773,-9.591 128.308,91.681 155.804,138.104c36.195,61.111 182.786,262.872 199.239,276.481c0,8.925 0,19.553 0,28.481c-16.949,-13.966 -58.652,-49.728 -72.088,-70.71c-13.423,-20.961 -132.288,-225.131 -226.268,-306.597c-73.616,-63.813 -41.358,6.293 -146.966,-7.93Z" style="fill:#a8c1c9;fill-opacity:0.44;stroke:#000;stroke-width:8.33px;"/><path id="po" d="M1568.46,1939.69c-0,0 3.786,10.55 -7.183,28.442c-10.97,17.892 -26.308,12.091 -47.993,27.892c-21.685,15.801 -68.223,42.657 -108.555,203.013c-40.331,160.356 -23.962,172.324 -39.071,194.688c-15.11,22.364 -26.104,28.198 -44.098,22.434c-17.994,-5.763 -49.427,-33.247 -44.248,-152.286c4.046,-93.015 2.21,-189.332 41.628,-269.267c51.849,-105.14 83.91,-208.009 151.631,-274.916c63.844,-63.078 39.315,19.647 29.115,42.858c-12.524,28.5 -115.556,177.635 -139.882,256.783c-24.326,79.148 -25.327,199.285 -23.993,235.138c1.334,35.853 37.562,-120.125 68.043,-174.971c30.48,-54.845 65.019,-92.5 83.716,-107.439c26.811,-21.422 80.89,-32.369 80.89,-32.369Z" style="fill:#a8c1c9;fill-opacity:0.44;stroke:#000;stroke-width:8.33px;"/><path id="sg" d="M1550.11,2026.63c-0,-0 12.058,-51.976 -7.911,-44.084c-19.519,7.714 -5.637,-2.322 -27.322,13.479c-21.685,15.801 -68.223,42.657 -108.555,203.013c-40.331,160.356 -23.962,172.324 -39.071,194.688c-15.11,22.364 -26.104,28.198 -44.098,22.434c-17.994,-5.763 -49.427,-33.247 -44.248,-152.286c4.046,-93.015 2.21,-189.332 41.629,-269.267c51.848,-105.14 83.909,-208.009 151.63,-274.916c-11.413,-69.9 35.13,-116.704 0.928,-100.3c-42.172,19.311 -127.695,91.039 -133.705,104.713c-7.188,16.359 -76.999,106.818 -128.002,217.142c-21.251,45.967 -51.777,197.808 -49.723,227.082c2.65,37.762 17.081,131.787 54.149,192.44c48.582,79.494 133.562,178.777 134.242,197.03c1.334,35.852 104.953,-238.302 121.409,-298.852c6.48,-23.845 -6.278,-23.76 17.308,-72.117c15.68,-32.147 61.34,-160.199 61.34,-160.199Z" style="fill:#a8c1c9;fill-opacity:0.44;stroke:#000;stroke-width:8.33px;"/><path id="sp1" d="M1323.59,2648.6l12.133,-41.945l-73.549,-6.664l-69.291,-42.199l-125.274,-99.276l-97.706,-106.463l-50.255,53.511l-47.61,-27.773c-0,-0 183.258,232.466 206.272,270.829c46.062,0 245.28,-0.02 245.28,-0.02Z" style="fill:#a8c1c9;fill-opacity:0.44;stroke:#000;stroke-width:8.33px;"/><path id="so" d="M1078.31,2648.62l-206.272,-270.829l-70.364,-15.407c-10.437,61.368 196.13,218.474 216.636,286.236l60,0Z" style="fill:#a8c1c9;fill-opacity:0.44;stroke:#000;stroke-width:8.33px;"/><path id="mo" d="M1517.31,1949.57c-172.618,75.691 -18.589,-77.183 -20.526,-155.074c-21.815,-6.818 -123.34,176.376 -137.637,226.992c-24.008,84.991 -24.132,193.62 -23.118,231.826c1.014,38.205 39.043,-128.431 70.329,-187.203c31.286,-58.772 88.888,-111.72 110.952,-116.541Z" style="fill:#a8c1c9;fill-opacity:0.44;stroke:#000;stroke-width:8.33px;"/><path id="sp2-3" serif:id="sp2/3" d="M1604.96,1137.25c-71.712,-17.102 36.642,-41.515 53.053,-49.884c103.003,-52.527 193.647,-64.211 320.43,-72.861c89.074,11.938 191.449,27.985 226.162,79.925c113.75,170.198 3.224,166.358 -221.431,354.618c-203.364,170.417 -291.01,279.121 -441.952,454.915c-7.459,8.688 -154.615,142.137 -84.773,0.701c57.531,-116.508 98.707,-61.254 399.181,-423.539c65.654,-79.16 197.924,-250.961 139.729,-281.92c-47.159,-25.088 -67.678,-66.113 -126.016,-65.219c-57.868,0.886 -76.329,-17.115 -160.117,11.167c-11.792,3.98 -92.627,-5.127 -104.266,-7.903Z" style="fill:#a8c1c9;fill-opacity:0.44;stroke:#000;stroke-width:8.33px;"/><path id="sp11" serif:id="sp1" d="M919.646,2405.57c0,0 -92.147,-112.125 -72.677,-284.088c27.972,-247.044 217.041,-767.491 700.798,-994.044c28.858,-13.515 24.3,7.409 74.241,11.678c105.887,9.053 18.014,38.418 -15.587,47.682c-224.055,61.771 -386.25,259.53 -412.281,294.992c-211.611,288.277 -308.184,522.718 -299.521,705.71c3.458,73.032 114.389,161.322 25.027,218.07Z" style="fill:#a8c1c9;fill-opacity:0.44;stroke:#000;stroke-width:8.33px;"/><path id="sr" d="M1197.88,2529.16c0,0 -70.991,-113.361 -98.266,-146.78c-27.276,-33.419 -78.711,-224.882 -69.163,-285.108c18.352,-115.764 104.91,-299.867 144.862,-373.883c58.645,-108.647 263.1,-315.092 337.968,-356.934c193.831,-108.33 177.81,54.436 159.34,98.645c-18.471,44.21 -65.964,121.071 -121.707,176.407c-64.279,63.809 -38.384,51.266 -37.633,65.909c1.378,26.876 -60.181,211.905 0,121.016c19.262,-29.092 87.883,-66.682 142.025,-125.432c206.809,-224.413 208.933,-246.547 249.757,-283.984c23.087,-21.173 133.226,-183.842 99.913,-211.15c-32.183,-26.382 -59.503,-42.562 -87.846,-60.591c-31.756,-20.2 -157.294,-15.515 -212.27,-1.379c-69.091,17.767 -147.87,62.402 -191.579,78.658c-156.3,58.13 -247.598,163.87 -383.713,355.162c-156.116,219.402 -268.067,530.825 -227.83,639.753c40.237,108.928 94.146,196.962 291.144,338.328c0.146,0.105 4.998,-28.637 4.998,-28.637Z" style="fill:#a8c1c9;fill-opacity:0.44;stroke:#000;stroke-width:8.33px;"/><path id="so1" serif:id="so" d="M2487.37,1311.4c10.07,-13.437 80.001,-212.927 -85.304,-269.652c-21.603,-7.413 -132.844,-102.418 -322.976,-129.131c-56.913,-7.996 -250.722,10.142 -266.625,15.007c-198.645,60.768 -518.85,226.626 -703.76,448.796c-269.282,323.542 -339.367,720.614 -330.799,907.517c2.639,57.569 15.511,78.714 23.77,78.445l91.295,19.99c4.83,-53.746 -68.956,-105.377 -49.566,-272.426c31.599,-272.232 270.872,-810.082 734.129,-994.09c112.301,-44.607 275.297,-127.888 501.041,-84.828c110.979,21.168 256.545,147.024 115.082,261.545c-95.403,77.233 -24.911,-4.598 -304.438,238.12c-158.942,138.012 -341.771,374.845 -365.914,389.849c-49.572,30.809 6.086,44.987 52.771,2.227c10.997,-39.546 96.418,-118.231 224.124,-243.289c73.106,-71.589 131.062,-97.3 194.634,-132.461c45.2,-25 167.847,-81.916 225.542,-87.06c111.426,-9.933 198.814,-57.582 266.994,-148.559Z" style="fill:#a8c1c9;fill-opacity:0.44;stroke:#000;stroke-width:8.33px;"/><path id="slm" d="M1180.76,2510.13c0,-0 -76.889,-130.7 -100.306,-168.863c-23.417,-38.162 -47.224,-163.704 -45.863,-229.221c2.853,-137.372 133.916,-390.408 186.011,-462.09c52.095,-71.681 236.018,-250.48 313.667,-289.565c205.037,-103.204 148.309,85.779 125.636,131.515c-22.673,45.736 -16.727,34.173 -75.196,109.275c-58.469,75.102 -94.39,94.567 -106.202,103.079c-11.811,8.512 -7.529,-57.629 9.402,-73.456c16.931,-15.827 76.561,-86.658 38.287,-49.767c-38.274,36.892 -155.369,88.556 -202.127,164.248c-46.758,75.693 -119.963,167.43 -141.986,298.411c-22.024,130.982 -31.027,110.019 -2.562,230.171c28.465,120.151 156.591,231.075 169.965,281.716c21.737,82.311 -67.759,46.408 -87.877,44.344c-15.647,-1.606 -80.849,-89.797 -80.849,-89.797Z" style="fill:#a8c1c9;fill-opacity:0.44;stroke:#000;stroke-width:8.33px;"/><path id="APN" d="M2093.6,2648.62c-29.009,3.569 -667.348,-3.588 -696.356,-0.02c87.409,-41.468 64.865,-65.991 95.414,-190.807c24.701,-100.92 22.073,-58.687 107.777,-66.558c50.485,-4.636 488.408,172.467 493.165,257.385Z" style="fill:#a8c1c9;fill-opacity:0.44;fill-rule:nonzero;stroke:#000;stroke-width:8.33px;stroke-linecap:butt;stroke-miterlimit:2;"/><path id="em" d="M2032.57,1941.26c28.155,-41.104 89.958,-78.518 201.938,-65.683c101.223,11.602 252.737,172.623 182.952,136.637c-31.649,-16.32 -231.493,-108.838 -304.6,-43.072c-52.42,47.158 -105.035,146.616 -133.398,166.658c-111.839,79.031 11.938,-134.437 53.108,-194.54Z" style="fill:#a8c1c9;fill-opacity:0.44;fill-rule:nonzero;stroke:#000;stroke-width:8.33px;stroke-linecap:butt;stroke-miterlimit:2;"/><path id="LP" d="M1826.67,2469.31c-81.061,-39.695 -134.963,-48.181 -166.706,-64.701c-38.035,-19.795 -99.497,-12.064 -121.108,-15.124c-18.909,-2.677 -20.146,-118.96 -17.312,-147.384c6.761,-67.825 85.925,-285.504 105.978,-311.451c48.873,-0 252.665,199.357 327.166,146.648c-8.839,25.105 -28.574,44.516 -17.598,70.658c7.651,18.222 20.219,-5.271 29.422,-3.67c1.979,20.365 0.584,85.675 -12.673,110.827c-20.616,39.119 -105.617,169.27 -127.169,214.197Z" style="fill:#a8c1c9;fill-opacity:0.44;fill-rule:nonzero;stroke:#000;stroke-width:8.33px;stroke-linecap:butt;stroke-linejoin:miter;stroke-miterlimit:4;"/><path id="VPL" d="M2657.18,2355.86c-129.487,-216.277 -188.406,-269.414 -221.963,-331.413c-12.949,-23.925 -103.925,-47.048 -169.346,-66.75c-167.651,-50.49 -176.717,50.689 -250.89,137.587c109.778,55.678 633.594,301.653 642.199,260.576Z" style="fill:#a8c1c9;fill-opacity:0.44;fill-rule:nonzero;stroke:#000;stroke-width:8.33px;stroke-linecap:butt;stroke-linejoin:miter;stroke-miterlimit:4;"/><path id="PO" d="M2521.57,2322.93c-108.201,-46.082 -267.662,-103.929 -506.587,-227.651c-16.176,22.292 -15.573,28.485 -49.723,49.744c2.117,113.514 10.237,74.491 -137.774,323.948c300.237,152.318 229.458,79.553 521.123,118.521c29.658,-3.648 172.961,-264.562 172.961,-264.562Z" style="fill:#a8c1c9;fill-opacity:0.44;fill-rule:nonzero;stroke:#000;stroke-width:8.33px;stroke-linecap:butt;stroke-linejoin:miter;stroke-miterlimit:4;"/><path id="PO1" serif:id="PO" d="M2521.57,2322.93c58.675,33.462 129.21,24.369 156.992,71.771c45.758,78.073 91.58,191.65 74.485,253.902c-66.33,0 -258.018,-0.114 -319.167,0c-40.883,-13.486 -51.936,-50.079 -85.271,-61.111c29.658,-3.648 172.961,-264.562 172.961,-264.562Z" style="fill:#aac0c8;fill-opacity:0.44;fill-rule:nonzero;stroke:#000;stroke-width:8.33px;stroke-linecap:butt;stroke-linejoin:miter;stroke-miterlimit:4;"/><path id="PF" d="M2095.31,2648.6l338.57,0l-31.798,-18.456l-32.695,-31.042l-20.778,-11.613l-84.864,-9.318l-135.907,-5.307l-95.378,-13.766l-61.513,-22.232l110.892,86.069l13.471,25.665Z" style="fill:#aac0c8;stroke:#000;stroke-width:8.33px;"/><path id="int" d="M1973.9,852.512c-6.996,-4.393 -53.759,-20.31 -74.85,-16.987c-21.092,3.323 -45.827,7.842 -67.918,30.989c-11.592,12.147 54.045,18.613 116.215,12.415c82.305,-8.205 197.327,6.02 237.487,17.86c40.16,11.84 135.08,41.473 165.57,51.408c65.493,21.342 97.478,46.191 209.168,174.924c-18.067,69.832 21.31,118.981 15.363,136.738c-7.476,22.32 -30.155,100.979 -23.152,130.511c15.432,65.073 38.608,76.061 58.51,89.094c30.646,20.069 53.553,33.022 80.597,59.463c18.069,17.665 16.067,4.326 112.092,43.264c7.938,3.219 -174.258,-120.525 -176.221,-122.911c-37.261,-45.282 -30.409,-144.982 -26.56,-205.391c3.849,-60.408 -25.922,-84.926 -19.376,-106.137c-49.803,-57.22 -113.364,-135.811 -169.243,-171.442c-31.793,-20.273 -55.476,-22.617 -87.249,-36.454c-38.552,-16.789 1.582,-68.044 -9.065,-73.213c-54.279,-26.35 -15.224,44.256 -129.25,8.966c-42.803,-13.248 -205.123,-18.703 -212.118,-23.097Z" style="fill:#a8c1c9;fill-opacity:0.44;stroke:#000;stroke-width:8.33px;"/><path id="amc" d="M3022.39,843.163c-173.067,-23.381 -275.654,-62.134 -341.625,-91.851c-64.307,-28.967 -80.901,-26.557 -136.127,-54.634c-44.867,-22.811 -281.9,73.232 -264.468,79.072c17.432,5.84 163.987,-74.048 160.513,-0.518c-3.474,73.53 72.158,147.136 70.441,142.906c-34.719,-85.557 -35.248,-129.51 6.881,-115.582c55.812,18.452 52.5,-13.344 84.419,-24.562c29.724,-10.447 308.928,78.775 419.966,113.325l0,-48.156Z" style="fill:#a8c1c9;fill-opacity:0.44;stroke:#000;stroke-width:8.33px;"/><path id="LGd" d="M1627.51,1930.65c66.612,12.207 249.153,190.333 327.173,146.649c73.617,-124.574 70.321,-164.522 163.401,-194.565c-134.963,-184.565 -188.222,-187.665 -194.16,-209.224c-56.975,49.104 -42.256,27.018 -120.153,74.592c-118.904,72.619 -176.261,182.548 -176.261,182.548Z" style="fill:#a8c1c9;fill-opacity:0.44;fill-rule:nonzero;stroke:#000;stroke-width:6.64px;stroke-linecap:butt;stroke-linejoin:miter;stroke-miterlimit:4;"/><path id="ZI" d="M2483.13,1846.37c-67.057,14.514 -103.555,-15.235 -107.622,-40.177c-15.71,-96.345 -54.489,13.125 -58.896,99.464c33.76,20.268 79.124,62.529 165.115,126.059c49.56,36.615 119.351,104.425 163.206,175.288c34.02,54.97 68.337,143.081 105.786,207.14c26.839,45.908 59.439,70.468 75.484,103.231c27.971,57.113 13.764,117.584 6.585,131.224c25.178,0 160.292,0 189.601,0c0,-41.976 5.447,-527.751 0,-584.237c-106.311,-18.538 -180.118,-98.68 -213.568,-132.7c-111.158,-113.055 -91.015,-65.266 -183.775,-145.454c-98.829,-85.436 -31.964,26.05 -60.982,43.174c-18.691,11.03 -37.386,7.563 -80.934,16.988Z" style="fill:#a8c1c9;fill-opacity:0.44;fill-rule:nonzero;stroke:#000;stroke-width:8.33px;stroke-linecap:butt;stroke-linejoin:miter;stroke-miterlimit:4;"/><path id="ZI1" serif:id="ZI" d="M2812.07,2010.96c18.309,24.03 20.672,79.376 99.663,150.906c45.675,41.361 92.841,103.964 110.662,128.605l0,-224.959c-106.311,-18.538 -174.145,-105.828 -213.568,-132.7c-41.158,-28.055 -17.177,51.347 3.243,78.148Z" style="fill:#a8c1c9;fill-opacity:0.44;fill-rule:nonzero;stroke:#000;stroke-width:8.33px;stroke-linecap:butt;stroke-linejoin:miter;stroke-miterlimit:4;"/><path id="RT" d="M2417.4,1604.09c9.706,37.382 -52.473,58.732 -55.382,113.169c-4.053,75.852 21.006,143.29 99.618,132.043c132.368,-18.938 112.591,1.633 102.428,-126.703c-3.984,-50.31 -119.117,-99.883 -146.664,-118.509Z" style="fill:#a8c1c9;fill-opacity:0.44;fill-rule:nonzero;stroke:#000;stroke-width:8.33px;stroke-linecap:butt;stroke-linejoin:miter;stroke-miterlimit:4;"/><path id="CTXspl" d="M3022.58,543.557c0,0 -0.61,40.188 -0.567,86.46c-78.116,33.27 -106.7,30.014 -166.163,9.681c-68.717,-23.497 -135.344,34.455 -251.003,-3.223c-117.084,-38.142 -308.499,-92.919 -308.499,-92.919l726.232,0.001Z" style="fill:#a8c1c9;fill-opacity:0.44;stroke:#000;stroke-width:8.33px;"/><path id="CP" d="M2486.1,826.884c-5.371,28.502 42.788,91.419 60.948,113.671c45.158,55.331 77.196,156.083 93.178,141.056c16.695,-15.697 70.28,-14.41 154.216,92.96c99.227,126.929 143.374,235.336 227.955,314.691c0,-56.081 0,-499.656 0,-597.943c-172.864,-59.661 -395.211,-117.976 -413.222,-115.493c-18.011,2.484 -42.038,37.213 -66.531,32.259c-24.492,-4.955 -49.674,-17.655 -56.544,18.799Z" style="fill:#a8c1c9;fill-opacity:0.44;stroke:#000;stroke-width:8.33px;"/><path id="ml" d="M2478.22,2090.44c-113.698,-142.398 13.849,-76.166 129.302,62.688c77.962,93.764 111.383,243.712 189.136,321.802c41.486,41.666 57.795,109.629 35.412,173.674c-15.002,1.617 -67.649,-0.656 -79.165,0.585c36.074,-143.631 -228.185,-500.512 -274.685,-558.749Z" style="fill:#a8c1c9;fill-opacity:0.44;fill-rule:nonzero;stroke:#000;stroke-width:8.33px;stroke-linecap:butt;stroke-miterlimit:2;"/><path id="LGv" d="M2122.6,1524.54c-98.747,19.157 -164.255,97.767 -198.676,148.971c52.441,55.917 87.678,57.9 194.16,209.224c71.402,-16.826 143.008,-12.966 198.689,24.839c6.948,-130.551 52.013,-142.485 45.808,-168.856c-11.796,-50.131 31.947,-76.375 45.952,-98.418c20.513,-32.286 -65.78,-70.24 -85.294,-84.643c-34.339,-25.344 -125.767,-45.641 -200.639,-31.117Z" style="fill:#a8c1c9;fill-opacity:0.44;fill-rule:nonzero;stroke:#000;stroke-width:8.33px;stroke-linecap:butt;stroke-linejoin:miter;stroke-miterlimit:4;"/><path id="cpd" d="M2833.93,1654.02c-87.563,-25.615 -280.884,0.716 -269.366,60.008c12.476,64.223 145.164,114.297 209.83,181.615c89.279,92.941 132.328,139.833 248.157,168.763c0,-162.959 -0.234,-237.578 -0.155,-310.063c-129.964,-106.43 -158.234,-91.479 -188.466,-100.323Z" style="fill:#a8c1c9;fill-opacity:0.44;fill-rule:nonzero;stroke:#000;stroke-width:8.33px;stroke-linecap:butt;stroke-linejoin:miter;stroke-miterlimit:4;"/><path id="opt" d="M2259.2,1516.98c-6.782,11.175 224.62,109.793 284.181,164.611c79.878,-47.16 112.662,-52.778 141.638,-60.645c45.911,-12.464 145.281,-4.88 87.4,-24.861c-37.09,-12.805 -33.868,-11.169 -155.676,-18.618c-96.919,-5.927 -120.78,-9.703 -164.14,-26.258c-48.346,-18.458 -122.102,-26.898 -193.403,-34.229Z" style="fill:#a8c1c9;fill-opacity:0.44;fill-rule:nonzero;stroke:#000;stroke-width:8.33px;stroke-linecap:butt;stroke-linejoin:miter;stroke-miterlimit:4;"/><path id="opt1" serif:id="opt" d="M1323.59,2648.6c-0,0 154.675,-380.501 150.732,-405.679c-5.098,-32.56 76.897,-187.143 77.745,-229.857c0.847,-42.714 7.296,-55.133 17.268,-84.551c14.814,-43.7 147.253,-167.41 219.658,-238.07c72.405,-70.66 303.723,-218.573 431.247,-230.469c58.394,-5.448 61.529,22.486 134.124,34.268c41.187,6.685 89.375,23.684 151.191,41.353c69.148,19.765 185.278,14.05 213.402,20.808c65.002,15.622 91.208,27.534 110.943,39.674c21.068,12.959 49.755,32.056 117.558,65.423c17.723,8.722 34.891,39.229 74.937,55.822l0,31.572c0,-0 -140.051,-119.095 -253.155,-152.817c-59.472,-17.732 -252.771,-22.799 -258.629,-25.69c-27.559,-13.603 -192.01,-58.058 -252.428,-53.341c-56.092,4.38 -143.576,-11.434 -230.04,45.346c-86.465,56.779 -92.935,114.259 -124.865,129.67c-243.207,117.387 -285.674,259.86 -298.5,289.052c-77.615,176.659 -90.888,341.978 -91.496,377.52c-0.436,25.474 -45.272,194.039 -49.237,224.382c-4.287,32.81 -66.796,65.584 -66.796,65.584c-0,0 -34.154,0.046 -73.659,0Z" style="fill:#a8c1c9;fill-opacity:0.44;stroke:#000;stroke-width:8.33px;"/><path id="fi" d="M2279.97,1469.75l151.05,43.652l113.702,30.328l97.992,7.787l65.614,3.232l-37.584,-33.811l-32.835,-22.653l-55.732,-39.005l-23.118,-41.689l-8.481,-36.297l4.509,-45.001l11.375,-47.994l9.028,-31.269l-16.431,-59.939l-3.854,68.522l-19.305,45.996l-35.002,51.614l-22.166,24.678l-48.729,40.712l-47.326,25.35l-41.532,12.01l-61.175,3.777Z" style="fill:#a8c1c9;fill-opacity:0.44;stroke:#000;stroke-width:8.33px;"/></svg>