<?xml version="1.0" encoding="UTF-8" standalone="no"?><!DOCTYPE svg PUBLIC "-//W3C//DTD SVG 1.1//EN" "http://www.w3.org/Graphics/SVG/1.1/DTD/svg11.dtd"><svg width="100%" height="100%" viewBox="0 0 639 893" version="1.1" xmlns="http://www.w3.org/2000/svg" xmlns:xlink="http://www.w3.org/1999/xlink" xml:space="preserve" xmlns:serif="http://www.serif.com/" style="fill-rule:evenodd;clip-rule:evenodd;stroke-linecap:round;stroke-linejoin:round;stroke-miterlimit:1.5;"><path id="image" d="M635.384,1.042l-634.342,-0l2.535,885.813l634.343,0l-2.536,-885.813Z" style="fill:#e7e7e7;fill-opacity:0.03;stroke:#000;stroke-width:2.08px;"/><path id="_-" serif:id="?" d="M256.491,886.855c0,0 -2.125,-9.045 -0.09,-10.621c2.035,-1.577 6.355,-8.263 3.587,-19.352c-2.769,-11.089 -4.427,-14.917 -6.14,-18.214c-1.713,-3.297 -10.018,-16.848 -13.398,-20.57c-3.381,-3.721 -13.022,-3.324 -14.445,1.238c-1.423,4.562 -1.765,16.563 -0.154,18.854c1.611,2.291 7.007,21.628 16.298,12.174c9.292,-9.454 3.754,1.631 4.087,7.102c0.333,5.47 2.014,23.881 -10.663,8.35c-12.676,-15.532 -13.427,-16.91 -19.906,-16.726c-6.479,0.185 -17.537,6.99 -25.576,3.937c-8.038,-3.053 -7.499,-13.258 -14.139,-14.49c-6.64,-1.232 -17.929,5.313 -10.315,-1.676c7.614,-6.988 10.551,-13.455 8.555,-20.962c-1.997,-7.507 -15.402,-20.396 -39.398,-15.094c-23.996,5.302 -2.289,1.055 -17.924,-11.809c-15.635,-12.864 -15.382,-5.948 -19.306,-1.282c-3.925,4.665 -7.535,8.984 -7.535,8.984l12.209,12.454l17.477,19.048c-0,-0 9.427,0.723 10.855,2.585c1.428,1.862 -3.815,9.079 -3.815,9.079c0,-0 3.225,13.418 4.657,17.961c1.432,4.542 7.726,8.647 12.017,10.191c4.291,1.543 17.546,-4.367 22.638,-3.8c5.092,0.567 7.419,7.613 11.491,8.216c4.071,0.604 8.689,-3.677 12.209,-0.049c3.52,3.627 6.688,14.472 6.688,14.472l60.036,0Z" style="fill:#e7e7e7;fill-opacity:0.03;stroke:#000;stroke-width:2.08px;"/><path id="LM" d="M1.516,166.617l-0.033,-11.301c149.705,-96.665 170.063,-124.989 276.4,-154.274l18.935,-0c-96.225,31.648 -136.534,51.385 -295.302,165.575Z" style="fill:#e7e7e7;fill-opacity:0.03;stroke:#000;stroke-width:2.08px;"/><path id="L1" d="M2.046,166.16l-0.447,29.435c72.968,-65.094 232.609,-158.366 336.297,-194.553l-41.078,-0c-102.673,37.151 -122.21,44.487 -294.772,165.118Z" style="fill:#e7e7e7;fill-opacity:0.03;stroke:#000;stroke-width:2.08px;"/><path id="L2-3" serif:id="L2/3" d="M2.046,195.595l0,60.427c103.028,-81.475 188.083,-136.962 350.189,-200.245c113.975,-44.494 229.699,15.794 283.244,-21.801l-0.095,-32.934l-297.488,-0c-101.706,35.562 -261.028,127.968 -335.85,194.553Z" style="fill:#e7e7e7;fill-opacity:0.03;stroke:#000;stroke-width:2.08px;"/><path id="L4" d="M2.046,256.022l-0.447,46.383c117.678,-108.187 212.988,-166.246 349.89,-209.196c139.32,-43.71 188.828,-7.103 283.99,-37.357l-0,-21.876c-60.225,40.168 -162.912,-25.695 -283.436,21.876c-67.364,26.589 -230.617,94.82 -349.997,200.17Z" style="fill:#e7e7e7;fill-opacity:0.03;stroke:#000;stroke-width:2.08px;"/><path id="L5" d="M1.904,302.405l0.405,141.543c160.109,-297.241 368.381,-333.521 633.414,-324.588l-0.244,-63.508c-104.955,31.841 -141.292,-10.265 -297.583,41.716c-125.384,41.703 -221.956,97.575 -335.992,204.837Z" style="fill:#e7e7e7;fill-opacity:0.03;stroke:#000;stroke-width:2.08px;"/><path id="L6a" d="M2.309,443.948c-0.212,3.239 0.36,102.97 0.36,125.513c108.453,-319.946 361.335,-445.141 632.81,-398.558l0.244,-51.543c-154.122,2.171 -439.597,-37.003 -633.414,324.588Z" style="fill:#e7e7e7;fill-opacity:0.03;stroke:#000;stroke-width:2.08px;"/><path id="L6b" d="M2.669,569.461c-0,18.932 -0.735,102.368 -0.735,129.413c6.749,-42.593 9.965,-29.623 24.931,-69.445c-4.216,-28.125 2.929,-41.106 10.381,-87.573c10.381,-64.732 110.024,-232.118 232.651,-299.452c87.929,-48.282 161.795,-66.613 225.409,-71.415c24.693,-1.864 65.851,11.666 84.929,28.474c28.273,24.908 46.295,66.417 55.699,68.81l0,-17.275c-36.633,-73.753 -91.365,-90.522 -134.035,-88.696c-243.315,10.412 -419.597,170.221 -499.23,407.159Z" style="fill:#e7e7e7;fill-opacity:0.03;stroke:#000;stroke-width:2.08px;"/><path id="ec" d="M175.774,882.02c22.664,10.369 -15.435,4.016 -22.139,1.971c-6.705,-2.045 -16.978,-6.821 -23.538,-13.712c-6.561,-6.892 -7.194,-16.895 -11.237,-25.44c-3.874,-8.186 -17.33,-22.228 -26.85,-35.364c-6.909,-9.534 -24.771,-14.935 -42.187,-17.245c-17.415,-2.31 -22.162,-23.808 -30.129,-45.215c-7.966,-21.406 -5.917,-52.931 -4.055,-74.989c1.744,-20.674 9.978,-35.902 10.878,-45.083c0.9,-9.182 -4.07,-14.222 3.171,-44.936c1.767,-7.494 -4.621,10.669 8.82,33.415c1.466,2.483 -3.235,-2.367 -3.722,6.62c-0.488,8.988 -14.642,70.442 -11.827,91.194c2.815,20.753 9.339,47.129 16.219,58.139c6.877,11.005 23.173,10.813 39.292,17.413c8.593,3.518 18.967,15 24.364,21.029c14.474,16.172 20.551,21.152 22.89,27.16c4.799,12.327 4.008,24.258 10.674,27.742c6.667,3.484 30.431,13.208 39.376,17.301Z" style="fill:#e7e7e7;fill-opacity:0.03;stroke:#000;stroke-width:2.08px;"/><path id="sg" d="M448.254,458.449c0,-0 1.484,9.263 8.601,6.972c7.117,-2.29 0.125,-12.127 7.347,-18.394c7.223,-6.268 11.996,-23.102 71.254,-23.121c59.258,-0.019 65.159,8.343 74.165,4.984c9.005,-3.358 9.765,-5.404 9.154,-12.282c-0.611,-6.878 -11.38,-19.161 -53.435,-27.907c-32.862,-6.834 -60.613,-23.29 -91.661,-16.447c-40.838,9 -77.571,21.976 -106.272,39.989c-27.058,16.981 9.526,8.96 18.608,8.829c9.082,-0.131 62.463,-28.073 92.056,-29.646c29.594,-1.573 72.716,10.873 85.157,14.531c12.44,3.658 -44.966,2.614 -66.537,8.524c-21.571,5.909 -41.425,11.861 -44.132,20.07c-2.707,8.208 -4.305,23.898 -4.305,23.898Z" style="fill:#e7e7e7;fill-opacity:0.03;stroke:#000;stroke-width:2.08px;"/><path id="po" d="M452.499,434.735c15.43,-46.22 -26.651,-3.718 -66.484,-13.663c9.082,-0.131 62.463,-28.073 92.056,-29.646c29.594,-1.573 72.716,10.873 85.157,14.531c12.44,3.658 -44.966,2.614 -66.537,8.524c-21.571,5.909 -41.485,12.045 -44.192,20.254Z" style="fill:#e7e7e7;fill-opacity:0.03;stroke:#000;stroke-width:2.08px;"/><path id="sp2-3" serif:id="sp2/3" d="M168.888,436.946c-0.861,-27.783 -3.23,-21.205 -6.722,-15.129c-33.695,58.616 -57.836,118.196 -64.671,167.511c1.57,35.347 12.745,58.65 28.498,76.212c43.766,44.715 91.8,-12.15 128.188,-72.717c64.922,-77.914 140.64,-136.664 187.827,-148.438c3.953,-0.986 35.698,-50.291 -14.598,-23.847c-69.29,36.432 -79.725,57.742 -168.145,126.753c-59.144,46.161 -48.791,20.379 -62.732,31.873c-13.141,10.836 1.096,27.449 -28.919,23.68c-18.87,-2.37 -24.736,-42.407 -22.294,-57.367c9.447,-57.858 7.35,-49.719 24.05,-81.182c2.246,-4.232 -0.337,-22.641 -0.482,-27.349Z" style="fill:#e7e7e7;fill-opacity:0.03;stroke:#000;stroke-width:2.08px;"/><path id="sp1" d="M636.377,347.694l-0.443,-24.456c-19.549,-2.997 -54.61,-104.931 -118.007,-110.684c-81.977,-7.44 -260.753,45.979 -346.822,194.481c-6.137,10.588 -2.336,7.647 -2.241,27.996c0.07,14.914 2.64,26.953 9.09,14.801c42.443,-79.958 13.997,-68.809 140.98,-159.962c48.272,-34.651 142.908,-57.826 182.782,-59.005c63.47,-1.877 83.963,76.077 134.661,116.829Z" style="fill:#e7e7e7;fill-opacity:0.03;stroke:#000;stroke-width:2.08px;"/><path id="mo" d="M529.216,457.02c-40.529,8.47 -42.125,2.624 -58.991,6.645c-13.623,3.248 -10.029,-14.186 -7.034,-16.63c7.407,-6.041 11.995,-23.102 71.253,-23.121c59.258,-0.019 65.16,8.343 74.165,4.985c9.005,-3.358 9.766,-5.404 9.155,-12.283c-0.611,-6.878 -11.38,-19.161 -53.436,-27.907c-32.861,-6.834 -60.612,-23.289 -91.66,-16.447c-40.838,9.001 -77.681,21.799 -106.273,39.989c-20.92,13.31 -22.37,3.197 -27.932,6.739c-35.462,22.582 -58.021,39.085 -64.248,32.044c-6.2,-7.012 33.86,-40.424 71.075,-65.484c22.646,-15.249 99.732,-54.214 129.321,-52.54c59.081,3.341 44.875,2.45 161.931,72.44c-0.764,11.641 1.122,20.53 0.103,36.061c-5.627,1.079 -46.859,18.804 -70.57,13.684c-6.614,-1.428 -33.394,1.101 -36.859,1.825Z" style="fill:#e7e7e7;fill-opacity:0.03;stroke:#000;stroke-width:2.08px;"/><path id="sr" d="M636.307,364.711c-0,0 -61.197,-33.877 -71.888,-45.826c-10.691,-11.949 -53.886,-34.718 -75.172,-33.692c-40.915,1.973 -115.766,33.715 -141.919,48.157c-26.153,14.442 -93.78,64.438 -110.865,91.408c-39.396,62.19 8.539,59.124 24.558,53.966c16.019,-5.159 22.952,-5.841 50.599,-22.465c27.646,-16.623 45.191,-24.434 48.652,-28.308c0.757,-0.848 80.663,-15.426 46.966,3.714c-10.785,6.126 -59.593,42.471 -81.732,61.26c-135.212,114.75 -108.122,70.853 -129.768,86.946c-10.369,7.709 -3.218,27.323 -24.427,23.353c-18.492,-3.461 -20.823,-17.439 -24.383,-30.553c-8.499,-31.315 9.834,-91.156 26.685,-117.827c31.483,-49.831 14.847,-76.844 139.356,-161.065c65.074,-44.018 184.316,-77.061 220.837,-56.817c36.522,20.243 77.866,96.38 102.501,110.716c0.056,0.033 -0,17.033 -0,17.033Z" style="fill:#e7e7e7;fill-opacity:0.03;stroke:#000;stroke-width:2.08px;"/><path id="so" d="M181.207,742.703c-14.82,-13.588 -54.159,-13.235 -57.723,-13.02c-15.341,0.924 -17.712,-7.193 -22.877,-5.42c-8.431,2.895 -34.181,-37.768 -40.599,-95.365c-3.252,-29.189 -1.892,-56.315 5.601,-83.867c3.217,-11.831 13.289,-37.411 15.92,-43.545c32.859,-76.616 94.358,-184.207 205.455,-249.509c136.38,-80.164 211.268,-69.129 277.376,-52.767c20.363,5.039 44.665,76.714 71.837,85.835l0.11,38.238c-19.422,-1.738 -51.252,-106.433 -119.182,-110.8c-100.287,-6.447 -274.675,61.153 -353.295,205.785c-22.784,41.916 -78.766,144.207 -61.009,203.293c4.916,16.358 33.919,93.347 93.975,44.056c56.046,-46 40.332,-74.977 141.484,-158.337c61.774,-50.908 109.689,-68.466 109.518,-62.092c-0.177,6.604 -1.362,16.625 -10.319,17.69c-14.711,1.749 -77.054,34.431 -102.842,68.205c-21.975,28.78 -48.043,55.375 -62.72,80.767c-12.649,21.883 -14.745,42.708 -23.073,65.203c-12.37,33.415 -31.155,99.099 -67.637,65.65Z" style="fill:#e7e7e7;fill-opacity:0.03;stroke:#000;stroke-width:2.08px;"/><path id="alv" d="M58.35,675.955c3.362,11.188 14.438,36.042 23.69,49.65c4.018,5.909 20.2,-1.902 18.567,-1.342c-8.431,2.895 -34.181,-37.768 -40.599,-95.365c-3.252,-29.189 -1.892,-56.315 5.601,-83.867c3.217,-11.831 13.289,-37.411 15.92,-43.545c32.859,-76.616 94.358,-184.207 205.455,-249.509c136.38,-80.164 211.268,-69.129 277.376,-52.767c20.363,5.039 44.665,76.714 71.837,85.835l-0.263,-16.772c-12.224,-5.854 -28.522,-47.494 -58.879,-71.423c-25.325,-19.962 -63.172,-27.645 -90.884,-25.084c-61.074,5.647 -163.124,31.45 -253.749,94.691c-57.859,40.376 -108.957,106.453 -143.592,160.811c-12.179,19.114 -53.279,81.249 -41.085,117.968c2.459,7.404 -1.93,32.558 -1.39,52.37c0.832,30.524 6.342,59.541 11.995,78.349Z" style="fill:#e7e7e7;fill-opacity:0.03;stroke:#000;stroke-width:2.08px;"/><path id="slm" d="M636.307,364.711c-0,0 -62.327,-33.953 -73.018,-45.902c-10.691,-11.949 -50.224,-34.657 -71.51,-33.631c-40.915,1.973 -124.48,37.334 -150.633,51.775c-26.153,14.442 -87.559,60.774 -104.644,87.743c-39.396,62.19 7.37,59.109 23.389,53.951c16.019,-5.158 22.952,-5.841 50.599,-22.464c27.646,-16.624 45.191,-24.434 48.652,-28.309c3.461,-3.875 -17.314,-12.844 -23.432,-7.571c-6.117,5.272 -46.686,32.644 -57.128,32.522c-10.442,-0.121 -2.593,-13.007 11.591,-24.84c14.184,-11.833 52.603,-44.368 79.698,-56.449c27.095,-12.082 67.216,-40.171 110.382,-38.47c43.165,1.701 45.489,7.199 82.01,27.443c36.521,20.244 58.578,36.561 74.279,44.941c0,-4.733 -0.235,-40.739 -0.235,-40.739Z" style="fill:#e7e7e7;fill-opacity:0.03;stroke:#000;stroke-width:2.08px;"/><path id="APN" d="M636.955,586.746c0.691,-10.53 -0.691,-100.611 0,-111.141c-15.288,10.632 -9.467,10.466 -33.94,9.744c-43.741,-1.291 -20.875,37.223 -19.887,50.072c10.983,30.51 38.954,47.617 53.827,51.325Z" style="fill:#e7e7e7;fill-opacity:0.03;fill-rule:nonzero;stroke:#000;stroke-width:2.08px;stroke-linecap:butt;stroke-miterlimit:2;"/><path id="cpd" d="M316.331,827.659c5.708,-10.407 18.056,4.43 38.702,-1.859c20.497,-6.244 15.915,19.978 50.566,61.055l-77.566,0c-20.183,-24.258 -18.088,-47.551 -11.702,-59.196Z" style="fill:#e7e7e7;fill-opacity:0.03;fill-rule:nonzero;stroke:#000;stroke-width:2.08px;stroke-linecap:butt;stroke-linejoin:miter;stroke-miterlimit:4;"/><path id="em" d="M404.643,643.223c-12.528,10.723 -16.377,17.191 -5.866,53.964c5.112,17.887 2.549,-6.706 29.846,-35.945c7.101,-4.914 53.393,-50.707 42.259,-55.233c-20.046,-8.15 -47.92,21.534 -66.239,37.214Z" style="fill:#e7e7e7;fill-opacity:0.03;fill-rule:nonzero;stroke:#000;stroke-width:2.08px;stroke-linecap:butt;stroke-miterlimit:2;"/><path id="opt" d="M636.645,441.511c-31.452,10.846 -56.323,17.818 -70.554,13.687c-13.923,-4.041 -61.39,7.584 -76.09,6.893c-14.701,-0.69 -32.945,4.785 -35.67,3.682c-2.725,-1.103 -5.652,-3.869 -13.61,-4.409c-7.958,-0.54 -63.81,27.35 -89.165,51.841c-25.356,24.491 -72.187,88.472 -76.704,93.782c-4.517,5.309 -22.917,47.486 -19.926,73.968c2.991,26.483 13.774,96.559 18.196,120.39c4.422,23.831 5.305,40.426 9.33,48.401c9.547,18.914 2.038,20.332 4.933,37.109c3.439,0 4.397,0 9.979,0c2.4,-21.943 -3.279,-54.134 -8.213,-76.3c-4.934,-22.165 -10.3,-54.859 -10.3,-54.859c0,0 7.374,-9.494 6.82,-11.796c-0.296,-1.23 -7.417,-6.884 -11.559,-27.621c-3.612,-18.083 -4.498,-50.906 -2.564,-60.12c4.151,-19.78 12.883,-35.013 33.671,-64.903c20.788,-29.89 35.465,-38.619 41.543,-51.249c5.476,-11.378 48.119,-57.827 88.429,-63.608c6.517,-0.935 12.275,-4.349 23.214,-5.019c18.549,-1.137 43.964,6.597 56.027,8.718c18.227,3.205 31.432,3.713 38.182,0.883c5.595,-2.345 31.015,6.159 41.438,4.722c29.62,-4.081 19.325,7.56 42.691,-9.95l-0.098,-34.242Z" style="fill:#e7e7e7;fill-opacity:0.03;stroke:#000;stroke-width:2.08px;"/><path id="LP" d="M597.062,559.594c-7.68,-11.954 -16.128,-22 -17.154,-31.709c-0.975,-9.233 -9.065,-20.716 1.417,-37.073c3.703,-5.778 -14.165,-11.717 -36.901,-8.135c-21.265,3.351 -84.185,-18.513 -95.218,-10.088c45.582,14.433 26.856,86.677 3.864,134.149c7.776,-3.53 9.23,-4.419 17.629,-0.802c5.855,2.521 -4.804,13.312 -6.427,17.043c6.445,0.443 28.855,-9.663 37.216,-13.572c10.995,-5.141 81.743,-41.424 95.574,-49.813Z" style="fill:#e7e7e7;fill-opacity:0.03;fill-rule:nonzero;stroke:#000;stroke-width:2.08px;stroke-linecap:butt;stroke-linejoin:miter;stroke-miterlimit:4;"/><path id="VPL" d="M583.484,807.047c5.551,20.864 -25.836,45.131 -40.659,35.302c-16.109,-10.681 -42.903,-37.537 -67.63,-58.872c-37.023,-31.947 -52.547,-25.283 -64.585,-53.865c-18.731,-44.474 17.555,-58.546 42.782,-92.549c11.295,2.097 130.092,169.984 130.092,169.984Z" style="fill:#e7e7e7;fill-opacity:0.03;fill-rule:nonzero;stroke:#000;stroke-width:2.08px;stroke-linecap:butt;stroke-linejoin:miter;stroke-miterlimit:4;"/><path id="VPLpc" d="M635.934,819.829c-11.931,-5.325 -19.206,-13.569 -32.359,-11.333c-21.098,3.586 -30.571,27.653 -34.132,35.201c-7.034,14.907 27.336,15.339 44.389,24.938c18.697,10.524 21.899,12.927 21.899,12.927l0.203,-61.733Z" style="fill:none;stroke:#000;stroke-width:2.08px;"/><path id="PF" d="M637.155,586.746c-8.106,2.826 -33.276,-18.95 -40.09,-26.88l-41.34,21.411c26.744,32.559 11.868,196.527 80.209,238.393l1.221,-232.924Z" style="fill:none;stroke:#000;stroke-width:2.08px;"/><path id="PO" d="M583.484,807.047c-30.575,-37.778 -87.223,-135.257 -130.092,-169.984c-4.504,-3.649 8.748,-10.537 10.87,-14.07c11.295,2.097 46.761,-16.252 91.012,-40.939c2.58,-1.11 9.154,15.851 9.909,19.556c19.964,97.965 7.23,111.663 46.716,197.965c-0.706,10.766 -28.415,7.472 -28.415,7.472Z" style="fill:#e7e7e7;fill-opacity:0.03;fill-rule:nonzero;stroke:#000;stroke-width:2.08px;stroke-linecap:butt;stroke-linejoin:miter;stroke-miterlimit:4;"/><path id="int" d="M38.508,615.422c-1.489,-2.469 -9.979,-14.439 -8.82,-33.415c0.47,-7.685 4.884,-44.372 14.154,-51.082c2.112,-1.529 5.513,22.829 5.213,29.77c-0.351,8.127 -4.064,4.858 -3.682,15.431c2.764,76.414 7.959,50.264 10.88,69.863c1.121,7.524 -4.936,8.569 -3.735,12.55c4.33,14.353 15.922,46.055 22.169,55.621c6.247,9.565 11.085,21.495 19.925,13.704c8.84,-7.791 11.354,-1.549 17.384,0.795c6.03,2.343 57.25,-1.421 70.575,15.584c2.709,3.458 7.499,3.485 13.237,5.218c4.052,1.225 26.116,15.492 30.679,17.133c7.791,2.802 13.001,7.607 15.302,17.106c2.3,9.499 -4.27,10.038 -1.288,17.138c2.982,7.099 10.581,23.706 20.303,31.746c10.02,8.287 21.987,21.974 24.247,23.697c2.261,1.722 2.87,13.459 0.013,13.681c-14.745,1.146 -2.749,-9.268 -13.318,-13.127c-11.337,-4.139 -26.818,-32.589 -29.54,-36.331c-6.452,-8.87 -11.875,-15.342 -9.863,-30.402c1.405,-10.513 -11.616,-15.913 -29.572,-22.439c-18.3,-6.65 -19.472,-21.717 -72.247,-27.869c-49.238,-5.74 -17.547,0.729 -38.078,9.667c-9.081,3.954 -21.243,-16.39 -28.469,-31.665c-9.112,-19.261 0.109,-8.261 -19.155,-57.762c-5.81,-14.928 -4.826,-42.143 -6.314,-44.612Z" style="fill:#e7e7e7;fill-opacity:0.03;stroke:#000;stroke-width:2.08px;"/><path id="int1" serif:id="int" d="M41.03,886.855c-0,0 1.674,-12.125 0.227,-30.181c-1.407,-17.544 1.08,-41.023 -12.034,-57.068c-11.616,-14.211 -20.989,-45.787 -24.522,-88.821c-3.532,-43.033 8.639,-48.551 10.415,-42.591c1.776,5.961 -8.178,35.421 -0.188,59.957c7.99,24.537 19.16,66.632 41.521,65.444c7.861,-0.417 34.863,13.311 33.021,16.607c-3.397,6.08 -37.19,-7.471 -41.953,4.493c-0.523,1.314 2.516,34.748 4.769,47.037c2.252,12.289 7.638,24.327 5.746,25.123c-1.892,0.796 -17.002,0 -17.002,0Z" style="fill:none;stroke:#000;stroke-width:2.08px;"/><path id="LGd" d="M449.206,472.589c47.78,16.404 23.508,91.581 3.864,134.149c-17.109,12.509 -60.776,39.935 -59.467,53.516c-79.662,-39.99 -41.913,-68.853 -76.234,-85.101c13.411,-16.371 18.022,-14.122 31.828,-39.132c9.97,-18.062 50.455,-47.688 68.228,-54.692c14.489,-5.709 31.781,-8.74 31.781,-8.74Z" style="fill:#e7e7e7;fill-opacity:0.03;fill-rule:nonzero;stroke:#000;stroke-width:2.08px;stroke-linecap:butt;stroke-linejoin:miter;stroke-miterlimit:4;"/><path id="ZI" d="M368.353,801.837c-4.646,-9.334 -11.167,-63.822 3.317,-69.765c21.347,-8.759 18.094,-8.494 31.669,-15.793c5.16,9.512 7.355,22.716 25.709,41.478c17.04,17.42 49.751,40.093 67.982,57.428c16.218,15.421 19.004,24.174 36.511,36.999c25.965,19.021 26.123,-2.457 73.806,34.671c-14.184,0 -159.128,1.752 -177.004,0.539c-51.451,-41.951 -57.753,-47.378 -61.198,-65.564c-1.124,-5.936 2.875,-12.629 -0.792,-19.993Z" style="fill:#e7e7e7;fill-opacity:0.03;fill-rule:nonzero;stroke:#000;stroke-width:2.08px;stroke-linecap:butt;stroke-linejoin:miter;stroke-miterlimit:4;"/><path id="fi" d="M254.599,674.185c-0.04,44.522 7.615,76.243 26.063,170.834c-19.585,-3.325 -20.179,-7.147 -28.23,-21.866c-13.876,-21.075 -6.01,-34.491 -13.323,-46.514c-5.634,-9.261 -24.44,-17.886 -33.251,-21.789c7.58,-7.865 15.42,-12.035 21.889,-25.994c8.556,-18.462 17.615,-36.544 26.852,-54.671Z" style="fill:none;stroke:#000;stroke-width:2.08px;"/><path id="fi1" serif:id="fi" d="M192.476,762.256c27.084,12.138 38.218,17.387 37.362,28.384c-1.265,16.248 -45.192,-9.869 -57.104,-12.468c10.248,-5.238 -0.982,-25.204 19.742,-15.916Z" style="fill:none;stroke:#000;stroke-width:2.08px;"/><path id="STN" d="M405.599,886.855c-34.989,-49.41 -22.939,-37.128 24.744,0c-14.185,0 -6.868,1.213 -24.744,0Z" style="fill:#e7e7e7;fill-opacity:0.03;fill-rule:nonzero;stroke:#000;stroke-width:2.08px;stroke-linecap:butt;stroke-linejoin:miter;stroke-miterlimit:4;"/><path id="RT" d="M285.671,749.291c12.431,-7.116 32.138,-11.949 39.897,-14.08c6.889,-1.891 13.019,-1.661 26.184,-1.143c22.043,0.867 5.99,0.656 12.035,43.66c3.171,22.554 12.884,44.825 -6.465,46.832c-76.094,7.895 -15.912,-22.474 -71.651,-75.269Z" style="fill:#e7e7e7;fill-opacity:0.03;fill-rule:nonzero;stroke:#000;stroke-width:2.08px;stroke-linecap:butt;stroke-linejoin:miter;stroke-miterlimit:4;"/><path id="CP" d="M1.935,887.062c-0,-0 22.566,-0.207 38.279,-0.207c6.726,-23.688 -1.585,-75.89 -7.32,-81.906c-21.562,-22.616 -30.96,-83.887 -30.96,-83.887l0.001,166Z" style="fill:#e7e7e7;fill-opacity:0.03;stroke:#000;stroke-width:2.08px;"/><path id="LA" d="M53.227,811.37c8.898,-2.322 34.149,-1.479 41.023,5.243c6.874,6.722 14,25.73 17.317,32.454c3.318,6.724 10.945,24.73 18.22,27.468c2.206,0.83 9.365,9.705 7.685,10.32l-79.44,0c-0.504,-21.787 -8.626,-24.709 -7.668,-31.199c3.558,-24.105 -8.519,-41.316 2.863,-44.286Z" style="fill:#e7e7e7;fill-opacity:0.03;stroke:#000;stroke-width:2.08px;"/><path id="ml" d="M449.206,764.314c-44.458,-26.018 -2.391,11.853 44.236,47.512c8.338,6.377 18.649,26.176 37.39,38.646c24.24,16.129 38.095,3.679 76.515,36.383l30.573,0c0,-1.662 -0.011,-2.09 -0.011,-3.885c-27.543,-20.776 -64.941,-25.873 -93.01,-39.528c-22.157,-10.778 -72.801,-65.732 -95.693,-79.128Z" style="fill:#e7e7e7;fill-opacity:0.03;fill-rule:nonzero;stroke:#000;stroke-width:2.08px;stroke-linecap:butt;stroke-miterlimit:2;"/><path id="LGv" d="M272.618,651.719c7.477,-31.69 28.688,-51.935 44.751,-76.566c36.07,17.796 -5.072,44.499 75.742,85.101c-1.872,11.723 2.238,21.196 10.228,56.025c-31.089,19.257 -41.127,18.686 -54.398,17.563c-23.472,-1.985 -37.423,6.154 -49.041,9.386c-31.519,8.766 -32.184,-70.733 -27.282,-91.509Z" style="fill:#e7e7e7;fill-opacity:0.03;fill-rule:nonzero;stroke:#000;stroke-width:2.08px;stroke-linecap:butt;stroke-linejoin:miter;stroke-miterlimit:4;"/><path id="opt1" serif:id="opt" d="M278.851,755.696c3.419,-2.6 2.477,-2.877 6.82,-6.405c49.583,36.907 6.558,107.849 42.362,138.103c-9.563,-0 -23.179,-0.539 -30.669,-0.539c2.165,-37.185 -6.996,-69.749 -18.513,-131.159Z" style="fill:#e7e7e7;fill-opacity:0.03;fill-rule:nonzero;stroke:#000;stroke-width:2.08px;stroke-linecap:butt;stroke-linejoin:miter;stroke-miterlimit:4;"/><path id="cing" d="M635.934,250.998l0.263,-80.441c-36.609,-3.476 -67.387,-8.139 -92.508,-6.729c-3.779,-0.782 63.556,18.072 92.245,87.17Z" style="fill:none;stroke:#000;stroke-width:2.08px;"/></svg>