<?xml version="1.0" encoding="UTF-8" standalone="no"?><!DOCTYPE svg PUBLIC "-//W3C//DTD SVG 1.1//EN" "http://www.w3.org/Graphics/SVG/1.1/DTD/svg11.dtd"><svg width="100%" height="100%" viewBox="0 0 646 895" version="1.1" xmlns="http://www.w3.org/2000/svg" xmlns:xlink="http://www.w3.org/1999/xlink" xml:space="preserve" xmlns:serif="http://www.serif.com/" style="fill-rule:evenodd;clip-rule:evenodd;stroke-linecap:round;stroke-linejoin:round;stroke-miterlimit:1.5;"><rect id="image" x="1.19" y="1.042" width="640.149" height="888.598" style="fill:#e7e7e7;fill-opacity:0.03;stroke:#000;stroke-width:2.08px;"/><path id="_-" serif:id="?" d="M287.854,889.64c0,-0 3.241,-5.906 -6.925,-13.209c-10.166,-7.302 -9.402,-8.184 -9.653,-14.487c-0.251,-6.304 -9.966,-7.907 -13.169,-7.673c-3.203,0.235 -9.054,-0.253 -9.497,-4.542c-0.442,-4.289 2.261,-16.627 4.974,-20.796c2.713,-4.17 3.913,-10.856 2.162,-15.045c-1.75,-4.189 -14.488,-24.635 -26.071,-20.845c-11.583,3.789 -3.987,23.501 -8.248,27.207c-4.261,3.706 -5.59,12.722 -15.92,1.206c-10.329,-11.516 -44.049,-7.615 -40.627,-12.037c3.422,-4.422 16.139,-13.912 8.364,-22.777c-7.776,-8.865 -14.605,-11.329 -42.621,-15.338c-28.015,-4.01 -0.734,-6.103 -8.86,-10.659c-8.127,-4.556 -11.091,-15.001 -15.291,-7.39c-4.201,7.611 -2.79,14.616 -0.409,19.646c2.38,5.031 19.497,23.024 23.835,13.741c4.339,-9.283 3.683,8.485 -1.063,12.946c-4.746,4.461 -1.972,8.39 -2.376,15.955c-0.403,7.565 5.401,14.794 19.506,12.469c14.105,-2.325 38.478,13.621 43.75,11.104c5.273,-2.516 -1.359,13.087 7.338,17.889c8.698,4.802 27.388,21.738 28.664,24.322c1.275,2.583 8.407,8.313 8.407,8.313l53.73,-0Z" style="fill:#e7e7e7;fill-opacity:0.03;stroke:#000;stroke-width:2.08px;"/><path id="LM" d="M1.19,159.492l-0,-11.584c59.728,-48.569 242.931,-141.806 280.248,-146.866l31.475,-0c-91.487,20.291 -275.797,134.073 -311.723,158.45Z" style="fill:#e7e7e7;fill-opacity:0.03;stroke:#000;stroke-width:2.08px;"/><path id="L1" d="M1.19,158.343l-0,29.765c81.172,-55.204 192.243,-140.76 365.399,-187.066l-53.676,-0c-84.215,18.265 -250.058,117.822 -311.723,157.301Z" style="fill:#e7e7e7;fill-opacity:0.03;stroke:#000;stroke-width:2.08px;"/><path id="L2-3" serif:id="L2/3" d="M1.19,188.108l-0,60.731c145.732,-108.606 291.042,-218.121 569.77,-193.414c25.817,4.974 71.036,-30.08 70.379,-54.383l-274.75,-0c-180.944,49.623 -289.205,134.683 -365.399,187.066Z" style="fill:#e7e7e7;fill-opacity:0.03;stroke:#000;stroke-width:2.08px;"/><path id="L4" d="M1.19,248.839l-0,42.85c201.235,-155.414 301.608,-204.305 572.4,-220.258c26.489,-6.674 72.561,-20.292 67.749,-30.33c-6.098,-12.722 -42.525,16.958 -70.379,14.324c-296.712,-28.056 -452.668,107.009 -569.77,193.414Z" style="fill:#e7e7e7;fill-opacity:0.03;stroke:#000;stroke-width:2.08px;"/><path id="L5" d="M1.19,291.689l-0,130.351c127.764,-243.875 360.649,-321.472 639.294,-300.153c0,-83.553 1.537,-68.724 -64.62,-50.136c-273.753,12.069 -375.93,68.609 -574.674,219.938Z" style="fill:#e7e7e7;fill-opacity:0.03;stroke:#000;stroke-width:2.08px;"/><path id="L6a" d="M1.19,422.04c-0.334,3.051 -0,152.083 -0,126.54c16.058,-43.199 34.76,-82.502 55.741,-118.033c133.686,-226.401 359.899,-299.688 584.408,-252.247l-0.855,-56.413c-138.726,-13.907 -476.115,-15.478 -639.294,300.153Z" style="fill:#e7e7e7;fill-opacity:0.03;stroke:#000;stroke-width:2.08px;"/><path id="L6b" d="M1.19,546.982c-0,8.298 -0.196,26.525 -0,34.82c0.117,4.965 -0,65.105 -0,87.869c3.907,-40.638 15.736,-49.336 15.854,-68.729c0.079,-12.931 1.021,-32.542 6.437,-58.414c3.474,-16.598 2.806,-12.301 15.093,-39.69c37.961,-84.617 116.683,-209.279 237.531,-267.963c91.101,-44.238 169.466,-54.739 235.381,-54.779c19.946,-0.013 52.32,13.279 72.256,31.516c14.014,12.82 49.554,68.53 57.597,70.183l0,-28.598c-18.78,-15.657 -33.949,-37.908 -62.042,-56.648c-26.002,-17.345 -61.033,-31.819 -80.731,-31.819c-216.769,-0.001 -411.3,145.341 -497.376,382.252Z" style="fill:#e7e7e7;fill-opacity:0.03;stroke:#000;stroke-width:2.08px;"/><path id="ec" d="M224.502,889.64c0,-0 -21.331,-18.558 -26.91,-24.02c-5.579,-5.461 -34.256,-11.118 -40.635,-13.319c-6.379,-2.2 -25.477,-25.566 -31.524,-32.339c-6.047,-6.772 -11.327,-16.368 -16.943,-23.373c-8.605,-10.732 -23.337,-39.066 -56.472,-39.295c-16.938,-0.118 -33.825,-47.271 -39.048,-68.265c-4.96,-19.933 -0.053,-36.17 2.032,-55.771c2.566,-24.112 1.278,-38.309 2.512,-46.946c1.233,-8.636 8.905,-51.639 9.915,-58.85c1.011,-7.212 7.334,19.291 5.997,16.899c-1.336,-2.392 -5.005,27.638 -4.246,36.114c0.801,8.952 -13.97,64.864 -12.084,84.579c1.886,19.715 16.175,57.733 22.27,68.464c6.188,10.894 15.486,14.31 30.012,17.003c8.784,1.629 10.837,8.866 18.12,11.466c12.005,4.287 22.75,21.724 30.258,33.646c4.692,7.45 8.968,10.94 8.884,13.287c-0.46,12.784 -0.494,12.448 5.668,18.985c7.837,-3.319 16.921,8.347 25.506,14.65c6.495,4.768 32.8,3.737 57.341,28.518c0.885,0.893 19.26,18.611 18.969,18.567c-1.842,-0.283 -9.622,-0 -9.622,-0Z" style="fill:#e7e7e7;fill-opacity:0.03;stroke:#000;stroke-width:2.08px;"/><path id="sg" d="M437.07,441.446c0,-0 1.061,8.809 8.01,6.931c6.95,-1.879 0.604,-11.45 7.813,-17.08c7.21,-5.631 12.479,-21.341 69.583,-18.983c57.103,2.359 62.456,10.494 71.268,7.683c8.811,-2.811 9.626,-4.713 9.311,-11.235c-0.315,-6.521 -10.203,-18.555 -50.38,-28.502c-31.394,-7.773 -68.665,-22.188 -98.856,-16.97c-39.711,6.864 -72.741,25.353 -101.115,41.216c-26.75,14.956 13.5,7.824 22.257,8.064c8.756,0.241 64.932,-32.937 93.512,-33.236c28.579,-0.298 69.637,13.186 81.479,17.14c11.842,3.954 -43.434,0.667 -64.455,5.384c-21.022,4.717 -40.391,9.543 -43.327,17.187c-2.936,7.645 -5.1,22.401 -5.1,22.401Z" style="fill:#e7e7e7;fill-opacity:0.03;stroke:#000;stroke-width:2.08px;"/><path id="po" d="M442.105,419.217c8.813,-40.82 -23.677,-3.889 -49.136,-13.368c8.757,0.241 46.924,-26.216 75.504,-26.515c28.579,-0.298 69.637,13.186 81.479,17.14c11.842,3.954 -43.434,0.667 -64.455,5.384c-21.022,4.717 -40.456,9.714 -43.392,17.359Z" style="fill:#e7e7e7;fill-opacity:0.03;stroke:#000;stroke-width:2.08px;"/><path id="sp2-3" serif:id="sp2/3" d="M155.752,439.438c-2.626,-27.312 -14.718,-8.347 -18.285,-2.722c-22.384,35.305 -33.299,69.569 -41.85,115.876c0.105,33.45 11.724,69.219 26.203,86.44c36.025,42.844 59.169,2.33 129.376,-77.473c65.664,-70.99 118.512,-112.104 164.452,-121.333c3.847,-0.773 54.633,-57.768 5.114,-34.807c-68.221,31.634 -119.368,90.092 -163.656,121.539c-29.369,20.853 -64.248,43.262 -93.021,38.498c-18.089,-2.995 -34.658,-22.343 -31.771,-43.808c2.864,-21.291 6.336,-24.322 19.643,-53.777c1.873,-4.145 4.221,-24 3.795,-28.433Z" style="fill:#e7e7e7;fill-opacity:0.03;stroke:#000;stroke-width:2.08px;"/><path id="sp1" d="M641.339,368.64l0,-20.104c-18.719,-3.615 -69.726,-121.961 -124.574,-128.615c-78.795,-9.56 -254.217,19.44 -359.653,183.649c-6.289,9.796 -4.179,9.899 -1.747,28.984c3.915,30.725 8.863,10.657 14.175,-1.276c35.422,-79.57 110.393,-125.431 123.298,-132.372c104.907,-56.422 184.754,-73.792 240.992,-55.616c22.444,7.254 93.888,121.924 107.509,125.35Z" style="fill:#e7e7e7;fill-opacity:0.03;stroke:#000;stroke-width:2.08px;"/><path id="mo" d="M512.64,447.921c-39.392,6.375 -39.381,1.894 -57.595,2.001c-13.496,0.08 -6.11,-16.47 -3.127,-18.658c7.378,-5.41 12.479,-21.34 69.583,-18.982c57.103,2.358 62.456,10.493 71.268,7.683c8.811,-2.811 9.625,-4.714 9.311,-11.235c-0.315,-6.521 -10.203,-18.555 -50.38,-28.503c-31.394,-7.773 -67.342,-22.215 -97.533,-16.997c-39.711,6.864 -63.793,20.007 -92.069,36.043c-20.689,11.733 -30.042,8.061 -35.303,11.569c-11.26,7.508 -51.418,23.522 -57.137,16.621c-5.696,-6.872 27.827,-30.415 64.687,-52.593c22.429,-13.496 101.865,-49.518 130.311,-46.751c56.799,5.525 32.899,-4.226 146.977,60.985c6.214,3.552 18.483,19.697 17.362,29.999c-1.052,9.677 -17.733,17.814 -23.123,18.596c-5.465,0.794 -42.14,7.633 -49.604,5.377c-6.261,-1.892 -40.26,4.3 -43.628,4.845Z" style="fill:#e7e7e7;fill-opacity:0.03;stroke:#000;stroke-width:2.08px;"/><path id="sr" d="M620.463,368.724c-0,0 -56.068,-42.731 -65.894,-54.446c-9.826,-11.715 -48.067,-35.821 -68.619,-35.706c-39.505,0.223 -108.738,25.82 -134.515,38.412c-25.777,12.592 -106.594,63.669 -124.179,88.425c-45.525,64.092 10.97,69.408 26.612,65.178c15.642,-4.23 24.628,-10.653 51.931,-25.246c27.303,-14.594 38.6,-30.297 43.448,-29.214c8.899,1.987 82.6,-18.352 49.366,-1.625c-10.637,5.354 -55.712,39.834 -76.427,58.334c-89.634,80.047 -113.021,84.065 -125.371,88.603c-15.927,5.851 -49.361,9.716 -61.785,-20.397c-5.2,-12.603 -1.08,-31.168 6.299,-50.266c9.273,-24 23.694,-48.842 31.234,-63.748c26.962,-53.301 64.097,-96.989 134.501,-135.613c80.749,-44.299 189.997,-69.455 224.383,-48.869c34.386,20.586 85.572,106.754 99.354,116.806c0.051,0.037 -10.338,9.372 -10.338,9.372Z" style="fill:#e7e7e7;fill-opacity:0.03;stroke:#000;stroke-width:2.08px;"/><path id="so" d="M177.832,742.212c-5.287,2.779 -68.412,-10.298 -89.594,-41.251c-4.838,-7.07 -30.676,-59.739 -34.566,-114.401c-1.971,-27.701 2.906,-52.952 11.223,-78.676c3.572,-11.047 14.297,-34.804 17.076,-40.492c34.716,-71.051 101.641,-166.774 193.66,-212.146c136.232,-67.171 219.419,-67.343 282.471,-49.237c19.421,5.577 57.417,92.466 83.237,102.171l0,40.356c-18.646,-2.421 -69.879,-124.345 -128.142,-130.196c-94.95,-9.535 -258.32,38.908 -348.604,173.747c-25.232,37.685 -81.646,133.054 -66.888,189.577c4.086,15.647 27.316,111.156 84.128,58.474c32.895,-30.504 44.766,-63.984 147.16,-151.489c58.223,-49.756 82.511,-45.641 87.574,-48.95c2.865,-1.872 15.981,-14.848 20.851,-24.496c10.54,-20.879 -2.56,24.429 -1.283,33.366c-14.246,1.061 -46.68,2.436 -102.895,58.542c-26.579,26.529 -41.263,50.657 -57.725,72.148c-11.705,15.28 -24.603,30.536 -28.965,54.123c-6.754,36.517 -32.921,90.008 -68.718,108.83Z" style="fill:#e7e7e7;fill-opacity:0.03;stroke:#000;stroke-width:2.08px;"/><path id="alv" d="M139.114,744.472c20.224,-10.049 -29.694,-12.558 -50.876,-43.511c-4.838,-7.07 -30.676,-59.739 -34.566,-114.401c-1.971,-27.701 2.906,-52.952 11.223,-78.676c3.572,-11.047 14.297,-34.804 17.076,-40.492c34.716,-71.051 101.641,-166.774 193.66,-212.146c136.232,-67.171 219.419,-67.343 282.471,-49.237c19.421,5.577 57.417,92.466 83.237,102.171l0,-26.385c-14.031,-4.225 -29.66,-43.328 -57.597,-70.183c-21.134,-20.315 -52.431,-30.371 -77.623,-31.55c-96.949,-4.535 -272.81,43.182 -374.094,172.022c-28.028,35.653 -82.202,105.773 -87.444,160.295c-1.548,16.098 -13.183,106.776 31.229,190.16c19.439,36.496 57.955,44.591 63.304,41.933Z" style="fill:#e7e7e7;fill-opacity:0.03;stroke:#000;stroke-width:2.08px;"/><path id="slm" d="M618.057,366.883c0,-0 -54.748,-41.008 -64.574,-52.723c-9.826,-11.715 -47.441,-35.7 -67.994,-35.584c-39.504,0.223 -111.335,27.258 -137.112,39.85c-25.777,12.592 -103.314,62.385 -121.121,86.983c-47.019,64.953 13.164,68.787 28.806,64.558c15.642,-4.23 22.434,-10.033 49.737,-24.626c27.303,-14.594 35.961,-25.854 39.451,-29.375c3.489,-3.521 -16.959,-7.669 -23.064,-2.934c-6.105,4.735 -38.335,16.832 -48.392,16.298c-10.057,-0.533 -1.98,-12.39 12.159,-22.998c14.14,-10.609 53.075,-36.654 79.666,-46.979c26.591,-10.326 66.393,-34.259 107.92,-30.922c41.528,3.338 42.908,4.49 77.294,25.076c34.386,20.586 46.066,26.227 60.454,35.399c23.386,14.908 18.588,4.203 19.493,-3.218c0.704,-5.773 -12.723,-18.805 -12.723,-18.805Z" style="fill:#e7e7e7;fill-opacity:0.03;stroke:#000;stroke-width:2.08px;"/><path id="APN" d="M641.339,576.977c1.085,-9.919 -1.085,-104.661 0,-114.579c-12.002,4.585 -30.548,8.235 -50.563,8.765c-31.587,0.836 -27.09,18.202 -27.355,24.939c-0.681,17.317 52.094,79.248 77.918,80.875Z" style="fill:#e7e7e7;fill-opacity:0.03;fill-rule:nonzero;stroke:#000;stroke-width:2.08px;stroke-linecap:butt;stroke-miterlimit:2;"/><path id="cpd" d="M322.186,831.198c-1.708,-11.134 -18.031,-48.282 -0,-44.344c46.032,10.054 26.243,19.765 106.249,102.786c-49.556,-0 -113.883,1.862 -131.06,-0c43.964,-23.922 26.438,-47.829 24.811,-58.442Z" style="fill:#e7e7e7;fill-opacity:0.03;fill-rule:nonzero;stroke:#000;stroke-width:2.08px;stroke-linecap:butt;stroke-linejoin:miter;stroke-miterlimit:4;"/><path id="em" d="M406.535,608.845c-12.5,9.627 -23.878,30.758 -19.975,69.045c3.529,34.609 62.306,76.158 45.505,57.082c-10.133,-11.504 -62.899,-46.668 -17.051,-98.675c15.095,-17.122 44.586,-35.913 50.681,-45.61c24.033,-38.239 -40.883,4.082 -59.16,18.158Z" style="fill:#e7e7e7;fill-opacity:0.03;fill-rule:nonzero;stroke:#000;stroke-width:2.08px;stroke-linecap:butt;stroke-miterlimit:2;"/><path id="LP" d="M588.185,537.643c-7.51,-7.201 -16.536,-21.975 -20.952,-30.093c-6.803,-12.507 -3.448,-25.329 -4.379,-32.718c-0.814,-6.466 -36.176,-6.889 -44.82,-5.92c-20.625,2.312 -59.12,-9.289 -69.648,-6.514c-0.222,0.058 23.221,89.459 6.659,116.312c7.634,-3.022 4.136,-7.379 12.086,-3.626c5.541,2.616 -1.923,12.456 -1.436,15.603c6.193,0.677 10.635,0.818 18.284,-3.714c11.896,-7.049 90.544,-41.961 104.206,-49.33Z" style="fill:#e7e7e7;fill-opacity:0.03;fill-rule:nonzero;stroke:#000;stroke-width:2.08px;stroke-linecap:butt;stroke-linejoin:miter;stroke-miterlimit:4;"/><path id="VPL" d="M585.852,776.084c-50.129,16.408 -114.775,6.99 -183.369,-73.107c-33.755,-39.415 29.402,-81.441 37.957,-87.716c22.487,33.645 84.63,105.438 139.625,124.551c11.064,4.649 17.632,30.929 5.787,36.272Z" style="fill:#e7e7e7;fill-opacity:0.03;fill-rule:nonzero;stroke:#000;stroke-width:2.08px;stroke-linecap:butt;stroke-linejoin:miter;stroke-miterlimit:4;"/><path id="VPLpc" d="M641.653,764.925c-14.89,5.7 -29.144,10.892 -49.414,13.128c-32.512,3.587 -66.347,8.036 -63.164,15.437c6.828,15.876 41.412,29.519 67.69,39.118c28.812,10.525 44.574,5.432 44.574,5.432l0.314,-73.115Z" style="fill:none;stroke:#000;stroke-width:2.08px;"/><path id="PF" d="M641.653,576.977c-8.106,2.826 -48.362,-30.624 -55.176,-38.554l-52.851,24.899c16.343,13.442 11.124,51.313 22.525,88.229c9.92,32.121 30.966,54.738 34.27,94.773c2.614,31.674 -9.946,39.209 51.232,18.601l-0,-187.948Z" style="fill:none;stroke:#000;stroke-width:2.08px;"/><path id="PO" d="M585.852,739.779c-44.728,-9.984 -126.034,-86.25 -145.412,-124.518c16.51,-19.208 18.79,-12.898 25.255,-24.574c10.8,2.433 24.067,-5.779 67.693,-27.323c2.529,-0.945 10.149,14.446 10.654,17.995c9.979,70.15 9.281,73.451 41.81,140.351c-1.11,10.141 -0,18.069 -0,18.069Z" style="fill:#e7e7e7;fill-opacity:0.03;fill-rule:nonzero;stroke:#000;stroke-width:2.08px;stroke-linecap:butt;stroke-linejoin:miter;stroke-miterlimit:4;"/><path id="int" d="M33.426,544.361c-1.336,-2.392 -4.351,-15.303 -3.341,-22.514c1.011,-7.212 9.379,-23.875 16.418,-31.428c3.694,-3.963 -3.158,23.607 -5.043,44.864c-2.496,28.141 1.83,67.468 5.431,81.199c3.6,13.731 12.612,46.185 15.633,56.61c6.49,22.393 23.73,47.123 29.447,49.578c5.717,2.456 28.278,26.234 31.238,29.206c2.96,2.971 12.082,-6.095 17.482,-8.128c6.787,-2.556 36.039,-2.694 45.047,-0.434c29.216,7.327 31.47,16.108 38.346,18.637c18.267,6.717 8.658,14.419 17.706,22.404c9.325,8.229 25.177,31.787 27.287,33.505c2.11,1.717 8.619,20.363 5.857,20.458c-8.164,0.282 -9.04,-23.283 -28.874,-38.669c-27.967,-21.694 -9.15,-18.471 -17.364,-23.738c-9.615,-6.166 -22.121,-4.755 -22.691,-5.594c-5.864,-8.637 -13.599,-19.287 -31.969,-17.971c-18.37,1.316 -19.241,-1.073 -44.85,10.739c-4.6,2.121 -36.804,-20.794 -53.721,-45.37c-14.884,-21.621 -21.083,-43.593 -24.057,-50.482c-8.013,-18.558 -2.963,-11.018 -13.695,-50.004c-4.028,-14.635 -2.95,-70.476 -4.287,-72.868Z" style="fill:#e7e7e7;fill-opacity:0.03;stroke:#000;stroke-width:2.08px;"/><path id="int1" serif:id="int" d="M34.826,887.428c20.867,-30.453 -2.14,-25.338 2.787,-49.449c7.917,-38.74 -0.474,-48.175 -9.012,-67.058c-6.937,-15.34 -20.7,-44.047 -24.232,-87.081c-3.532,-43.033 7.056,-55.119 8.832,-49.159c1.776,5.96 -7.275,33.019 0.715,57.555c7.99,24.537 22.599,73.05 44.96,71.862c22.36,-1.187 44.744,24.672 43.458,24.085c-26.018,-11.871 -44.934,-19.595 -49.534,-1.653c-1.875,7.314 -3.178,31.703 -3.195,44.305c-0.047,35.107 33.047,38.801 9.494,56.593l-24.273,0Z" style="fill:none;stroke:#000;stroke-width:2.08px;"/><path id="LGd" d="M448.386,462.398c4.336,30.682 22.388,80.431 6.659,116.312c-14.573,8.994 -57.497,28.409 -67.253,63.414c-75.134,-46.687 -73.4,-76.409 -81.132,-79.164c17.659,-26.186 16.591,-32.461 40.12,-52.232c16.4,-13.778 37.793,-31.565 57.27,-38.167c14.19,-4.812 44.336,-10.163 44.336,-10.163Z" style="fill:#e7e7e7;fill-opacity:0.03;fill-rule:nonzero;stroke:#000;stroke-width:2.08px;stroke-linecap:butt;stroke-linejoin:miter;stroke-miterlimit:4;"/><path id="ZI" d="M349.981,751.275c-3.853,-40.157 -4.211,-52.402 41.769,-56.935c3.123,10.517 11.205,22.646 36.623,45.439c16.608,14.894 40.833,39.402 62.383,54.397c28.696,19.967 75.552,43.11 95.344,63.742c11.341,11.823 52.004,-9.597 55.239,-10c0,8.609 0.108,31.701 0.108,41.722c-12.765,-0 -170.186,1.862 -187.363,-0c-51.094,-22.735 -36.339,-7.344 -79.191,-62.2c-35.091,-44.921 -18.667,-11.085 -24.912,-76.165Z" style="fill:#e7e7e7;fill-opacity:0.03;fill-rule:nonzero;stroke:#000;stroke-width:2.08px;stroke-linecap:butt;stroke-linejoin:miter;stroke-miterlimit:4;"/><path id="fi" d="M244.626,650.83c-0.04,44.522 18.757,58.197 25.706,162.754c-13.902,-15.688 -24.056,-19.266 -32.107,-33.986c3.17,-15.944 -23.709,-23.922 -55.16,-40.423c7.58,-7.865 28.24,-19.716 34.71,-33.675c8.556,-18.462 17.614,-36.544 26.851,-54.67Z" style="fill:none;stroke:#000;stroke-width:2.08px;"/><path id="STN" d="M426.482,889.64c-20.672,-24.982 21.023,-3.365 27.602,-0c-9.564,0.037 -22.893,-0.019 -27.602,-0Z" style="fill:#e7e7e7;fill-opacity:0.03;fill-rule:nonzero;stroke:#000;stroke-width:2.08px;stroke-linecap:butt;stroke-linejoin:miter;stroke-miterlimit:4;"/><path id="RT" d="M285.601,729.735c13.8,-9.332 26.219,-20.703 34.867,-19.646c22.965,2.806 30.662,-12.532 29.207,14.571c-3.934,73.295 20.783,74.282 -23.021,63.088c-36.289,-9.273 -25.354,-44.833 -41.053,-58.013Z" style="fill:#e7e7e7;fill-opacity:0.03;fill-rule:nonzero;stroke:#000;stroke-width:2.08px;stroke-linecap:butt;stroke-linejoin:miter;stroke-miterlimit:4;"/><path id="CP" d="M4.653,889.64c-0,-0 13.646,-0.159 29.359,-0.159c11.297,-19.128 10.191,-26.124 3.287,-40.674c-7.979,-16.814 11.7,-33.135 -1.094,-61.437c-12.952,-28.649 -31.552,-75.489 -31.552,-75.489l-0,177.759Z" style="fill:#e7e7e7;fill-opacity:0.03;stroke:#000;stroke-width:2.08px;"/><path id="LA" d="M63.337,776.563c8.668,-1.837 34.187,8.133 40.954,14.342c16.826,15.44 9.86,24.349 12.789,30.833c2.93,6.484 16.009,19.712 22.91,22.591c5.278,2.2 31.085,10.708 57.122,22.302c5.542,2.468 27.434,21.058 10.637,20.797c-32.202,-0.5 -117.144,0 -131.72,0c-5.629,0 -3.746,-8.955 -10.34,-17.302c-12.96,-16.405 -16.517,-36.078 -16.054,-39.858c0.755,-6.158 4.322,-25.998 2.816,-34.372c-1.507,-8.374 -0.199,-16.984 10.886,-19.333Z" style="fill:#e7e7e7;fill-opacity:0.03;stroke:#000;stroke-width:2.08px;"/><path id="ml" d="M443.814,744.643c-17.826,-13.868 -18.805,-2.396 30.313,36.949c33.167,26.568 78.063,45.057 105.694,71.569c14.744,14.145 38.913,2.469 61.518,-5.243c0.562,-5.13 -0.431,-5.939 0,-9.878c-50.705,12.467 -177.016,-77.443 -197.525,-93.397Z" style="fill:#e7e7e7;fill-opacity:0.03;fill-rule:nonzero;stroke:#000;stroke-width:2.08px;stroke-linecap:butt;stroke-miterlimit:2;"/><path id="LGv" d="M264.457,624.496c10.493,-28.999 33.018,-44.638 42.203,-61.536c17.004,17.93 -0.162,23.267 81.132,79.164c-5.421,9.71 -3.281,40.701 3.958,52.216c-39.701,2.376 -57.198,18.181 -65.217,16.059c-15.245,-4.033 -34.229,14.548 -40.932,19.336c-4.345,-4.107 -13.835,-21.672 -18.559,-19.267c-6.343,3.231 -10.225,-64.858 -2.585,-85.972Z" style="fill:#e7e7e7;fill-opacity:0.03;fill-rule:nonzero;stroke:#000;stroke-width:2.08px;stroke-linecap:butt;stroke-linejoin:miter;stroke-miterlimit:4;"/><path id="opt" d="M264.321,709.901c3.399,-2.319 -1.551,1.625 2.775,-1.533c41.071,41.576 21.956,52.498 38.875,67.644c3.254,2.912 7.32,9.334 15.171,10.551c-20.424,-1.067 7.366,41.598 5.278,72.02c-1.114,16.217 -29.125,30.414 -29.045,31.057c-6.116,-21.713 -4.634,-30.194 -5.027,-51.125c-0.453,-24.154 -6.604,-5.417 -28.027,-128.614Z" style="fill:#e7e7e7;fill-opacity:0.03;fill-rule:nonzero;stroke:#000;stroke-width:2.08px;stroke-linecap:butt;stroke-linejoin:miter;stroke-miterlimit:4;"/><path id="opt1" serif:id="opt" d="M606.133,437.657c0,0 -38.564,8.074 -46.771,5.83c-10.614,-2.902 -67.057,9.182 -81.196,7.941c-14.138,-1.242 -32.95,-1.669 -35.532,-2.82c-2.582,-1.151 -18.965,1.464 -28.969,3.805c-14.862,3.477 -40.968,18.417 -66.377,40.533c-25.409,22.116 -79.728,97.757 -84.293,102.591c-4.564,4.834 -20.14,32.942 -18.312,58.076c1.036,14.26 12.606,63.325 16.685,85c4.563,24.247 6.051,47.467 7.484,57.283c3.312,22.687 7.412,34.194 6.754,42.619c-0.658,8.425 -6.044,11.627 -3.922,27.59c0.893,6.715 17.454,11.816 17.672,23.535l8.019,-0.006c-0,-0 -6.345,-21.834 -5.162,-42.674c1.438,-25.336 -6.575,-28.501 -14.499,-68.211c-4.167,-20.88 -13.393,-68.848 -13.393,-68.848c0,-0 0.118,-1.313 -0.67,-3.411c-3.711,-9.868 -4.516,-61.877 0.272,-80.394c4.788,-18.517 21.514,-35.736 42.737,-63.136c21.223,-27.399 15.421,-33.979 25.275,-40.408c13.184,-8.603 55.716,-52.24 94.789,-56.084c6.318,-0.622 15.425,-4.307 25.993,-4.502c17.919,-0.33 33.235,5.195 44.996,6.261c8.43,0.764 38.699,-1.351 59.485,2.944c17.756,3.669 19.536,1.228 29.675,0.965c10.963,-0.284 31.013,-26.795 31.013,-26.795l23.453,-16.931l0,-59.77c-3.982,-1.96 -7.461,-5.138 -10.538,-9.287l-10.338,9.371c8.795,9.408 12.704,17.68 10.339,24.493c-3.449,9.259 -11.238,-0.274 -1.735,20.744c0.372,2.588 0.05,5.058 -0.624,7.469c-1.751,3.729 -4.025,6.522 -6.799,8.422c-4.387,4.089 -9.628,6.556 -15.511,7.805Z" style="fill:#e7e7e7;fill-opacity:0.03;stroke:#000;stroke-width:2.08px;"/><path id="cing" d="M641.339,253.197l0,-74.897c-36.609,-3.476 -85.884,-19.345 -115.005,-7.935c51.221,21.219 77.316,38.734 115.005,82.832Z" style="fill:none;stroke:#000;stroke-width:2.08px;"/></svg>