<?xml version="1.0" encoding="UTF-8" standalone="no"?><!DOCTYPE svg PUBLIC "-//W3C//DTD SVG 1.1//EN" "http://www.w3.org/Graphics/SVG/1.1/DTD/svg11.dtd"><svg width="100%" height="100%" viewBox="0 0 2001 2001" version="1.1" xmlns="http://www.w3.org/2000/svg" xmlns:xlink="http://www.w3.org/1999/xlink" xml:space="preserve" xmlns:serif="http://www.serif.com/" style="fill-rule:evenodd;clip-rule:evenodd;stroke-linecap:round;stroke-linejoin:round;stroke-miterlimit:1.5;"><rect id="image" x="0.5" y="0.5" width="2000" height="2000" style="fill:none;stroke:#000;stroke-width:1px;"/><path id="HY" d="M1481.38,1641.44c-12.026,34.987 -37.842,-5.786 -49.378,-5.323c-18.211,0.731 -21.181,11.575 -70.497,6.386c-80.557,-8.477 -109.724,1.171 -112.243,-15c-2.519,-16.171 -22.824,-115.362 -36.757,-145c-13.933,-29.638 -7.649,-89.453 -13,-108c-3.331,-11.548 -31.377,-65.222 -73.958,-113.609c-22.549,-25.624 -80.013,-60.363 -91.641,-87.502c-9.447,-22.047 -38.159,-84.739 -33.401,-93.193c11.203,-19.905 6.638,-4.507 66.95,57.637c23.199,23.903 57.754,45.448 68.05,46.667c16.244,1.924 96.776,74.529 124.453,95.579c27.678,21.051 34.759,28.465 79.547,29.056c44.788,0.59 111.019,-14.708 141.875,-9.929c30.856,4.78 16.823,18.294 16.823,18.294c0,0 5.209,104.91 0,129c-5.208,24.09 -7.644,168.231 -16.823,194.937Z" style="fill:#fff;fill-opacity:0.11;stroke:#000;stroke-width:0.83px;"/><path id="TH" d="M1409.38,721.5c-17.252,-8.69 -8.506,3.9 -46.875,0.227c-38.369,-3.673 -107.242,4.719 -122.689,7.034c-15.446,2.316 -79.219,15.477 -117.269,19.607c-38.049,4.13 -89.466,37.522 -108.676,59.616c-19.209,22.094 -36.961,36.49 -36.366,64.342c0.595,27.853 8.993,94.804 9.173,141.174c0.179,46.37 43.314,74.339 63.827,105c20.513,30.661 63.239,50.98 100,75c36.761,24.02 97.695,73.693 118,95c20.305,21.307 86.071,24.414 118,17c31.929,-7.414 98.133,-3.945 106.615,-8c8.482,-4.055 12.543,-264.876 12.543,-264.876l-0,-251.124c-0,0 -47.873,-5.278 -55.158,-27c-7.285,-21.722 -21.744,-23.237 -41.125,-33Z" style="fill:#fff;fill-opacity:0.11;stroke:#000;stroke-width:0.83px;"/><path id="cc" d="M1466.5,451.5c-9.563,4.87 -34.27,5.41 -60,-2c-54.341,-15.649 -99.907,-71.221 -100,-92c-0.093,-20.779 -60.28,26.542 -113,43c-55.477,17.319 -141.431,42.444 -199,98c-57.569,55.556 -98.378,103.947 -124,157.221c-25.622,53.275 -48.932,106.377 -57,137.01c-8.068,30.633 -62.878,180.473 -66,207.769c-3.122,27.296 6.571,82.156 9,59.124c14.159,-134.233 49.001,-177.07 68,-233.126c20.736,-61.182 38.703,-101.733 61,-138.176c22.307,-36.46 62.789,-101.079 83,-124.822c20.069,-23.576 82.745,-82.091 120,-96c37.255,-13.909 96.441,-31.659 126,-31c35.75,0.797 124.191,79.879 145,92c23.078,13.443 104.233,32.867 133.615,22c18.084,-6.688 -18.252,-128.391 -13.615,-119c5.983,12.115 -3.437,15.13 -13,20Z" style="fill:#fff;fill-opacity:0.11;stroke:#000;stroke-width:0.83px;"/><path id="HPF" d="M1481.38,673.5c-9.563,4.87 -73.145,33.637 -104.875,35.227c-56.478,2.83 -94.237,-0.815 -115,0c-31.093,1.221 -33.28,10.315 -86,26.773c-55.477,17.319 -98.431,11.444 -156,67c-57.569,55.556 -65.378,77.947 -102,67.221c-56.732,-16.615 -47.297,-136.956 -25,-173.399c22.307,-36.46 55.789,-109.079 76,-132.822c20.069,-23.576 82.745,-82.091 120,-96c37.255,-13.909 96.441,-31.659 126,-31c35.75,0.797 124.191,79.879 145,92c23.078,13.443 104.233,32.867 133.615,22c18.084,-6.688 18.622,43.609 -11.74,93c-7.076,11.511 9.562,25.13 -0,30Z" style="fill:#fff;fill-opacity:0.11;stroke:#000;stroke-width:0.83px;"/><path id="ML" d="M1456.5,192.5c-4.52,-9.733 -41.046,-15.812 -66.387,-24.461c-25.34,-8.649 -148.358,-0.289 -183.613,6.442c-49.738,9.496 -241.28,83.561 -294,108.019c-52.72,24.458 -103.431,54.444 -161,110c-57.569,55.556 -108.378,126.947 -134,180.221c-25.622,53.275 -62.932,118.377 -71,149.01c-8.068,30.633 -70.878,226.473 -66,278.769c0.24,2.57 -9.961,143.32 19.013,289.116c11.269,56.706 37.405,107.724 63.904,156.643c43.563,80.416 96.62,148.348 149.17,176.198c25.105,13.304 69.499,67.173 188.019,91.193c49.384,10.009 97.761,-16.328 143.947,-25.656c90.489,-18.277 159.049,-53.64 192.419,-42.897c1.814,0.584 77.208,16.379 158.867,10.532c35.278,-2.526 82.622,40.874 100.192,26.115c6.159,-5.174 -7.479,-38.061 -24.569,-26.856c-11.061,7.253 -26.346,-15.884 -38.708,-18.749c-12.618,-2.924 -18.155,9.792 -51.849,7.706c-49.108,-3.041 -85.176,-6.479 -116.64,-6.771c-14.072,-0.131 -21.471,-13.003 -33.208,-14.915c-8.702,-1.417 -21.964,5.335 -30.03,7.97c-46.073,15.055 -130.176,31.669 -206.587,55.792c-53.479,16.884 -89.197,10.667 -108.81,8.536c-61.521,-6.687 -139.048,-64.606 -157.223,-79.309c-38.398,-31.064 -67.263,-39.278 -121.398,-131.564c-19.951,-34.012 -39.033,-64.548 -54.978,-98.36c-24.049,-50.996 -41.08,-101.795 -44.138,-122.371c-2.678,-18.021 -6.906,-35.224 -8.738,-50.66c-12.161,-102.468 -6.148,-149.823 -2.452,-170.159c1.62,-8.915 2.794,-12.638 1.797,-13.534c-12.266,-11.025 0.424,-35.302 3,-54c2.576,-18.698 21.688,-131.286 45,-181.769c23.312,-50.482 47.841,-140.998 66,-173.231c18.159,-32.233 32.264,-71.818 68,-119c35.736,-47.182 57.693,-77.54 92,-103c34.307,-25.46 51.931,-54.424 80,-68c28.069,-13.576 128.745,-55.091 166,-69c37.255,-13.909 147.25,-58.797 175,-69c27.75,-10.203 129.922,-17.443 154,-17c24.078,0.443 83.382,22.023 95.764,40.156c10.873,15.923 12.996,39.189 15.236,42.844c6.859,11.193 -1.853,22.306 1,55c2.853,32.694 9.611,59.141 15,84c5.389,24.859 0.363,25.609 5,35c2.241,4.539 16.496,50.116 13.092,9.548c-2.127,-25.352 -10.055,-58.664 -17.806,-98.864c-1.606,-8.333 11.42,-62.223 6.589,-103.647c-2.569,-22.029 -23.984,-44.118 -24.875,-46.037Z" style="fill:#fff;fill-opacity:0.11;stroke:#000;stroke-width:0.83px;"/><path id="int" d="M1002.91,1076.13c2.787,-2.765 1.976,-13.476 -2.408,-19.631c-4.384,-6.155 -22.433,-53.759 -30,-15c-7.567,38.759 -22.818,24.904 -40,26c-17.182,1.096 -21.648,-14.276 -13,49c8.648,63.276 10.826,48.072 22.803,78c11.977,29.928 14.825,48.105 37.182,67.813c22.358,19.708 22.487,22.285 22.487,22.285c-0,-0 61.252,46.751 73.538,63.222c12.286,16.472 72.522,82.574 77.883,91.296c5.36,8.723 24.159,1.605 33.107,-8.616c8.948,-10.221 20.983,-21.751 17.221,-37.772c-3.763,-16.022 -6.942,-38.157 -38.922,-83.593c-31.98,-45.437 -51.602,-64.291 -83.527,-88.453c-31.925,-24.161 -46.961,-43.239 -64.587,-92.039c-17.627,-48.801 -14.563,-49.747 -11.777,-52.512Z" style="fill:#fff;fill-opacity:0.11;stroke:#000;stroke-width:0.83px;"/><path id="fi" d="M978.339,861.037c-0.062,12.376 0.357,115.648 -0.854,139.463c-1.21,23.815 -6.013,49.232 -19.985,59c-13.972,9.768 -27.513,8.464 -34,-26.885c-6.487,-35.349 -24.821,-65.031 -25,-87.115c-0.179,-22.084 -26.098,-95.08 -23.43,-113c2.668,-17.92 11.968,12.269 19.181,20.946c7.213,8.677 30.961,24.917 50.139,17.125c17.968,-7.3 34.012,-21.911 33.949,-9.534Z" style="fill:#fff;fill-opacity:0.11;stroke:#000;stroke-width:0.83px;"/><path id="CP" d="M847.5,764.5c3.73,-6.44 12.226,-4.728 9,15c-3.226,19.728 -4.325,81.633 0,107c4.325,25.367 -4.309,64.006 18.57,114c22.879,49.994 20.181,59.665 25.43,96c5.249,36.335 14.166,95.586 26.119,123c11.953,27.414 28.845,39.224 -13.119,59c-19.97,9.411 -46.576,1.033 -74,-34c-13.7,-17.501 -40.51,-52.417 -64.513,-74.943c-33.196,-31.152 -18.316,-126.451 -12.939,-152.14c5.376,-25.689 18.511,-92.059 28.946,-109.751c10.434,-17.691 34.558,-86.447 40.258,-100.633c5.701,-14.186 12.518,-36.093 16.248,-42.533Z" style="fill:#fff;fill-opacity:0.11;stroke:#000;stroke-width:0.83px;"/><path id="CTXspl-OLF" serif:id="CTXspl+OLF" d="M886.5,1693.5c2.198,-4.201 25.28,-76.234 25.13,-86.857c-0.151,-10.623 -2.191,-45.833 -16.019,-52.256c-14.723,-6.839 -91.11,-62.593 -109.111,-73.887c-18.001,-11.294 -81.647,-105.595 -101,-171.365c-19.353,-65.771 -21.872,-135.441 -23,-170.635c-1.128,-35.194 16.742,-101.166 7,-106c-9.742,-4.834 -151.206,-2.527 -167,0.115c-15.794,2.642 -6.016,10.137 -9.259,30.885c-3.242,20.748 4.351,168.997 12.259,192c7.908,23.003 32.052,113.615 71,176c38.948,62.385 50.144,97.353 89,133c38.856,35.647 111.008,86.725 146,105c34.992,18.275 72.802,28.201 75,24Z" style="fill:#fff;fill-opacity:0.11;stroke:#000;stroke-width:0.83px;"/><path id="CTXspl-OLF1" serif:id="CTXspl+OLF" d="M754.044,1088.5c2.204,-12.918 -6.267,-43.584 -7.157,-55.885c-0.891,-12.3 -0,-12.115 -0,-12.115c-0,0 -10.397,-11.227 -45.412,-1.057c-35.015,10.169 -25.649,2.952 -38.046,97.971c-12.396,95.019 13.487,153.862 18.321,178.142c4.833,24.28 60.594,142.193 89.185,169.09c28.59,26.898 101.709,77.959 118.485,85.72c16.777,7.761 26.955,36.021 21.056,63.134c-5.898,27.113 -15.534,42.802 -18.694,59.922c-3.16,17.12 -10.731,19.874 5.718,21.035c16.449,1.161 36.834,5.447 60,-0c23.166,-5.448 46.464,-10.002 58,-14.957c11.536,-4.955 42.995,6.443 22,-69c-20.995,-75.443 -15.447,-100.831 -38.032,-119c-22.585,-18.169 -47.1,-21.304 -28.968,-49c18.132,-27.696 -28.514,-91.136 -60.024,-130c-31.509,-38.864 -33.935,-24.22 -44.819,-41c-5.772,-8.899 -20.84,-20.663 -36.534,-40.256c-13.896,-17.349 -27.989,-42.849 -40.865,-48.355c-25.127,-10.745 -38.377,-69.993 -34.214,-94.389Z" style="fill:#fff;fill-opacity:0.11;stroke:#000;stroke-width:0.83px;"/><path id="CTXspl-OLF2" serif:id="CTXspl+OLF" d="M1045.5,1655.63c0.113,-19.501 -8.942,-57.048 -18.381,-87.169c-9.44,-30.121 -5.801,-60.146 -26.619,-76.108c-20.818,-15.963 -33.418,-18.109 -36.303,-33.503c-2.884,-15.395 25.258,-25.444 0.592,-66.11c-24.666,-40.666 -51.409,-78.619 -59.74,-86.747c-8.332,-8.128 -6.045,-19.192 16.344,-31.494c22.388,-12.302 42.284,-18.909 63.107,-1.998c20.823,16.911 76.408,56.139 106,95c29.592,38.861 90.199,95.284 110,149c19.801,53.716 25.39,97.854 16,107c-9.39,9.146 -162.991,46.243 -165,43c-2.009,-3.243 -6.113,8.63 -6,-10.871Z" style="fill:#fff;fill-opacity:0.11;stroke:#000;stroke-width:0.83px;"/><path id="sp" d="M1506.34,572.502c-0,-0 -45.196,10.41 -76,4c-30.805,-6.411 -62.549,-6.71 -84,-23c-21.452,-16.29 -55.602,-54.703 -83,-77c-27.399,-22.297 -79.704,-23.637 -117,-9c-37.297,14.636 -111.152,55.55 -160,132c-48.849,76.45 -63.524,114.484 -64,150c-0.477,35.516 10.657,55.746 26,64c15.342,8.254 42.687,-4.771 59,-15c16.312,-10.229 67.582,-52.125 105,-63c37.417,-10.875 12.569,3.699 23,-17.229c10.431,-20.929 22.827,-32.935 23,-41.771c0.172,-8.836 -14.109,-18.476 -35.801,11c-21.691,29.476 -22.023,26.628 -45.199,40c-23.177,13.372 -82.864,49.636 -97,53.589c-14.137,3.953 -48.518,-8.28 -33,-57.589c15.517,-49.309 8.667,-39.522 31,-78c22.332,-38.479 58.15,-85.261 78,-100c19.849,-14.739 81.148,-67.121 134.021,-70c52.872,-2.879 82.558,34.473 103.979,56c21.42,21.527 22.793,35.4 41,44c18.206,8.6 54.955,19.74 80,21c25.044,1.26 90.807,-11.289 90.315,-11c-0.493,0.289 0.685,-13 0.685,-13Z" style="fill:#fff;fill-opacity:0.11;stroke:#000;stroke-width:0.83px;"/><path id="sr" d="M1486.34,636.997c-0,0 -2.773,-1.576 -19.325,1.169c-18.197,3.017 -50.994,10.243 -67.126,6.886c-30.804,-6.411 -97.687,-47.567 -117.476,-65.841c-67.452,-62.29 -48.844,-49.649 -94.406,-56.649c-39.044,-5.998 -119.307,52.431 -146.494,92.303c-52.74,77.348 -30.199,86.284 -28.856,87.465c13.082,11.506 26.083,7.938 46.751,-3c24.431,-12.928 31.393,-6.215 38.932,-10.828c11.172,-6.836 45.891,-30.476 24.199,-1c-21.691,29.476 -22.023,26.628 -45.199,40c-23.177,13.372 -82.864,49.636 -97,53.589c-14.137,3.953 -48.518,-8.28 -33,-57.589c15.517,-49.309 8.667,-39.522 31,-78c22.332,-38.479 58.15,-85.261 78,-100c19.849,-14.739 81.148,-67.121 134.021,-70c52.872,-2.879 82.558,34.473 103.979,56c21.42,21.527 22.793,35.4 41,44c18.206,8.6 54.955,19.74 80,21c25.044,1.26 90.807,-11.289 90.315,-11c-0.493,0.289 -19.315,51.495 -19.315,51.495Z" style="fill:#fff;fill-opacity:0.11;stroke:#000;stroke-width:0.83px;"/><path id="po" d="M1141.34,718.273c-0,-0 -0.064,16.191 2,19.229c2.064,3.038 7.584,-10.432 10,-19.229c2.415,-8.798 23.619,-29.954 37.021,-33.771c13.402,-3.817 18.161,-22.971 80.979,-11c62.817,11.971 57.07,16.853 63,17c5.929,0.147 28.748,-10.497 9,-24c-19.749,-13.503 -29.725,-21.308 -51,-25c-42.031,-7.295 -60.9,-22.84 -81.116,-30.964c-23.23,-9.334 -46.542,-1.394 -72.884,20.964c-36.06,32.919 -72.754,56.229 -65,48c-3.997,4.543 8.154,10.908 18.3,11.013c10.145,0.104 41.592,-27.923 56.7,-36.111c15.107,-8.188 23.137,-23.656 42.021,-22.902c18.883,0.754 54.8,17.766 77.979,22.902c23.178,5.137 -60.793,-22.001 -107.395,26.894c-9.431,9.895 -19.605,36.975 -19.605,36.975Z" style="fill:#fff;fill-opacity:0.11;stroke:#000;stroke-width:0.83px;"/><path id="mo" d="M1160.95,681.298c-9.431,9.895 -0.032,-10.766 -5.605,-12.796c-16.071,-5.853 -48.108,11.09 -7,-14.098c16.114,-9.874 23.137,-23.656 42.021,-22.902c18.883,0.754 54.8,17.766 77.979,22.902c23.178,5.137 -60.793,-22.001 -107.395,26.894Z" style="fill:#fff;fill-opacity:0.11;stroke:#000;stroke-width:0.83px;"/><path id="sg" d="M1148.14,739.407c0,0 2.791,-12.337 5.207,-21.134c2.415,-8.798 23.619,-29.954 37.021,-33.771c13.402,-3.817 18.161,-22.971 80.979,-11c62.817,11.971 57.07,16.853 63,17c5.929,0.147 28.748,-10.497 9,-24c-19.749,-13.503 -29.725,-21.308 -51,-25c-42.031,-7.295 -60.9,-22.84 -81.116,-30.964c-23.23,-9.334 -46.542,-1.394 -72.884,20.964c-36.06,32.919 -72.754,56.229 -65,48c-3.997,4.543 -12.832,-11.234 -7.7,-19.987c8.145,-13.896 24.592,-28.923 39.7,-37.111c15.107,-8.188 45.137,-49.902 85.021,-49.902c31.678,-0 90.848,31.131 127.225,61.447c57.211,42.27 75.215,20.647 80.754,44.455c7.762,33.369 -15.583,30.924 -27.001,30.566c-128.161,-4.016 -114.528,-1.417 -164.016,15.37c-14.431,4.896 -59.19,15.067 -59.19,15.067Z" style="fill:#fff;fill-opacity:0.11;stroke:#000;stroke-width:0.83px;"/><path id="slm" d="M1398.34,678.404c8.268,31.617 92.922,-18.001 73,-30.902c-3.141,-2.033 0.195,-10.754 -8.41,-10.017c-14.659,1.255 -44.95,12.837 -63.041,7.567c-39.201,-11.42 -76.298,-37.999 -87.549,-44.55c-63.409,-36.919 -59.763,-77.904 -121.979,-77.964c-56.035,-0.054 -99.938,44.606 -126.281,66.964c-25.322,21.491 -57.837,77.47 -57.312,101.168c0.63,28.395 65.469,17.247 66.572,-11.168c-3.997,4.543 -12.832,-11.234 -7.7,-19.987c8.145,-13.896 24.592,-28.923 39.7,-37.111c15.107,-8.188 45.137,-49.902 85.021,-49.902c31.678,-0 90.848,31.131 127.225,61.447c57.211,42.27 74.569,20.807 80.754,44.455Z" style="fill:#fff;fill-opacity:0.11;stroke:#000;stroke-width:0.83px;"/><path id="L1" d="M1466.5,451.5c-3.984,2.029 -3.508,-47.968 -16.938,-91.881c-15.914,-52.038 9.245,-121.439 -28.062,-147.119c-17.116,-11.782 -83.28,-32.458 -136,-16c-55.477,17.319 -317.279,86.14 -441,168c-97.569,64.556 -161.378,162.947 -187,216.221c-25.622,53.275 -88.932,209.377 -97,240.01c-8.068,30.633 -35.878,130.473 -24,179.769c5.705,40.462 -18.684,28 -38,28c-12.266,-11.025 0.424,-35.302 3,-54c2.576,-18.698 21.688,-131.286 45,-181.769c23.312,-50.482 47.841,-140.998 66,-173.231c18.159,-32.233 32.264,-71.818 68,-119c35.736,-47.182 57.693,-77.54 92,-103c34.307,-25.46 51.931,-54.424 80,-68c28.069,-13.576 128.745,-55.091 166,-69c37.255,-13.909 147.25,-58.797 175,-69c27.75,-10.203 129.922,-17.443 154,-17c24.078,0.443 82.618,20.867 95,39c10.873,15.923 14.76,44.189 17.619,47.382c2.86,3.193 -3.472,18.924 -0.619,51.618c2.853,32.694 9.611,59.141 15,84c5.389,24.859 0.363,25.609 5,35c5.983,12.115 -3.437,15.13 -13,20Z" style="fill:#fff;fill-opacity:0.11;stroke:#000;stroke-width:0.83px;"/><path id="L2-3" serif:id="L2/3" d="M1466.5,451.5c-3.984,2.029 -3.508,-47.968 -16.938,-91.881c-15.914,-52.038 9.245,-121.439 -28.062,-147.119c-17.116,-11.782 -83.28,-32.458 -136,-16c-55.477,17.319 -317.279,86.14 -441,168c-97.569,64.556 -161.378,162.947 -187,216.221c-25.622,53.275 -88.932,209.377 -97,240.01c-8.068,30.633 -35.878,130.473 -24,179.769c10.954,45.462 52.424,29.698 55,11c2.576,-18.698 16.688,-127.286 40,-177.769c23.312,-50.482 41.841,-139.998 60,-172.231c18.159,-32.233 19.687,-71.698 55.424,-118.881c35.736,-47.182 52.269,-66.659 86.576,-92.119c34.307,-25.46 50.061,-47.424 78.13,-61c28.07,-13.576 96.615,-64.091 133.87,-78c37.255,-13.909 136.25,-45.797 164,-56c27.75,-10.203 65.023,-18.788 88,-26c24.078,-7.557 66.515,-15.504 101,11c34.716,26.682 18.147,62.306 21,95c2.853,32.694 2.611,42.141 8,67c5.389,24.859 5.363,36.609 10,46c5.983,12.115 38.563,-1.87 29,3Z" style="fill:#fff;fill-opacity:0.11;stroke:#000;stroke-width:0.83px;"/><path id="L5" d="M1437.5,448.5c5.983,12.115 -59.508,7.032 -65.938,-71.881c-4.419,-54.238 7.245,-68.049 -12.062,-87.119c-14.783,-14.602 -94.208,4.542 -117.928,27c-42.203,39.957 -183.351,78.14 -299.072,163c-94.344,69.184 -119.378,143.947 -145,197.221c-25.622,53.275 -69.932,171.377 -78,202.01c-8.068,30.633 -18.878,65.473 -26,114.769c-6.687,46.282 -68.576,36.698 -66,18c2.576,-18.698 17.688,-119.286 41,-169.769c23.312,-50.482 48.841,-128.998 67,-161.231c18.159,-32.233 33.687,-72.698 69.424,-119.881c35.736,-47.182 92.637,-118.543 120.706,-132.119c28.07,-13.576 106.971,-74.166 144.226,-88.075c37.256,-13.909 106.261,-49.505 134.011,-59.708c27.75,-10.203 79.656,-33.005 98.633,-45.217c21.222,-13.656 61.515,-21.504 96,5c34.716,26.682 18.147,62.306 21,95c2.853,32.694 2.611,42.141 8,67c5.389,24.859 5.363,36.609 10,46Z" style="fill:#fff;fill-opacity:0.11;stroke:#000;stroke-width:0.83px;"/><path id="L6a" d="M1344.7,413.569c5.982,12.115 33.294,41.963 26.864,-36.95c-4.419,-54.238 7.245,-68.049 -12.062,-87.119c-14.783,-14.602 -94.208,4.542 -117.928,27c-42.203,39.957 -183.351,78.14 -299.072,163c-94.344,69.184 -119.378,143.947 -145,197.221c-25.622,53.275 -69.932,171.377 -78,202.01c-8.068,30.633 -18.878,65.473 -26,114.769c-6.687,46.282 29.424,20.698 32,2c2.576,-18.698 18.08,-82.934 32,-136.769c13.312,-51.482 78.687,-225.929 114.424,-273.112c35.736,-47.182 82.817,-86.704 106.384,-107.119c41.069,-35.576 128.159,-75.698 166.548,-86.075c66.256,-17.909 138.226,-65.998 160.767,-64.925c28.222,1.344 26.488,27.141 31.877,52c5.389,24.859 2.56,24.679 7.198,34.069Z" style="fill:#fff;fill-opacity:0.11;stroke:#000;stroke-width:0.83px;"/><path id="L6b" d="M1344.7,413.569c-17.948,-27.371 -27.391,-25.472 -35.388,-45.033c-9.281,-22.7 -0.629,-33.293 -62.852,8.753c-93.408,63.119 -184.429,49.34 -259.15,128.2c-80.467,84.925 -108.708,127.177 -134.387,187.618c-10.264,24.159 -34.521,76.187 -71.589,196.82c-9.304,30.281 -19.119,50.92 -28.242,87.216c-11.399,45.352 -30.166,37.055 -27.59,18.357c2.576,-18.698 18.08,-82.934 32,-136.769c13.312,-51.482 78.687,-225.929 114.424,-273.112c35.736,-47.182 82.817,-86.704 106.384,-107.119c41.069,-35.576 128.159,-75.698 166.548,-86.075c66.256,-17.909 138.226,-65.998 160.767,-64.925c28.222,1.344 26.488,27.141 31.877,52c5.389,24.859 2.56,24.679 7.198,34.069Z" style="fill:#fff;fill-opacity:0.11;stroke:#000;stroke-width:0.83px;"/><path id="L4" d="M1300.35,236.843c21.222,-13.657 -69.596,9.695 -94.683,20.043c-22.784,9.398 -128.295,39.74 -173.015,60.198c-52.85,24.177 -78.972,45.187 -194.693,130.047c-94.344,69.184 -139.523,178.351 -155.737,235.199c-16.622,58.275 -53.572,150.289 -61.64,180.922c-8.068,30.633 -20.45,87.952 -27.573,137.248c-6.687,46.282 31.913,29.698 34.489,11c2.576,-18.698 17.688,-119.286 41,-169.769c23.312,-50.482 48.841,-128.998 67,-161.231c18.159,-32.233 33.687,-72.698 69.424,-119.881c35.736,-47.182 92.637,-118.543 120.706,-132.119c28.07,-13.576 104.615,-73.274 141.87,-87.183c37.255,-13.909 101.25,-47.614 129,-57.817c27.75,-10.203 84.875,-34.446 103.852,-46.657Z" style="fill:#fff;fill-opacity:0.11;stroke:#000;stroke-width:0.83px;"/></svg>