<?xml version="1.0" encoding="UTF-8" standalone="no"?><!DOCTYPE svg PUBLIC "-//W3C//DTD SVG 1.1//EN" "http://www.w3.org/Graphics/SVG/1.1/DTD/svg11.dtd"><svg width="100%" height="100%" viewBox="0 0 850 951" version="1.1" xmlns="http://www.w3.org/2000/svg" xmlns:xlink="http://www.w3.org/1999/xlink" xml:space="preserve" xmlns:serif="http://www.serif.com/" style="fill-rule:evenodd;clip-rule:evenodd;stroke-linecap:round;stroke-linejoin:round;stroke-miterlimit:1.5;"><rect id="image" x="1.042" y="1.042" width="847.256" height="948.523" style="fill:#fff;fill-opacity:0.15;stroke:#000;stroke-width:2.08px;"/><path id="L2-3" serif:id="L2/3" d="M848.298,304.428l-0,-303.386c-212.24,511 -294.465,684.845 -622.589,948.523l144,-0c186.96,-112.418 408.292,-441.267 478.589,-645.137Z" style="fill:#5d3599;fill-opacity:0.15;stroke:#000;stroke-width:2.08px;"/><path id="L4" d="M791.298,1.042l57,-0c-212.24,511 -294.465,684.845 -622.589,948.523l-102,-0c308.96,-203.418 597.292,-744.653 667.589,-948.523Z" style="fill:#5d3599;fill-opacity:0.15;stroke:#000;stroke-width:2.08px;"/><path id="L5" d="M791.298,1.042l-108,-0c-212.24,511 -354.132,684.845 -682.256,948.523l122.667,-0c308.96,-203.418 597.292,-744.653 667.589,-948.523Z" style="fill:#5d3599;fill-opacity:0.15;stroke:#000;stroke-width:2.08px;"/><path id="L6a" d="M623.298,1.042l60,-0c-212.24,511 -354.132,684.845 -682.256,948.523l-0,-76c308.96,-203.418 551.959,-668.653 622.256,-872.523Z" style="fill:#5d3599;fill-opacity:0.15;stroke:#000;stroke-width:2.08px;"/><path id="L6b" d="M623.298,1.042l-59,-0c-212.24,450 -303.132,552.845 -563.256,790.523l-0,82c308.96,-203.418 551.959,-668.653 622.256,-872.523Z" style="fill:#5d3599;fill-opacity:0.15;stroke:#000;stroke-width:2.08px;"/></svg>