<?xml version="1.0" encoding="UTF-8" standalone="no"?><!DOCTYPE svg PUBLIC "-//W3C//DTD SVG 1.1//EN" "http://www.w3.org/Graphics/SVG/1.1/DTD/svg11.dtd"><svg width="100%" height="100%" viewBox="0 0 1839 2001" version="1.1" xmlns="http://www.w3.org/2000/svg" xmlns:xlink="http://www.w3.org/1999/xlink" xml:space="preserve" xmlns:serif="http://www.serif.com/" style="fill-rule:evenodd;clip-rule:evenodd;stroke-linecap:round;stroke-linejoin:round;stroke-miterlimit:1.5;"><path id="LM" d="M567.676,948.742c-3.467,-6.062 -6.612,-2.767 -22.801,-14.918c-16.19,-12.151 -84.171,-123.301 -85.559,-147.874c-1.388,-24.573 16.168,-73.356 30.827,-90.693c14.659,-17.337 65.326,-39.501 89.553,-43.185c24.226,-3.683 65.307,-21.091 79.193,-28.713c13.887,-7.621 97.009,-24.613 162.656,-17.094c65.646,7.52 162.243,23.599 204.724,39.772c42.481,16.174 111.384,45.816 168.452,94.331c57.068,48.515 73.391,57.603 95.873,82.426c22.482,24.824 76.113,66.392 104.145,108.486c28.032,42.095 22.335,40.527 28.017,63.168c5.683,22.64 34.148,55.741 49.924,97.78c15.776,42.039 32.009,98.223 34.426,158.484c2.416,60.26 -15.443,14.263 -11.997,64.938c3.446,50.674 -1.033,73.807 -1.766,92.85c-0.734,19.043 -8.826,101.879 -13.484,124.384c-4.658,22.506 -9.373,64.321 -34.709,125.553c-25.335,61.232 -70.482,114.022 -83.722,128.803c-13.241,14.78 -55.151,44.768 -103.875,49.856c-48.724,5.088 -120.931,-24.892 -160.823,-46.792c-39.892,-21.9 -92.916,-56.209 -116.403,-82.874c-23.486,-26.664 -45.218,-49.485 -60.827,-33.93c-15.609,15.555 -6.279,19.864 -25.157,42c-18.879,22.136 -8.176,20.034 -18.719,44.216c-10.544,24.183 -32.507,35.088 -69.281,32.786c-36.775,-2.302 -14.608,9.076 -8,8.998c6.607,-0.078 22.191,1.125 35,-2c12.808,-3.125 32.138,-10.67 43,-28c10.861,-17.33 6.794,-32.602 15,-42c8.205,-9.398 24.645,-23.087 28.157,-38c3.512,-14.913 21.315,-19.241 49.843,13c28.527,32.241 87.973,75.042 112,85.804c24.026,10.761 65.509,37.225 110,47.616c44.49,10.39 90.456,5.57 120,-8.42c29.543,-13.99 63.536,-34.856 95.257,-84c31.72,-49.144 54.41,-90.908 68.743,-136c14.332,-45.092 22.956,-157.36 26,-185.985c3.043,-28.625 6.144,-123.314 12,-136.015c18.218,-39.518 -1.867,-107.903 -6.237,-128c-4.371,-20.097 -19.689,-83.065 -68.763,-155c-7.364,-10.794 2.363,-21.874 -9,-40c-50.847,-81.107 -113.278,-144.496 -134,-159c-20.723,-14.504 -89.071,-75.61 -155,-119c-62.464,-41.108 -183.47,-72.966 -236,-80.235c-52.927,-7.323 -147.386,-19.692 -224,3.235c-76.615,22.927 -67.937,25.563 -129,41c-61.064,15.437 -78.62,56.51 -88,82c-9.381,25.49 -11.615,36.781 -11,59c0.614,22.219 19.304,46.103 38,81c18.695,34.897 29.741,47.507 43,61c9.785,9.959 22.013,17.229 25.879,17.396c5.885,0.255 9.297,-0.679 8.454,-2.154Z" style="fill:#f8f8f8;fill-opacity:0.05;stroke:#000;stroke-width:0.83px;"/><rect id="image" x="0.5" y="0.5" width="1838" height="2000" style="fill:none;stroke:#000;stroke-width:1px;"/><path id="st" d="M1019.64,1137.32l-2.229,-7.866c-0,0 2.582,2.969 7.149,2.224c4.567,-0.744 27.735,-3.051 32.257,-18.059c4.522,-15.008 13.789,-15.764 16.528,-13.115c2.738,2.649 7.358,9.077 9.158,21.029c1.8,11.952 5.777,40.085 -15.431,48.658c-15.813,6.392 -33.982,-12.606 -39.398,-20.786c-5.416,-8.18 -8.034,-12.085 -8.034,-12.085Z" style="fill:#f8f8f8;fill-opacity:0.05;stroke:#000;stroke-width:0.83px;"/><path id="int" d="M941.747,1599.5c-0,-0 20.724,-30.48 38.99,-46c18.266,-15.52 53.156,-54.486 66.606,-78c13.449,-23.514 43.019,-58.08 54,-101c10.98,-42.92 41.783,-105.213 47,-163c5.216,-57.787 -10.926,-98.365 -21,-120c-10.075,-21.635 -34.08,23.651 -47.457,8c-6.616,-7.742 0.193,5.565 2.787,23.379c2.65,18.201 1,41.065 -14.33,46.863c-30.336,11.473 -51.361,-42.739 -50.754,-31.599c0.607,11.141 13.055,22.146 16.754,32.357c3.698,10.211 10.992,24.91 19,33c8.007,8.09 15.854,-0.4 21,16c5.145,16.4 6.842,34.086 5.543,48.974c-1.298,14.888 -15.025,71.035 -39.175,94.671c-24.15,23.637 -68.092,79.174 -81.368,90.355c-13.277,11.181 -47.925,53.742 -60.892,64.904c-12.967,11.162 -31.217,43.409 -28.976,53.733c2.24,10.323 -4.448,20.261 12.528,26.478c16.977,6.217 30.573,-13.282 48.85,-4.628c18.277,8.653 10.894,5.513 10.894,5.513Z" style="fill:#f8f8f8;fill-opacity:0.05;stroke:#000;stroke-width:0.83px;"/><path id="fi" d="M1026.34,1131.5c9.152,-1.835 47.587,-5.888 27,-56c-9.949,-24.215 -39.447,-69.855 -48,-120.769c-9.601,-57.149 -135.374,-102.623 -129,-99.231c35.98,19.148 86.781,59.634 97,78c10.218,18.366 25.24,41.494 -6,70c-31.241,28.506 -51.616,25.129 -69,25c-17.385,-0.129 32.375,7.642 44,16c30.194,21.71 63.543,91.101 84,87Z" style="fill:#f8f8f8;fill-opacity:0.05;stroke:#000;stroke-width:1px;"/><path id="cc" d="M593.343,1000.5c-0,-0 13.28,-12.507 17,-24c3.719,-11.493 9.34,-41.879 17,-61c7.659,-19.121 19.167,-49.987 40,-64c20.832,-14.013 41.6,-32.851 93,-28c51.399,4.851 79.626,13.608 116,32c36.373,18.392 35.781,8.634 81,41c17.09,12.233 37.24,24.725 79,63.231c19.915,18.365 78.025,46.222 128.24,83.621c11.676,8.696 54.174,54.204 81.526,97.72c25.928,41.252 36.928,80.714 41.986,85.326c1.426,1.3 -7.446,-43.531 -29.128,-87.496c-16.078,-32.603 -44.601,-65.63 -52.806,-74.284c-35.153,-37.076 -95.705,-86.316 -97.818,-88.118c-20.713,-17.665 -75.772,-54.886 -81,-59c-17.674,-13.908 -104.136,-71.781 -137,-85c-23.014,-9.257 -80.891,-21.564 -95,-24c-53.806,-9.29 -99.966,6.143 -113,10c-9.613,2.845 -55.746,-0.579 -76,11c-13.212,7.553 -0.952,74.811 -28.433,112.241c-11.267,15.345 2.433,17.99 2.433,17.99l13,40.769Z" style="fill:#f8f8f8;fill-opacity:0.05;stroke:#000;stroke-width:0.83px;"/><path id="CTXspl-OLF" serif:id="CTXspl+OLF" d="M1375.38,1372.91c-3.329,-16.474 -29.005,-41.289 21.334,-29.415c23.438,5.529 50.883,17.282 72.815,14.471c23.076,-2.957 28.081,-5.13 25.875,22.191c-6.044,74.844 -3.78,77.617 -16.969,161.882c-12.999,83.06 -48.741,153.692 -58.364,165.196c-44.096,52.715 -59.085,91.184 -65.926,81.595c-8.984,-12.592 -39.806,-52.034 -36.592,-104.946c2.534,-41.716 6.493,-46.149 24.048,-115.379c15.811,-62.358 40.489,-162.395 33.779,-195.595Z" style="fill:#f8f8f8;fill-opacity:0.05;stroke:#000;stroke-width:0.83px;"/><path id="L1" d="M577.91,941.741c15.926,10.429 -35.918,0.115 -62.493,-44.058c-35.826,-59.552 -56.96,-105.534 -56.074,-112.183c12.719,-95.493 43.988,-102.007 62,-112c32.659,-18.121 65.167,-21.987 96,-31c16.42,-4.8 34.475,-24.347 98.976,-32.566c30.16,-3.843 91.572,-5.21 129.295,-1.434c51.371,5.142 172.108,28.265 229.272,56c75.358,36.563 104.238,65.634 149.457,98c17.09,12.233 80.24,74.316 122,112.822c12.256,11.302 47.958,51.114 65.908,82.148c11.217,19.394 3.921,26.826 15.332,48.03c11.676,21.696 59.529,95.262 70.526,173.572c1.35,9.62 19.987,88.402 -0.703,111.088c-10.157,11.137 7.963,58.891 -2.516,63.424c-38.18,16.516 -18.064,-4.203 -19.744,-35.207c-1.516,-27.987 17.974,-85.954 15.949,-104.951c-2.407,-22.579 -6.446,-60.559 -28.128,-104.524c-16.078,-32.603 -47.543,-116.032 -52.806,-126.733c-23.153,-47.076 -97.705,-122.701 -99.818,-124.504c-20.713,-17.665 -111.772,-97.051 -117,-101.165c-17.674,-13.908 -127.521,-71.95 -158,-90c-19.506,-11.552 -202.189,-48.64 -221,-48c-28.86,0.982 -88.968,1.594 -129.822,11.945c-36.396,9.222 -54.559,26.652 -60.937,26.068c-23.986,-2.195 -114.533,25.137 -120.241,41.987c-1.589,4.689 -47.429,64.496 -25.404,117.198c23.16,55.417 81.957,114.246 99.971,126.043Z" style="fill:#f8f8f8;fill-opacity:0.05;stroke:#000;stroke-width:0.83px;"/><path id="L2-3" serif:id="L2/3" d="M577.91,941.741c15.926,10.429 6.082,-22.885 -20.493,-67.058c-16.814,-27.95 -64.612,-99.614 -31.767,-141.058c37.138,-46.862 158.44,-62.329 192.669,-66.691c16.405,-2.09 90.094,-3.149 161.629,9.989c59.981,11.015 118.78,33.11 144.938,45.577c84.522,40.283 137.197,66.149 175.457,100.391c15.66,14.017 153.26,107.871 206.257,254.181c1.86,5.134 48.861,91.662 46.481,145.838c-1.161,26.415 -23.606,121.856 -8.721,132.754c11.979,8.771 32.466,-6.283 30.786,-37.287c-1.516,-27.987 17.974,-85.954 15.949,-104.951c-2.407,-22.579 -6.446,-60.559 -28.128,-104.524c-16.078,-32.603 -47.543,-116.032 -52.806,-126.733c-23.153,-47.076 -97.705,-122.701 -99.818,-124.504c-20.713,-17.665 -111.772,-97.051 -117,-101.165c-17.674,-13.908 -127.521,-71.95 -158,-90c-19.506,-11.552 -202.189,-48.64 -221,-48c-28.86,0.982 -88.968,1.594 -129.822,11.945c-36.396,9.222 -54.797,26.639 -61.175,26.055c-23.986,-2.196 -114.295,25.15 -120.003,42c-1.589,4.689 -47.429,64.496 -25.404,117.198c23.16,55.417 81.957,114.246 99.971,126.043Z" style="fill:#f8f8f8;fill-opacity:0.05;stroke:#000;stroke-width:0.83px;"/><path id="L4" d="M740.521,687.445c-37.492,2.01 -56.431,-16.149 -22.202,-20.511c16.405,-2.09 90.094,-3.149 161.629,9.989c59.981,11.015 118.78,33.11 144.938,45.577c84.522,40.283 137.197,66.149 175.457,100.391c15.66,14.017 153.26,107.871 206.257,254.181c1.86,5.134 48.861,91.662 46.481,145.838c-1.161,26.415 -23.606,121.856 -8.721,132.754c11.979,8.771 -25.534,1.717 -27.214,-29.287c-1.516,-27.987 0.829,-89.065 -2.051,-107.951c-7.407,-48.579 -22.962,-86.708 -32.934,-111.257c-33.451,-82.346 -80.056,-139.357 -81.818,-141.504c-21.76,-26.506 -91.482,-75.118 -110,-92.165c-25.432,-23.412 -127.959,-84.5 -182,-115c-38.743,-21.866 -126.189,-55.64 -167,-62c-28.533,-4.446 -56.968,-11.406 -100.822,-9.055Z" style="fill:#f8f8f8;fill-opacity:0.05;stroke:#000;stroke-width:0.83px;"/><path id="L5" d="M740.521,687.445c-6.486,0.348 -18.409,2.886 -40.116,-9.082c-21.707,-11.969 -104.538,14.081 -113.225,17.111c-76.069,26.531 -75.073,65.054 -69.606,96.763c4.896,28.394 44.651,84.713 54.77,109.498c18.293,44.806 29.051,-50.49 27.73,-55.933c-15.946,-65.675 12.296,-77.425 94.245,-87.868c16.405,-2.09 62.823,-12.736 134.359,0.401c59.98,11.016 126.767,39.698 152.926,52.165c84.521,40.283 120.479,61.149 158.739,95.391c15.66,14.017 146.978,91.871 174.257,167.181c1.86,5.134 40.861,79.656 43.481,133.832c1.277,26.409 10.307,121.536 25.192,132.434c11.98,8.771 35.553,18.043 33.873,-12.961c-1.516,-27.987 0.829,-89.065 -2.051,-107.951c-7.407,-48.579 -22.962,-86.708 -32.934,-111.257c-33.451,-82.346 -80.056,-139.357 -81.818,-141.504c-21.76,-26.506 -91.482,-75.118 -110,-92.165c-25.432,-23.412 -127.959,-84.5 -182,-115c-38.743,-21.866 -126.189,-55.64 -167,-62c-28.533,-4.446 -56.968,-11.406 -100.822,-9.055Z" style="fill:#f8f8f8;fill-opacity:0.05;stroke:#000;stroke-width:0.83px;"/><path id="L6a" d="M755.735,780.445c-6.486,0.348 -87.868,5.999 -96.555,9.029c-76.069,26.531 -57.785,61.771 -59.106,56.328c-15.946,-65.675 12.296,-77.425 94.245,-87.868c16.405,-2.09 66.094,-12.149 137.629,0.989c59.981,11.015 123.497,39.11 149.656,51.577c84.521,40.283 120.479,61.149 158.739,95.391c15.66,14.017 146.978,91.871 174.257,167.181c1.86,5.134 40.861,79.656 43.481,133.832c1.277,26.409 10.307,121.536 25.192,132.434c11.98,8.771 -52.447,-7.957 -54.127,-38.961c-1.516,-27.987 -18.013,-126.659 -27.985,-151.208c-33.451,-82.346 -55.056,-97.357 -56.818,-99.504c-21.76,-26.506 -66.482,-63.118 -85,-80.165c-25.432,-23.412 -109.959,-84.5 -164,-115c-38.743,-21.866 -74.189,-38.64 -114,-53c-27.164,-9.798 -81.755,-23.406 -125.608,-21.055Z" style="fill:#f8f8f8;fill-opacity:0.05;stroke:#000;stroke-width:0.83px;"/><path id="L6b" d="M755.735,780.445c-6.486,0.348 -87.868,5.999 -96.555,9.029c-76.069,26.531 -59.143,61.929 -59.106,56.328c0.153,-23.675 9.092,-19.473 91.041,-29.916c16.405,-2.09 44.046,-18.336 115.582,-5.199c59.98,11.016 98.57,23.553 146.728,57.02c76.887,53.431 110.248,69.309 148.508,103.552c15.661,14.016 104.045,79.895 140.324,139.205c2.849,4.659 38.819,59.386 45.439,111.562c1.104,8.701 12.817,24.119 15.757,42.656c5.952,37.524 27.685,72.453 25.693,35.695c-1.516,-27.987 -18.013,-126.659 -27.985,-151.208c-33.451,-82.346 -55.056,-97.357 -56.818,-99.504c-21.76,-26.506 -66.482,-63.118 -85,-80.165c-25.432,-23.412 -109.959,-84.5 -164,-115c-38.743,-21.866 -74.189,-38.64 -114,-53c-27.164,-9.798 -81.755,-23.406 -125.608,-21.055Z" style="fill:#f8f8f8;fill-opacity:0.05;stroke:#000;stroke-width:0.83px;"/><path id="TH" d="M617.343,1085.5c-0,-0 27.404,-10.58 43,-6c15.595,4.58 20.922,1.924 32,12c11.078,10.076 22.358,20.603 32,21c9.641,0.397 29.962,4.476 39,3c9.037,-1.476 37.987,-22.398 48,-29c10.012,-6.602 40.248,-34.595 50,-35c9.751,-0.405 37.213,-8.68 64,1c26.786,9.68 39.394,18.046 52.191,31.136c7.377,7.545 13.41,17.85 20.99,27.604c5.57,7.168 13.452,13.669 15.819,20.434c5.586,15.972 18.221,34.124 25.791,52.152c14.662,34.918 30.906,16.25 36.161,42.6c3.482,17.455 5.111,46.982 1.048,61.074c-19.862,68.877 -48.729,90.382 -90.093,131c-41.364,40.618 -142.436,61.627 -163.567,68c-29.576,8.919 -98.292,38.61 -122.34,44c-23.564,-47.892 -32.924,-143.422 -33,-163c-0.034,-8.502 6.343,-119.809 -4.535,-178.53c-14.169,-76.489 -46.465,-103.47 -46.465,-103.47Z" style="fill:#f8f8f8;fill-opacity:0.05;stroke:#000;stroke-width:0.83px;"/><path id="HY" d="M804.343,1790.3c10.557,4.2 38.992,2.856 53,-8.194c31.371,-24.748 16.611,-47.691 37,-66.61c20.388,-18.919 27.252,-44.103 32.51,-65c5.258,-20.897 6.307,-39.875 12.49,-48c6.182,-8.125 -23.225,-13.1 -32,-8c-15.349,8.919 -36.008,6.26 -38,-10c-1.862,-15.188 4.485,-44.244 29,-66c24.514,-21.756 71.252,-72.099 21.157,-53c-50.095,19.099 -95.764,32.543 -119.157,41c-27.029,9.771 -83.279,28.827 -99,33c2.756,15.657 8.967,40.89 11,54c2.032,13.11 7.835,75.525 29,115c21.165,39.475 52.442,77.603 63,81.804Z" style="fill:#f8f8f8;fill-opacity:0.05;stroke:#000;stroke-width:0.83px;"/><path id="CP" d="M1024.77,949.227c0,-0 19.397,18.881 41.197,31.227c21.8,12.346 72.482,44.639 88.572,55.611c16.091,10.973 77.149,75.21 90.507,103.331c13.358,28.121 36.373,64.391 43.194,87.322c6.822,22.93 26.154,55.737 14.931,87.004c-19.75,55.025 -58.873,126.02 -72.83,127.778c-8.947,1.127 -88.578,-20.91 -91,-26c-2.423,-5.09 22.502,-9.735 40,-32c17.497,-22.265 30.107,-63.167 21,-91c-9.108,-27.833 -41.527,-48.374 -47,-55c-5.474,-6.626 -5.304,-17.928 -5.177,-24.144c0.128,-6.215 4.321,-77.899 -17.321,-114.043c-6.934,-11.582 -5.244,-13.358 -9.491,-13.787c-9.005,-0.907 -20.229,13 -25.032,13.787c-7.067,1.157 -15.77,14.741 -31.979,-31.813c-16.21,-46.554 -31.304,-63.344 -20,-76c11.303,-12.656 21.626,-11.046 21.626,-11.046" style="fill:#f8f8f8;fill-opacity:0.05;stroke:#000;stroke-width:0.83px;"/><path id="GPe" d="M1142.88,1410.99c4.726,-2.83 29.906,-16.139 35.831,-26.703c5.926,-10.565 25.699,-38.769 24.415,-64.073c-1.284,-25.304 -1.581,-34.571 -20.124,-55.495c-18.543,-20.924 -38.112,-30.639 -39.6,-22.185c-1.489,8.455 -9.623,37.034 -13.38,47.141c-3.756,10.108 -23.839,64.14 -24.302,69.676c-0.464,5.536 -10.521,28.46 -11.584,36.694c-1.063,8.234 -11.389,21.898 -12.93,26.224c-1.542,4.326 -11.816,19.274 -11.816,19.274c-0,-0 -40.233,58.265 -11.579,28.573c24.484,-25.372 20.549,-18.628 32.603,-19.041c5.433,-0.186 13.634,-11.471 23.924,-19.574c10.289,-8.103 23.816,-17.681 28.542,-20.511Z" style="fill:#f8f8f8;fill-opacity:0.05;stroke:#000;stroke-width:0.83px;"/><path id="SI" d="M943.206,1600.06l15.137,4.445c-0,-0 4.169,-0.169 15,-12c10.83,-11.831 34.133,-32.246 51.429,-44c17.297,-11.754 38.576,-40.886 44.623,-52c6.046,-11.114 24.358,-44.716 24.358,-44.716c-0,-0 -14.732,-4.657 -24.358,5.716c-9.627,10.373 -32.665,35.882 -38.504,41.754c-5.839,5.871 -39.729,48.364 -47.534,51.962c-9.055,4.173 -42.664,48.278 -40.151,48.839Z" style="fill:#f8f8f8;fill-opacity:0.05;stroke:#000;stroke-width:0.83px;"/><path id="CTXspl-OLF1" serif:id="CTXspl+OLF" d="M952.343,1658.44c2.72,19.241 19.069,40.85 34.014,55.063c10.149,9.653 52.529,45.969 79.459,59.869c13.682,7.062 16.178,15.73 27.937,-0.481c32.591,-44.934 31.809,-33.527 36.69,-52.962c6.836,-27.213 -5.908,-39.064 7.285,-81.854c7.6,-24.647 40.731,-22.911 57.562,-63.564c11.228,-27.121 37.875,-80.83 44.329,-95.961c7.808,-18.304 0.724,-40.724 -7.966,-37.385c-8.689,3.338 -84.398,-20.241 -91.395,-24.782c-6.997,-4.541 -17.184,10.134 -23.235,13.031c-6.051,2.897 -28.528,25.51 -37.852,49.136c-5.421,13.736 -21.101,39.278 -42.056,59.506c-14.146,13.655 -30.027,22.745 -42.772,33.447c-12.04,10.109 -22.44,21.5 -27.868,27.902c-7.966,9.394 -7.533,11.658 -11.132,19.098c-6.053,12.509 -5.721,20.696 -3,39.937Z" style="fill:#f8f8f8;fill-opacity:0.05;stroke:#000;stroke-width:0.83px;"/><path id="CTXspl-OLF2" serif:id="CTXspl+OLF" d="M1125.35,1733.05c-9.421,17.257 -48.135,47.147 -28.624,57.251c49.339,25.551 107.964,54.389 165.613,46.196c57.648,-8.193 95.453,-46.196 95.453,-46.196c-0,-0 -5.085,3.172 -16.945,-20.864c-11.86,-24.037 -28.799,-62.97 -22.918,-90.404c5.882,-27.435 11.592,-75.162 25.491,-117.727c13.6,-41.647 49.65,-178.048 23.523,-209.313c-17.019,-20.366 8.88,-10.09 -37.432,-31.755c-15.885,-7.431 -17.109,-38.172 -34.267,13.965c-17.157,52.136 -67.514,108.942 -50.943,116.535c10.703,4.905 -30.12,83.588 -49.114,123.978c-22.193,47.191 -43.483,27.801 -59.837,68.828c-11.793,29.583 5.955,60.278 -10,89.506Z" style="fill:#f8f8f8;fill-opacity:0.05;stroke:#000;stroke-width:0.83px;"/><path id="po" d="M826.343,963.5c-6.853,-2.956 -40.434,-16.196 -55.049,-10.296c-14.616,5.899 -22.095,6.755 -31.951,26.296c-9.857,19.541 -9.011,32.646 -26.214,43.582c-17.203,10.935 -30.432,7.41 -33.047,20.89c-2.616,13.48 6.614,17.721 21.261,15.528c14.646,-2.193 28.188,7.054 39,7c17.725,-0.089 32.663,-22.089 43.33,-29.963c10.666,-7.874 34.792,-13.414 45.67,-6.037c10.877,7.377 18.618,4.761 11,-2c-9.286,-8.24 -26.653,-19.996 -50.047,-13c-31.393,9.389 -33.193,27.086 -51.953,30c-18.761,2.914 -20,-4 -20,-4c-0,0 17.138,-7.72 25,-20c8.029,-12.543 15.178,-46.014 57,-46c32.827,0.011 31.318,-9.705 26,-12Z" style="fill:#f8f8f8;fill-opacity:0.05;stroke:#000;stroke-width:0.83px;"/><path id="mo" d="M811.377,981.567c-9.853,1.043 -36.704,0.882 -37.083,15.687c-0.354,13.807 13.961,8.208 33.997,13.882c10.707,3.032 5.667,-2.632 -17.727,4.364c-31.393,9.389 -33.193,27.086 -51.953,30c-18.761,2.914 -20,-4 -20,-4c-0,0 17.138,-7.72 25,-20c8.029,-12.543 15.178,-46.014 57,-46c32.827,0.011 16.526,5.457 10.766,6.067Z" style="fill:#f8f8f8;fill-opacity:0.05;stroke:#000;stroke-width:0.83px;"/><path id="sg" d="M826.343,963.5c-6.853,-2.956 -40.434,-16.196 -55.049,-10.296c-14.616,5.899 -22.095,6.755 -31.951,26.296c-9.857,19.541 -9.011,32.646 -26.214,43.582c-17.203,10.935 -30.432,7.41 -33.047,20.89c-2.616,13.48 6.614,17.721 21.261,15.528c14.646,-2.193 28.188,7.054 39,7c17.725,-0.089 32.663,-22.089 43.33,-29.963c10.666,-7.874 34.792,-13.414 45.67,-6.037c10.877,7.377 9.789,16.079 0.171,22.318c-10.416,6.756 -22.999,15.87 -46.392,29.867c-28.119,16.823 -27.798,16.261 -58.559,10.176c-4.757,-0.941 -13.262,-2.592 -21.715,-7.096c-3.692,-1.967 -6.164,-6.411 -10.339,-8.335c-5.703,-2.629 -12.592,1.546 -18.416,-0.556c-5.019,-1.812 -9.107,-9.903 -12.605,-12.032c-9.307,-5.664 -9.145,-10.342 -9.145,-10.342c-0,0 6.138,-14.72 14,-27c3.141,-4.906 28.584,-29.12 37.095,-50.054c15.411,-37.906 44.442,-55.954 69.905,-55.946c19.307,0.006 60.598,12.327 70.055,24.479c6.622,8.51 -14.865,18.466 -17.055,17.521Z" style="fill:#f8f8f8;fill-opacity:0.05;stroke:#000;stroke-width:0.83px;"/><path id="slm" d="M826.343,963.5c-1.772,-0.764 7.004,12.348 21.896,12.347c37.84,-0.003 47.689,-15.925 45.112,-24.14c-8.632,-27.512 -53.59,-43.575 -62.057,-47.503c-14.297,-6.634 -76.095,-13.245 -101.951,-2.704c-20.267,8.262 -37.011,30.271 -46.214,47.207c-9.733,17.91 -25.432,56.785 -34.047,70.265c-7.395,11.57 -17.096,27.999 -20.594,25.87c-9.307,-5.664 23.855,9.658 23.855,9.658c-0,0 6.138,-14.72 14,-27c3.141,-4.906 28.584,-29.12 37.095,-50.054c15.411,-37.906 44.442,-55.954 69.905,-55.946c19.307,0.006 60.598,12.327 70.055,24.479c6.622,8.51 -14.865,18.466 -17.055,17.521Z" style="fill:#f8f8f8;fill-opacity:0.05;stroke:#000;stroke-width:0.83px;"/><path id="sr" d="M900.343,913.5c53.246,38.117 15.537,88.337 -24.545,72.331c-14.342,-5.727 -39.773,1.912 -50.559,-7.984c-5.954,-5.463 1.602,-8.079 7.582,-7.093c4.88,0.805 7.341,4.838 11.839,4.838c47.333,-0.002 50.269,-18.856 48.691,-23.885c-8.632,-27.512 -53.59,-43.575 -62.057,-47.503c-14.297,-6.634 -76.095,-13.245 -101.951,-2.704c-20.267,8.262 -37.011,30.271 -46.214,47.207c-9.733,17.91 -25.432,56.785 -34.047,70.265c-7.395,11.57 -17.096,27.999 -20.594,25.87c-9.307,-5.664 -1.648,-6.342 -1.648,-6.342c0,0 -7.861,-21.72 0,-34c3.141,-4.906 11.087,-29.12 19.598,-50.054c15.411,-37.906 25.442,-81.954 87.905,-95.946c18.84,-4.22 84.598,8.327 94.055,20.479c6.622,8.51 49.635,18.551 71.945,34.521Z" style="fill:#f8f8f8;fill-opacity:0.05;stroke:#000;stroke-width:0.83px;"/><path id="sp" d="M900.343,913.5c53.246,38.117 15.537,88.337 -24.545,72.331c-14.342,-5.727 -39.773,1.912 -50.559,-7.984c-0.948,-0.87 -4.504,2.962 -9.314,3.384c-10.843,0.949 -28.059,0.893 -36.128,6.521c-10.815,7.543 -2.855,18.528 0.024,19.002c4.88,0.805 63.341,9.838 67.839,9.838c10.685,-0.001 35.768,-2.049 58.391,-7.464c19.217,-4.599 36.66,-11.627 41.997,-21.891c16.212,-31.181 -7.115,-66.712 -31.697,-82.53c-53.632,-34.512 -123.853,-53.954 -133.057,-55.503c-51.297,-8.634 -56.095,-2.08 -81.951,8.461c-43.267,17.639 -51.011,58.106 -60.214,75.042c-9.733,17.91 -12.432,46.785 -21.047,60.265c-7.395,11.57 -9.096,35.999 -15.594,39.87c-9.361,5.576 22.352,5.658 22.352,5.658c0,0 -7.861,-21.72 0,-34c3.141,-4.906 11.087,-29.12 19.598,-50.054c15.411,-37.906 25.442,-81.954 87.905,-95.946c18.84,-4.22 84.598,8.327 94.055,20.479c6.622,8.51 49.635,18.551 71.945,34.521Z" style="fill:#f8f8f8;fill-opacity:0.05;stroke:#000;stroke-width:0.83px;"/><path id="so" d="M950.414,908.255c13.489,9.656 26.592,27.532 33.51,47.149c8.025,22.754 -7.653,41.128 -18.548,49.847c-23.116,18.499 -36.736,23.854 -67.033,23.249c-20.379,-0.407 -40.536,1.598 -51.606,3.227c-3.147,0.463 -8.308,-5.022 -12.952,-8.438c-7.38,-5.43 -13.685,-9.964 -10.285,-9.89c4.636,0.101 22.472,3.193 24.16,3.193c10.685,-0.001 35.768,-2.049 58.391,-7.464c19.217,-4.599 36.66,-11.627 41.997,-21.891c16.212,-31.181 -7.115,-66.712 -31.697,-82.53c-53.632,-34.512 -123.853,-53.954 -133.057,-55.503c-51.297,-8.634 -56.095,-2.08 -81.951,8.461c-43.267,17.639 -51.011,58.106 -60.214,75.042c-9.733,17.91 -12.432,46.785 -21.047,60.265c-7.395,11.57 -9.096,35.999 -15.594,39.87c-9.361,5.576 -11.145,-32.342 -11.145,-32.342c-0,-0 8.151,-9.126 16.012,-21.406c3.142,-4.907 7.275,-36.719 15.787,-57.654c7.758,-19.082 13.889,-40.88 30.045,-58.899c15.937,-17.774 41.737,-31.853 72.755,-38.801c18.84,-4.22 91.813,8.189 116.568,17.482c58.381,21.917 83.595,51.063 105.904,67.033Z" style="fill:#f8f8f8;fill-opacity:0.05;stroke:#000;stroke-width:0.83px;"/></svg>