<?xml version="1.0" encoding="UTF-8" standalone="no"?><!DOCTYPE svg PUBLIC "-//W3C//DTD SVG 1.1//EN" "http://www.w3.org/Graphics/SVG/1.1/DTD/svg11.dtd"><svg width="100%" height="100%" viewBox="0 0 1922 2001" version="1.1" xmlns="http://www.w3.org/2000/svg" xmlns:xlink="http://www.w3.org/1999/xlink" xml:space="preserve" xmlns:serif="http://www.serif.com/" style="fill-rule:evenodd;clip-rule:evenodd;stroke-linecap:round;stroke-linejoin:round;stroke-miterlimit:1.5;"><path id="cpd" d="M938.565,1042.52c-2.564,7.862 -14.997,36.838 -20.056,43.705c-5.06,6.868 -28.097,33.763 -37.097,44.955c-9.001,11.193 -31.251,39.933 -51.49,61.087c-20.239,21.154 -25.762,52.658 -49.387,86.752c-23.625,34.094 -42.37,54.964 -47.272,69.234c-4.901,14.271 -31.572,8.501 -4.447,43.194c15.592,19.941 18.189,17.396 20.743,20.065c14.682,15.345 -12.081,79.167 42.417,7.203c13.28,-17.536 81.066,-107.728 110.435,-133.66c30.807,-27.203 53.186,-67.583 58.589,-93.556c5.403,-25.973 13.577,-87.633 12.308,-106.836c-1.268,-19.204 -8.505,-30.98 -14.286,-39.049c-5.78,-8.069 -17.892,-10.957 -20.457,-3.094Z" style="fill:#f8f8f8;fill-opacity:0.05;stroke:#000;stroke-width:0.83px;"/><path id="HY" d="M357.086,1638.41c9.165,-3.211 48.575,-17.091 69.195,-7.838c20.619,9.253 58.151,37.948 75.173,41.262c17.022,3.314 59.732,5.691 91.957,-9.082c32.224,-14.772 50.574,-19.566 66.248,-59.665c15.674,-40.099 26.086,-32.114 36.841,-44.587c10.755,-12.473 32.978,-5.733 36,-50c3.022,-44.267 23.569,-46.94 19,-66c-1.666,-6.952 13.758,-17.062 -6.482,-33.231c-7.423,-5.93 -13.914,-13.595 -19.406,-22.073c-3.456,-5.335 -6.842,-9.058 -8.791,-18.935c-1.094,-5.542 16.858,-22.13 29.915,-42.858c7.386,-11.727 61.508,-85.794 65.355,-106.302c2.908,-15.505 -37.947,15.781 -64.025,35.789c-22.948,17.608 -55.047,64.941 -92.85,98.677c-48.03,42.864 -76.53,50.666 -108.545,50.284c-32.015,-0.381 -46.706,-26.306 -113.273,-8.036c-66.568,18.269 -46.222,10.16 -60.866,7.967c-14.644,-2.193 -2.54,-1.33 -9.888,28.718c-7.348,30.048 9.251,100.451 6.856,125c-2.395,24.549 -37.19,61.107 -26,70c11.19,8.893 4.421,14.121 13.586,10.91Z" style="fill:#f8f8f8;fill-opacity:0.05;stroke:#000;stroke-width:0.83px;"/><path id="fi" d="M930.875,879.994c7.455,5.08 24.161,17.449 50.418,21.364c26.257,3.914 44.345,5.578 56.469,1.338c12.125,-4.24 32.836,-20.851 39.368,-30.737c6.531,-9.886 10.485,-36.025 10.313,-47.058c-0.171,-11.034 5.253,-40.598 7.057,-30.401c1.804,10.197 11.438,61.109 7,88c-4.438,26.891 -34.923,67.391 -42,80c-7.077,12.609 -38.017,49.505 -40,68c-1.983,18.495 -25.616,43.664 -40,36c-14.384,-7.664 -24.067,-20.642 -24.697,-39.418c-0.593,-17.66 15.024,-62.317 11.67,-76.265c-3.355,-13.948 -9.922,-35.357 -32.973,-58.317c-23.051,-22.96 -10.08,-17.587 -2.625,-12.506Z" style="fill:#f8f8f8;fill-opacity:0.05;stroke:#000;stroke-width:0.83px;"/><rect id="image" x="0.5" y="0.5" width="1921" height="2000" style="fill:none;stroke:#000;stroke-width:1px;"/><path id="L1" d="M383.358,575.194c14.881,-3.122 23.366,-59.898 28.142,-78.694c6.76,-26.604 7.988,-73.481 11,-97c3.012,-23.519 -41.051,-66.704 0,-99c53.118,-41.789 158.904,32.285 248,-8c37.452,-16.934 245.967,10.082 281,22c42.48,14.451 290.895,92.95 342,138c12.783,11.268 35.881,116.149 72.235,189.4c17.463,35.187 4.691,74.463 12.765,96.224c16.604,44.753 31.861,75.195 32.845,138.242c0.214,13.747 -9.417,41.147 -1.856,96.134c3.29,23.924 -14.578,47.075 6.011,48c20.589,0.925 29.523,0.98 29.321,-49.345c-0.203,-50.324 6.479,-89.704 6.679,-108.655c0.2,-18.951 -49.601,-92.908 -62,-158c-12.399,-65.092 6.108,-55.17 -41,-151c-47.108,-95.83 -26.059,-78.96 -32,-101c-5.941,-22.04 -111.458,-64.738 -168,-88c-56.542,-23.262 -161.013,-64.755 -268,-82c-106.987,-17.245 -157.149,-22.203 -221,-18c-63.851,4.203 -216.993,16.057 -248,24c-31.007,7.943 -14.68,54.157 -16,103c-1.32,48.843 5.506,132.211 -18,169c-23.506,36.789 -9.022,17.816 5.858,14.694Z" style="fill:#f8f8f8;fill-opacity:0.05;stroke:#000;stroke-width:0.83px;"/><path id="L2-3" serif:id="L2/3" d="M383.358,575.194c14.881,-3.122 23.366,-59.898 28.142,-78.694c6.76,-26.604 7.988,-73.481 11,-97c3.012,-23.519 -41.051,-66.704 0,-99c53.118,-41.789 158.904,32.285 248,-8c37.452,-16.934 245.967,10.082 281,22c42.48,14.451 290.895,92.95 342,138c12.783,11.268 35.881,116.149 72.235,189.4c17.463,35.187 4.691,74.463 12.765,96.224c16.604,44.753 31.861,75.195 32.845,138.242c0.214,13.747 -9.417,41.147 -1.856,96.134c1.228,8.924 -0.684,22.844 -4.989,43c-1.008,4.719 -13.82,3.65 -42.244,-5.806c-7.612,-2.532 -1.39,-24.302 -1.435,-35.539c-0.203,-50.324 -13.922,-137.563 -26.321,-202.655c-12.399,-65.092 -20.892,-86.17 -68,-182c-47.108,-95.83 -97.458,-126.738 -154,-150c-56.542,-23.262 -134.013,-62.755 -231,-87c-105.132,-26.282 -198.149,-14.203 -262,-10c-63.851,4.203 -121.993,-16.943 -153,-9c-31.007,7.943 -24.68,16.157 -26,65c-1.32,48.843 -3.494,111.211 -21,149c-18.351,39.613 -51.022,30.816 -36.142,27.694Z" style="fill:#f8f8f8;fill-opacity:0.05;stroke:#000;stroke-width:0.83px;"/><path id="L4" d="M619.5,342.5c-63.851,4.203 -15.646,3.886 82,9c39.452,2.066 184.967,36.082 220,48c42.48,14.451 152.895,50.95 204,96c12.783,11.268 91.881,96.149 128.235,169.4c17.463,35.187 43.649,105.382 47.765,128.224c8.604,47.753 11.861,58.195 20.845,120.242c1.97,13.607 1.583,23.147 0.144,76.134c-0.309,11.383 -4.365,12.179 16.074,17.376c21.744,5.529 22.261,-21.127 22.258,-32.721c-0.013,-50.325 -13.922,-137.563 -26.321,-202.655c-12.399,-65.092 -20.892,-86.17 -68,-182c-47.108,-95.83 -97.458,-126.738 -154,-150c-56.542,-23.262 -134.013,-62.755 -231,-87c-105.132,-26.282 -198.149,-14.203 -262,-10Z" style="fill:#f8f8f8;fill-opacity:0.05;stroke:#000;stroke-width:0.83px;"/><path id="L5" d="M590.558,345.417c21.125,1.941 13.296,0.969 110.942,6.083c39.452,2.066 184.967,36.082 220,48c42.48,14.451 152.895,50.95 204,96c12.783,11.268 91.881,96.149 128.235,169.4c17.463,35.187 43.649,105.382 47.765,128.224c8.604,47.753 11.861,58.195 20.845,120.242c1.97,13.607 1.583,23.147 0.144,76.134c-0.309,11.383 -8.801,15.224 -23.362,14.421c-26.401,-1.457 -20.306,-5.324 -20.306,-31.766c-0,-50.325 -8.961,-81.707 -26.321,-145.655c-17.399,-64.092 -26.892,-56.832 -74,-152.661c-47.108,-95.83 -84.458,-122.077 -141,-145.339c-56.542,-23.262 -108.013,-75.755 -202,-86c-66.299,-7.227 -167.927,-2.386 -223.249,-37.739c-42.388,-27.087 -77.886,-38.234 -94.567,-25.086c-9.682,7.631 -28.711,42.197 -34.239,109.703c-2.156,26.322 -26.533,57.524 -36.263,59.596c-20.756,4.42 -33.109,20.59 -20.139,-22.243c8.024,-26.498 11.301,-77.154 11.724,-82.967c6.281,-86.352 -11.026,-111.873 43.835,-112.062c40.036,-0.138 93.512,12.388 107.956,13.715Z" style="fill:#f8f8f8;fill-opacity:0.05;stroke:#000;stroke-width:0.83px;"/><path id="L6a" d="M560.602,410.702c36.036,24.862 52.252,39.684 149.898,44.798c39.452,2.066 144.067,14.243 175.966,33c36.48,21.451 135.929,55.95 187.034,101c12.783,11.268 48.881,40.149 85.235,113.4c17.463,35.187 49.199,90.282 56.765,112.224c10.604,30.753 29.861,61.195 38.845,123.242c0.886,6.12 7.926,39.918 9.204,49.744c1.76,13.533 15.272,31.595 15.272,-15.955c-0,-50.325 -8.961,-81.707 -26.321,-145.655c-17.399,-64.092 -26.892,-56.832 -74,-152.661c-47.108,-95.83 -84.458,-122.077 -141,-145.339c-56.542,-23.262 -108.013,-75.755 -202,-86c-66.299,-7.227 -167.927,-2.386 -223.249,-37.739c-42.388,-27.087 -77.886,-38.234 -94.567,-25.086c-9.682,7.631 -28.711,42.197 -34.239,109.703c-2.156,26.322 -0.372,47.186 12.598,4.353c8.024,-26.498 19.403,-114.184 64.559,-83.029Z" style="fill:#f8f8f8;fill-opacity:0.05;stroke:#000;stroke-width:0.83px;"/><path id="L6b" d="M560.602,410.702c36.036,24.862 52.252,39.684 149.898,44.798c39.452,2.066 144.067,14.243 175.966,33c36.48,21.451 135.929,55.95 187.034,101c12.783,11.268 48.881,40.149 85.235,113.4c17.463,35.187 49.199,90.282 56.765,112.224c10.604,30.753 29.861,61.195 38.845,123.242c0.886,6.12 7.926,39.918 9.204,49.744c1.76,13.533 -21.258,37.811 -30.941,-36.902c-7.399,-57.093 -20.857,-93.972 -67.965,-189.801c-47.108,-95.83 -93.913,-137.463 -145.455,-176.725c-29.493,-22.466 -75.725,-43.304 -115.967,-62.531c-26.12,-12.48 -40.661,-25.269 -77.261,-34.025c-64.861,-15.517 -120.934,-14.454 -183.257,-21.807c-49.956,-5.894 -90.592,-51.638 -107.273,-38.49c-16.681,13.149 -13.079,41.455 -31.481,69.961c-14.324,22.188 -20.876,38.774 -7.906,-4.059c8.024,-26.498 19.403,-114.184 64.559,-83.029Z" style="fill:#f8f8f8;fill-opacity:0.05;stroke:#000;stroke-width:0.83px;"/><path id="LM" d="M384.5,272.09c14.88,-3.122 100.682,-22.882 120,-24.59c16.315,-1.443 73.532,-60.004 106.198,-60.177c5.919,-0.031 58.25,9.985 44.694,23.854c-5.089,5.207 -30.85,-8.104 -49.277,-2.411c-46.206,14.276 -30.455,24.573 -75.014,54.324c-10.127,6.761 112.91,-17.763 121.7,-17.725c23.975,0.102 44.417,0.228 55.699,0.135c30.834,-0.253 79.904,8.874 121,9.59c41.096,0.715 236.52,52.959 268,72.41c31.48,19.451 141.895,53.95 217,90c34.083,16.359 12.026,66.323 29.165,99.555c26.378,51.147 45.823,90.427 59.835,113.445c11.366,18.67 -5.26,42.247 3.541,82.28c9.614,43.725 56.82,120.381 60.459,153.72c2.783,25.495 -5.231,82.429 -6,118.945c-0.685,32.559 -6.766,58.36 -1.701,94.13c4.87,34.391 21.951,47.073 19.503,83.583c-3.715,55.396 -27.824,78.71 -58.503,132.329c-47.232,82.55 -104.647,140.96 -148.468,168.083c-33.133,20.508 -75.73,53.802 -129.412,82.489c-31.717,16.95 -59.493,34.245 -112.612,41.059c-78.209,10.034 -23.012,17.458 -92.384,34.45c-24.267,5.944 -64.628,-42.178 -116.755,-37.296c-29.005,2.716 -53.128,-45.047 -77.637,-41.068c-42.13,6.839 -73.417,50.463 -61.931,79.988c11.164,28.699 7.477,28.495 -42.842,35.245c-64.948,8.712 -6.736,27.871 -59.935,31.729c-62.111,4.504 -124.245,-25.379 -158.639,-22.679c-27.379,2.149 -39.63,19.087 -67.684,43.013c-3.941,3.361 -24.613,-13.899 -24.95,-35.574c-0.234,-15.075 0.593,-32.803 60.395,-45.056c78.856,-16.156 73.418,70.187 185.705,38.734c37.932,-10.625 64.649,-19.679 80.018,-52.666c11.64,-24.981 17.431,-44.362 46.17,-60.525c10.805,-6.076 27.651,-14.199 31.144,-30.262c10.416,-47.892 40.425,37.64 82.66,40.629c131.65,9.32 102.693,57.014 147.358,29.737c35.055,-21.408 48.232,-23.849 114.291,-43.176c62.23,-18.206 110.236,-49.919 178.548,-96.502c57.861,-39.457 162.347,-182.033 197.662,-253.661c23.032,-46.716 -8.388,-79.281 -11,-112.622c-3.276,-41.808 4.045,-84.716 3.999,-96.058c-0.202,-50.325 6.8,-112.047 7,-130.998c0.2,-18.951 -49.601,-92.908 -62,-158c-12.399,-65.092 6.108,-55.17 -41,-151c-47.108,-95.83 -26.059,-78.96 -32,-101c-5.941,-22.04 -111.458,-64.738 -168,-88c-56.542,-23.262 -161.013,-64.755 -268,-82c-106.987,-17.245 -157.149,-22.203 -221,-18c-63.851,4.203 -216.993,16.057 -248,24c-31.007,7.943 -41.88,-13.289 -27,-16.41Z" style="fill:#f8f8f8;fill-opacity:0.05;stroke:#000;stroke-width:0.83px;"/><path id="cc" d="M397.5,677.5c12.151,-1.468 32.074,3.235 58,-11.177c25.926,-14.412 68.289,-50.032 86,-69.823c17.711,-19.791 46.889,-58.486 64,-72c17.111,-13.514 49.19,-31.314 134,-14c84.81,17.314 151.748,29.849 221.5,74c69.752,44.151 99.541,49.767 131.5,102c31.959,52.233 52.282,70.738 71,105.894c18.915,35.525 13.234,34.885 36,87.728c26.397,61.272 22.834,27.293 27.894,91.072c5.761,72.612 6.25,59.495 8.724,29.306c2.52,-30.744 -7.683,-97.348 -33.857,-157.759c-17.456,-40.288 -28.146,-64.754 -54.486,-110.182c-25.176,-43.419 -61.577,-98.906 -97.939,-126.292c-36.362,-27.386 -90.695,-60.555 -139.172,-80.928c-48.477,-20.374 -67.134,-35.775 -96.942,-39.518c-29.807,-3.743 -119.22,-17.939 -159.432,-17.544c-40.211,0.394 -70.328,-26.053 -84.28,-34.845c-13.953,-8.793 -41.736,-14.716 -45.358,8.045c-3.622,22.761 -22.183,67.587 -34.342,78.536c-12.158,10.949 -42.949,32.742 -86.088,47.797c-43.138,15.055 -41.572,14.769 -34.395,21.69c7.177,6.921 21.834,27 21.673,49c-0.161,22 -6.151,40.468 6,39Z" style="fill:#f8f8f8;fill-opacity:0.05;stroke:#000;stroke-width:0.83px;"/><path id="HPF" d="M401.5,679.127c15.358,-0.95 44.246,-5.011 55.454,-13.625c11.208,-8.613 59.089,-37.826 75.49,-59.584c16.401,-21.759 75.273,-88.982 92.381,-93.181c17.107,-4.2 46.111,-20.319 150.594,5.123c104.483,25.442 130.636,35.014 162.537,53.115c31.901,18.101 78.929,69.06 89.544,92.525c10.615,23.465 53.302,87.572 59,114c5.698,26.428 -0.97,95.844 -17,104c-16.03,8.156 -18.881,30.647 -76,22c-57.119,-8.647 -68.802,-28.023 -82.836,-47c-14.035,-18.977 -64.852,-76.956 -146.164,-82c-81.312,-5.044 -131.534,1.542 -175,-0c-43.466,-1.542 -101.461,-2.756 -134,-12c-32.539,-9.244 -55.673,-1.121 -59,2c-3.327,3.121 -10.358,-84.424 5,-85.373Z" style="fill:#f8f8f8;fill-opacity:0.05;stroke:#000;stroke-width:0.83px;"/><path id="TH" d="M382.5,882.5c5.779,-6.265 16.984,-20.791 23,-23c6.016,-2.209 27.649,2.643 35,-5c7.351,-7.643 24.706,-54.414 37,-56c12.294,-1.586 54.051,-9.297 74,-9.442c19.949,-0.145 32.463,-8.071 66,-6.558c33.537,1.513 93.105,1.016 114,3c20.895,1.984 63.633,-5.734 107,25c43.367,30.734 58.362,45.881 79,83c20.638,37.119 59.65,45.474 26,136c-21.755,58.526 -22.031,57.53 -52.059,88c-12.06,12.238 -45.529,68.477 -93.906,100.146c-55.346,36.231 -71.876,59.366 -99.693,91.663c-30.3,35.179 -46.741,48.187 -66.342,64.191c-36.311,29.647 -104.774,37.841 -128,20c-23.226,-17.841 -117.234,20.612 -133.673,9c-16.439,-11.612 0.562,-107.564 0,-130c-0.562,-22.436 9.981,-229.388 8.673,-247c-1.308,-17.612 -1.779,-136.735 4,-143Z" style="fill:#f8f8f8;fill-opacity:0.05;stroke:#000;stroke-width:0.83px;"/><path id="st" d="M974.5,1077.5c2.267,-2.8 11.619,-6.446 21,-9.588c9.381,-3.142 26.294,-10.992 27,-0.412c0.706,10.58 -1.777,50.174 -6,66c-4.223,15.826 -35.41,61.125 -42,66c-6.59,4.875 -3.984,-15.836 -3,-47c0.984,-31.164 0.733,-72.2 3,-75Z" style="fill:#f8f8f8;fill-opacity:0.05;stroke:#000;stroke-width:0.83px;"/><path id="CTXspl-OLF" serif:id="CTXspl+OLF" d="M1405.31,1019.34c15.418,3.489 34.925,-12.98 34.36,43.855c-0.565,56.835 10.637,50.773 16.637,80.111c6,29.337 0.362,65.261 -36.98,114.676c-37.342,49.414 -62.657,92.772 -97.593,131.891c-34.936,39.118 -79.828,78.428 -142.242,114.759c-62.413,36.331 -134.934,56.607 -158.684,63.756c-5.071,1.527 -31.979,9.747 -63.557,29.339c-28.276,17.544 -22.036,-1.08 -72.224,-19.819c-27.3,-10.194 -56.817,-6.592 -80.083,-13.896c-15.666,-4.918 -27.742,-19.135 -37.251,-29.393c-15.24,-16.441 -34.397,-41.416 -2.197,-82.693c78.26,-100.32 102.366,-128.428 123.22,-153.218c11.221,-13.339 44.583,-44.983 83.056,-54.064c32.957,-7.778 69.931,6.289 83.795,-7.645c28.828,-28.973 135.63,-120.184 174.695,-207.52c13.199,-29.508 72.435,-27.231 104.767,-23.227c32.332,4.004 54.863,9.599 70.281,13.088Z" style="fill:#f8f8f8;fill-opacity:0.05;stroke:#000;stroke-width:0.83px;"/><path id="CP" d="M998.543,607.135c0,-0 33.067,11.004 70.996,48.905c32.348,32.322 63.921,90.703 92.928,134.434c25.586,38.574 25.505,57.641 29.947,72.711c6.608,22.421 11.29,32.983 28.995,61.44c10.807,17.371 5.479,34.323 6.054,47.437c0.999,22.811 1.574,37.617 4.642,48.72c4.832,17.486 -105.849,156.258 -134.605,177.718c-28.427,21.215 -49.724,72.856 -106,29c-7.367,-5.741 48.237,-74.948 54,-89c5.763,-14.052 61.426,-139.318 63,-173c1.574,-33.682 11.631,-142.353 -5,-183.192c-16.631,-40.839 -94.176,-163.443 -104.957,-175.173Z" style="fill:#f8f8f8;fill-opacity:0.05;stroke:#000;stroke-width:0.83px;"/><path id="sp" d="M391.973,704.641l0,9.859c0,0 53.803,5.849 70.527,1c16.724,-4.849 36.613,-5.66 66,-31c29.387,-25.34 42.197,-50.39 50,-65c7.803,-14.61 41.832,-59.241 59,-64c17.168,-4.759 33.405,-11.861 82,1c48.595,12.861 100.021,25.544 147,56c46.979,30.456 78.139,43.582 110,99c31.861,55.418 32.157,70.244 29,90c-3.157,19.756 -30.431,49.111 -69,25c-38.569,-24.111 -100.301,-67.411 -115,-76c-8.29,-4.844 -22.797,-14.153 -34.115,-15.933c-8.75,-1.376 -15.196,4.556 -17.885,2.933c-6.168,-3.722 -3.638,21.422 2,24c5.638,2.578 25.988,2.359 46,15c20.012,12.641 40.737,14.21 86,53c45.263,38.79 60.867,33.184 71.658,35c10.792,1.816 49.977,-4.877 56.342,-43c6.365,-38.123 -18.286,-112.273 -56,-153c-37.714,-40.727 -100.479,-78.681 -143,-99c-42.963,-20.53 -154.463,-47.491 -192,-32c-37.537,15.491 -59.728,50.014 -70,71c-10.272,20.986 -31.83,48.248 -58,65c-26.17,16.752 -35.473,29.627 -120.527,31.141Z" style="fill:#f8f8f8;fill-opacity:0.05;stroke:#000;stroke-width:0.83px;"/><path id="sr" d="M391.973,736.641l0,-22.141c0,0 53.803,5.849 70.527,1c16.724,-4.849 36.613,-5.66 66,-31c29.387,-25.34 42.197,-50.39 50,-65c7.803,-14.61 41.832,-59.241 59,-64c17.168,-4.759 33.405,-11.861 82,1c48.595,12.861 100.021,25.544 147,56c46.979,30.456 78.139,43.582 110,99c31.861,55.418 32.157,70.244 29,90c-3.157,19.756 -30.431,49.111 -69,25c-38.569,-24.111 -100.301,-67.411 -115,-76c-14.699,-8.589 -21.832,-10.278 -28,-14c-6.168,-3.722 33.735,4.308 39.373,6.886c5.639,2.578 4.697,6.748 24.709,19.39c20.012,12.641 60.657,9.601 74.448,6.417c30.663,-7.079 7.348,-44.676 -7.808,-57.658c-48.714,-41.727 -84.5,-57.53 -127.021,-77.849c-42.963,-20.53 -99.301,-36.716 -139.838,-27.224c-22.356,5.234 -51.811,31.05 -66.083,49.035c-14.524,18.303 -42.61,44.251 -68.78,61.003c-26.17,16.752 -45.473,18.627 -130.527,20.141Z" style="fill:#f8f8f8;fill-opacity:0.05;stroke:#000;stroke-width:0.83px;"/><path id="so" d="M391.973,704.641l5.979,-23.378c0,-0 34.951,-6.807 51.675,-11.655c16.724,-4.849 18.889,-13.619 51.276,-34.959c32.402,-21.35 45.966,-41.068 53.768,-55.677c7.803,-14.61 60.309,-67.309 83.478,-70.068c17.69,-2.106 49.654,-12.188 98.249,0.673c48.595,12.861 152.283,31.677 183.262,51.761c46.978,30.456 75.222,45.148 107.083,100.566c54.283,94.418 61.363,96.749 61.391,153.505c0.003,6.081 -1.172,22.609 -5.698,42.602c-2.574,11.368 -11.634,22.15 -24.093,32.087c-6.73,5.368 -12.169,13.447 -25.843,13.921c-25.778,0.894 -58.645,0.078 -71.5,-7.958c-9.219,-5.763 -23.799,-9.968 -34.662,-20.208c-14.05,-13.245 -24.829,-33.381 -40.41,-46.698c-22.771,-19.461 -48.487,-33.721 -55.128,-37.602c-14.699,-8.589 -44.629,-11.697 -50.797,-15.418c-6.168,-3.722 -10.323,-16.117 -4.685,-13.539c5.639,2.578 22.17,1.263 42.182,13.904c20.012,12.641 40.737,14.21 86,53c45.263,38.79 60.867,33.184 71.658,35c10.792,1.816 49.977,-4.877 56.342,-43c6.365,-38.123 -18.286,-112.273 -56,-153c-37.714,-40.727 -100.479,-78.681 -143,-99c-42.963,-20.53 -154.463,-47.491 -192,-32c-37.537,15.491 -59.728,50.014 -70,71c-10.272,20.986 -31.83,48.248 -58,65c-26.17,16.752 -35.473,29.627 -120.527,31.141Z" style="fill:#f8f8f8;fill-opacity:0.05;stroke:#000;stroke-width:0.83px;"/><path id="slm" d="M838.5,730.5c0,0 28.701,6.808 35,7c6.299,0.192 20.451,-3.434 -12,-26c-32.451,-22.566 -84.272,-50.361 -121.26,-57c-36.987,-6.639 -72.642,-12.396 -110.74,13c-38.098,25.396 -64.93,56.552 -101,67c-36.07,10.448 -66.359,12.069 -81,11c-7.521,-0.549 -47.892,-7.68 -54.783,-4.121c-0.117,0.06 -0.744,-5.879 -0.744,-5.879c0,0 69.615,2.006 88.527,-3c18.912,-5.006 52.677,-11.951 90,-54c37.323,-42.049 64.013,-70.268 93,-73c28.987,-2.732 70.906,-1.688 127,25c56.094,26.688 63.211,29.576 83,44c19.789,14.424 52.458,33.125 62,50.624c9.542,17.499 23.378,39.132 -5,44.376c-28.378,5.244 -68.119,0.428 -85,-14c-16.881,-14.428 -12,-12 -12,-12l5,-13Z" style="fill:#f8f8f8;fill-opacity:0.05;stroke:#000;stroke-width:0.83px;"/><path id="po" d="M828.5,740.5l9.434,-8.528c-0,-0 -29.704,-17.242 -43.434,-18.472c-13.73,-1.23 -21.24,-1.945 -30,-12.665c-8.76,-10.719 -100.821,-32.369 -158,13.665c-15.929,12.824 -11.98,18.293 -10.569,21.712c2.788,6.751 13.573,5.636 17.569,4.288c3.974,-1.34 5.344,-7.488 22.292,-8.877c8.726,-0.715 20.256,2.566 35.708,4.877c42.019,6.284 50.299,1.133 73,16c22.701,14.867 10.668,14.842 16,16c5.332,1.158 16.637,-1.542 10.821,-7.09c-5.815,-5.548 -24.654,-37.366 -103.821,-43.91c-21.389,-1.768 -54.462,5.626 -31,-1c23.462,-6.626 33.745,-14.589 67,-11c39.289,4.24 67.638,19.138 85,25c21.142,7.139 40,10 40,10Z" style="fill:#f8f8f8;fill-opacity:0.05;stroke:#000;stroke-width:0.83px;"/><path id="mo" d="M788.5,730.5c21.142,7.139 -6.575,1.023 -21.542,7.306c-12.214,5.128 6.976,26.097 4.363,23.604c-5.815,-5.548 -24.654,-37.366 -103.821,-43.91c-21.389,-1.768 -54.462,5.626 -31,-1c23.462,-6.626 33.745,-14.589 67,-11c39.289,4.24 67.638,19.138 85,25Z" style="fill:#f8f8f8;fill-opacity:0.05;stroke:#000;stroke-width:0.83px;"/><path id="sg" d="M879.9,727.524c8.92,11.957 -7.323,12.409 -41.966,4.448c-0,-0 -29.704,-17.242 -43.434,-18.472c-13.73,-1.23 -21.24,-1.945 -30,-12.665c-8.76,-10.719 -100.821,-32.369 -158,13.665c-15.929,12.824 -11.98,18.293 -10.569,21.712c2.788,6.751 13.573,5.636 17.569,4.288c3.974,-1.34 5.344,-7.488 22.292,-8.877c8.726,-0.715 20.256,2.566 35.708,4.877c42.019,6.284 50.299,1.133 73,16c22.701,14.867 10.668,14.842 16,16c5.332,1.158 -12.459,5.674 -20.447,4.779c-13.815,-1.548 -104.324,2.49 -186.491,-0.054c-11.091,-0.343 -60.614,-1.365 -89.111,-8.871c-5.13,-1.351 -55.656,-10.955 -67.242,-0.399c-4.61,4.201 -4.956,-22.441 -4.474,-22.586c21.509,-6.448 38.911,9.349 89.903,2.633c36.886,-4.859 61.875,-12.227 77.878,-24.737c54.712,-42.77 89.61,-75.563 138.865,-70.247c39.289,4.241 64.898,11.927 97.843,25.437c23.999,9.841 90.437,51.772 82.676,53.069Z" style="fill:#f8f8f8;fill-opacity:0.05;stroke:#000;stroke-width:0.83px;"/></svg>