<?xml version="1.0" encoding="UTF-8" standalone="no"?><!DOCTYPE svg PUBLIC "-//W3C//DTD SVG 1.1//EN" "http://www.w3.org/Graphics/SVG/1.1/DTD/svg11.dtd"><svg width="100%" height="100%" viewBox="0 0 572 923" version="1.1" xmlns="http://www.w3.org/2000/svg" xmlns:xlink="http://www.w3.org/1999/xlink" xml:space="preserve" xmlns:serif="http://www.serif.com/" style="fill-rule:evenodd;clip-rule:evenodd;stroke-linecap:round;stroke-linejoin:round;stroke-miterlimit:1.5;"><rect id="image" x="1.411" y="1.042" width="568.256" height="920.609" style="fill:#fff;fill-opacity:0.15;stroke:#000;stroke-width:2.08px;"/><path id="LM" d="M569.667,669.045l-0,20.455c-154.499,97.331 -205.237,171.94 -548.658,231.355l-19.598,0.795l-0,-6c49.674,-8.944 234.892,-51.892 343.248,-103.815c48.439,-23.211 164.871,-96.931 225.008,-142.79Z" style="fill:#5d3599;fill-opacity:0.15;stroke:#000;stroke-width:2.08px;"/><path id="L1" d="M569.667,669.045l-0,-26.545c-286.499,181.331 -273.835,202.94 -568.256,261.355l-0,11.795c49.674,-8.944 234.892,-51.892 343.248,-103.815c48.439,-23.211 164.871,-96.931 225.008,-142.79Z" style="fill:#5d3599;fill-opacity:0.15;stroke:#000;stroke-width:2.08px;"/><path id="L2-3" serif:id="L2/3" d="M569.667,590.045l-0,52.455c-286.499,181.331 -273.835,202.94 -568.256,261.355l-0,-36.205c174.674,-30.944 337.119,-101.746 568.256,-277.605Z" style="fill:#5d3599;fill-opacity:0.15;stroke:#000;stroke-width:2.08px;"/><path id="L4" d="M569.667,590.045l-0,-45.545c-286.499,181.331 -273.835,204.94 -568.256,263.355l-0,59.795c174.674,-30.944 337.119,-101.746 568.256,-277.605Z" style="fill:#5d3599;fill-opacity:0.15;stroke:#000;stroke-width:2.08px;"/><path id="L5" d="M569.667,461.346l-0,83.154c-286.499,181.331 -273.835,204.94 -568.256,263.355l-0,-28.78c174.674,-30.944 337.119,-141.87 568.256,-317.729Z" style="fill:#5d3599;fill-opacity:0.15;stroke:#000;stroke-width:2.08px;"/><path id="L6a" d="M570.036,461.346l-0.369,-53.846c-286.499,181.331 -273.835,232.16 -568.256,290.575l0.369,81c174.674,-30.944 337.119,-141.87 568.256,-317.729Z" style="fill:#5d3599;fill-opacity:0.15;stroke:#000;stroke-width:2.08px;"/><path id="L6b" d="M570.036,177.346l-0.738,230.154c-286.499,181.331 -273.835,232.16 -568.256,290.575l0.369,-70.475c277.674,2.056 459.488,-273.395 568.625,-450.254Z" style="fill:#5d3599;fill-opacity:0.15;stroke:#000;stroke-width:2.08px;"/></svg>