<?xml version="1.0" encoding="UTF-8" standalone="no"?><!DOCTYPE svg PUBLIC "-//W3C//DTD SVG 1.1//EN" "http://www.w3.org/Graphics/SVG/1.1/DTD/svg11.dtd"><svg width="100%" height="100%" viewBox="0 0 4251 3394" version="1.1" xmlns="http://www.w3.org/2000/svg" xmlns:xlink="http://www.w3.org/1999/xlink" xml:space="preserve" xmlns:serif="http://www.serif.com/" style="fill-rule:evenodd;clip-rule:evenodd;stroke-linecap:round;stroke-linejoin:round;stroke-miterlimit:1.5;"><path id="image" d="M4241.27,4.167l-4237.1,5.799l4.625,3379.02l4237.1,-5.799l-4.625,-3379.02Z" style="fill:none;stroke:#000;stroke-width:8.33px;"/><path id="LM" d="M2656.66,182.709c-0,0 100.475,-29.688 186.334,7.881c85.86,37.57 162.287,88.922 198.387,103.163c36.1,14.242 56.282,20.405 71.572,32.581c15.29,12.175 98.534,91.465 125.082,106.679c26.548,15.215 112.199,45.161 152.837,74.436c40.638,29.275 345.736,333.829 369.579,359.941c-4.681,15.15 -8.11,24.433 -8.11,24.433c5.678,23.24 -336.835,-326.964 -374.582,-362.259c-25.539,-23.881 -94.806,-38.086 -161.872,-79.321c-67.066,-41.235 -106.05,-102.681 -127.287,-109.454c-21.237,-6.773 -96.393,-38.531 -132.998,-64.12c-36.605,-25.589 -128.374,-70.953 -150.927,-73.846c-22.552,-2.892 -89.685,-13.387 -158.116,10.313c2.916,-9.436 10.101,-30.427 10.101,-30.427Z" style="fill:#b5cdd6;fill-opacity:0.48;stroke:#000;stroke-width:8.33px;"/><path id="L1" d="M2630.06,262.837c0,-0 105.47,-56.832 191.329,-19.263c85.86,37.569 134.703,100.285 170.803,114.526c36.1,14.242 82.39,13.819 97.68,25.995c15.29,12.175 78.851,73.87 105.399,89.084c26.548,15.215 119.811,74.726 160.449,104.001c40.637,29.275 325.805,279.296 387.468,342.213c-4.681,15.15 9.152,-27.57 9.152,-27.57c5.678,23.24 -336.835,-326.964 -374.582,-362.259c-25.539,-23.881 -94.806,-38.086 -161.872,-79.321c-67.066,-41.235 -106.05,-102.681 -127.287,-109.454c-21.237,-6.773 -96.393,-38.531 -132.998,-64.12c-36.605,-25.589 -128.374,-70.953 -150.927,-73.846c-22.552,-2.892 -89.685,-13.387 -158.116,10.313c2.916,-9.436 -16.498,49.701 -16.498,49.701Z" style="fill:#b5cdd6;fill-opacity:0.48;stroke:#000;stroke-width:8.33px;"/><path id="L2-3" serif:id="L2/3" d="M2631.1,263.159c-0,-0 105.469,-56.832 191.328,-19.263c85.86,37.569 134.703,100.285 170.803,114.526c36.101,14.242 82.39,13.819 97.68,25.995c15.29,12.175 78.851,73.87 105.399,89.084c26.548,15.215 119.811,74.726 160.449,104.001c40.638,29.275 325.805,279.297 387.468,342.213c-4.681,15.151 -35.845,104.521 -35.845,104.521c-103.526,-80.626 -434.525,-380.789 -475.179,-412.691c-24.81,-19.469 -66.464,-55.295 -131.759,-102.263c-63.911,-45.972 -117.731,-64.87 -138.968,-71.644c-21.237,-6.773 -31.5,-75.799 -67.289,-107.416c-33.472,-29.569 -86.04,-58.919 -108.592,-61.812c-22.553,-2.893 -96.406,1.283 -164.837,24.983c2.916,-9.436 9.342,-30.234 9.342,-30.234Z" style="fill:#b5cdd6;fill-opacity:0.48;stroke:#000;stroke-width:8.33px;"/><path id="L4" d="M2599.71,354.258c0,-0 97.783,-65.807 183.642,-28.237c85.86,37.569 84.795,89.051 120.895,103.292c36.101,14.242 100.927,116.424 116.216,128.599c15.29,12.176 140.009,99.507 166.557,114.722c26.548,15.214 98.371,73.175 135.522,106.765c100.191,90.588 250.853,303.771 339.183,385.394c-4.682,15.15 45.615,-140.879 45.615,-140.879c-103.526,-80.626 -434.525,-380.789 -475.18,-412.691c-24.809,-19.469 -66.463,-55.295 -131.758,-102.263c-63.911,-45.972 -117.732,-64.87 -138.969,-71.644c-21.237,-6.773 -31.499,-75.799 -67.288,-107.416c-33.472,-29.569 -86.04,-58.919 -108.593,-61.812c-22.552,-2.893 -96.405,1.283 -164.836,24.983c2.915,-9.436 -21.006,61.187 -21.006,61.187Z" style="fill:#b5cdd6;fill-opacity:0.48;stroke:#000;stroke-width:8.33px;"/><path id="L5" d="M2599.71,354.258c0,-0 97.783,-65.807 183.642,-28.237c85.86,37.569 84.795,89.051 120.895,103.292c36.101,14.242 100.927,116.424 116.216,128.599c15.29,12.176 140.009,99.507 166.557,114.722c26.548,15.214 98.371,73.175 135.522,106.765c100.191,90.588 250.853,303.771 339.183,385.394c-4.682,15.15 -51.461,155.026 -51.461,155.026c-103.527,-80.627 -359.991,-451.304 -400.645,-483.206c-24.81,-19.468 -248.867,-193.252 -328.074,-225.679c-72.859,-29.827 -43.766,-104.024 -103.762,-128.004c-73.632,-29.432 -241.607,271.025 -300.49,240.109c2.916,-9.435 122.417,-368.781 122.417,-368.781Z" style="fill:#b5cdd6;fill-opacity:0.48;stroke:#000;stroke-width:8.33px;"/><path id="L6a" d="M2470.46,743.634c27.37,29.604 263.183,-212.993 292.686,-169.283c55.566,82.326 128.202,117.293 180.971,145.977c41.461,22.537 163.199,131.249 220.053,192.253c104.757,112.404 230.739,296.863 402.917,537.317c-4.681,15.15 43.18,-130.079 43.18,-130.079c-103.527,-80.627 -359.991,-451.304 -400.645,-483.206c-24.81,-19.468 -248.867,-193.252 -328.074,-225.679c-72.859,-29.827 -43.766,-104.024 -103.762,-128.004c-73.632,-29.432 -241.607,271.025 -300.49,240.109c2.916,-9.435 -6.836,20.595 -6.836,20.595Z" style="fill:#b5cdd6;fill-opacity:0.48;stroke:#000;stroke-width:8.33px;"/><path id="L6b" d="M2470.46,743.634c27.37,29.604 263.183,-212.993 292.686,-169.283c55.566,82.326 128.202,117.293 180.971,145.977c41.461,22.537 163.199,131.249 220.053,192.253c104.757,112.404 230.739,296.863 402.917,537.317c-4.681,15.15 -49.355,148.681 -49.355,148.681c-67.993,-161.752 -296.908,-537.738 -372.975,-626.555c-95.767,-111.818 -163.383,-168.436 -242.591,-200.862c-72.859,-29.828 -108.35,-67.757 -168.346,-91.738c-73.631,-29.431 -204.478,95.126 -263.36,64.21c2.915,-9.436 -0,0 -0,0Z" style="fill:#b5cdd6;fill-opacity:0.48;stroke:#000;stroke-width:8.33px;"/><path id="cc" d="M2439.05,838.263c113.836,-36.832 157.214,-52.386 222.476,-68.926c77.591,-19.664 164.22,10.888 216.989,39.572c41.461,22.537 107.014,72.689 166.822,130.8c111.305,108.147 122.832,151.531 153.541,216.397c4.389,9.272 12.959,9.488 38.765,56.013c11.352,20.467 -18.165,2.419 24.274,85.016c17.058,33.198 48.439,62.552 54.441,88.013c27.269,115.672 87.483,115.229 120.734,169.017c12.342,19.965 49.953,62.652 65.65,89.578c4.519,-14.625 14.992,-45.164 14.992,-45.164c-72.39,-174.624 -299.327,-538.485 -375.394,-627.302c-95.766,-111.818 -163.382,-168.436 -242.59,-200.862c-72.859,-29.828 -108.35,-67.758 -168.346,-91.738c-73.632,-29.432 -201.699,96.236 -260.581,65.321c2.915,-9.436 -31.773,94.265 -31.773,94.265Z" style="fill:#b5cdd6;fill-opacity:0.48;stroke:#000;stroke-width:8.33px;"/><path id="alv" d="M2439.05,838.263c113.836,-36.832 157.214,-52.386 222.476,-68.926c77.591,-19.664 164.22,10.888 216.989,39.572c41.461,22.537 107.014,72.689 166.822,130.8c111.305,108.147 137.213,162.993 141.629,234.624c1.608,26.079 12.191,28.518 44.006,130.007c10.368,33.073 -32.552,112.693 -83.516,130.893c-33.551,11.982 -46.937,17.11 -88.941,6.147c-19.828,-5.175 -96.025,-10.27 -167.536,-36.454c0.896,-2.9 71.492,3.498 149.84,15.353c69.137,10.462 116.823,-9.15 138.539,-37.529c29.907,-39.084 40.385,-105.281 1.014,-155.838c-32.428,-41.64 5.332,-96.163 -90.435,-207.981c-95.766,-111.818 -186.018,-176.476 -265.225,-208.903c-72.859,-29.827 -94.264,-19.465 -149.248,-14.665c-86.722,7.571 -194.116,80.473 -249.73,83.013c2.916,-9.436 13.316,-40.113 13.316,-40.113Z" style="fill:#b5cdd6;fill-opacity:0.48;stroke:#000;stroke-width:8.33px;"/><path id="so" d="M2400.78,953.548c109.472,-76.907 185.478,-71.331 250.739,-87.871c77.591,-19.664 134.322,-10.91 187.092,17.774c41.46,22.537 117.061,71.933 162.323,141.97c38.43,59.464 85.061,121.76 104.26,189.586c7.116,25.14 15.133,90.132 -21.484,115.005c-28.671,19.475 -39.777,21.325 -93.759,25.157c-42.289,3.001 -111.32,-8.288 -153.389,-19c-241.375,-61.46 -150.98,10.527 55.257,69.017c0.896,-2.9 71.492,3.497 149.841,15.353c69.137,10.461 116.822,-9.15 138.538,-37.529c29.908,-39.084 40.385,-105.281 1.014,-155.838c-32.427,-41.64 5.332,-96.163 -90.435,-207.981c-95.766,-111.818 -186.018,-176.476 -265.225,-208.903c-72.859,-29.827 -94.264,-19.465 -149.247,-14.665c-86.723,7.571 -194.958,80.213 -250.572,82.753c2.916,-9.436 -24.953,75.172 -24.953,75.172Z" style="fill:#b5cdd6;fill-opacity:0.48;stroke:#000;stroke-width:8.33px;"/><path id="sp1-2" serif:id="sp1/2" d="M2400.78,953.548c109.472,-76.907 185.478,-71.331 250.739,-87.871c77.591,-19.664 134.322,-10.91 187.092,17.774c41.46,22.537 117.061,71.933 162.323,141.97c24.131,37.339 45.278,57.852 27.893,69.666c-10.789,7.331 -13.663,18.442 -32.749,-9.911c-82.214,-122.128 -126.502,-145.528 -205.71,-177.954c-72.859,-29.828 -115.868,-13.698 -169.848,-2.191c-123.946,26.422 -144.388,33.651 -231.524,84.018c2.915,-9.436 11.784,-35.501 11.784,-35.501Z" style="fill:#b5cdd6;fill-opacity:0.48;stroke:#000;stroke-width:8.33px;"/><path id="sp3" d="M3017.18,1118.11c-7.041,-12.442 6.075,-19.093 13.504,-24.287c8.321,-5.818 12.199,-8.177 26.211,17.657c19.171,35.347 39.074,67.039 49.045,103.754c6.848,25.214 15.133,90.132 -21.484,115.005c-28.67,19.475 -39.777,21.325 -93.758,25.157c-42.29,3.001 -111.321,-8.288 -153.39,-19c-43.104,-10.976 -78.763,-8.061 -111.492,-22.563c-28.981,-12.842 -56.368,-43.417 -74.24,-49.478c-86.713,-29.409 -42.683,-63.174 -1.671,-56.968c69.137,10.462 149.49,73.94 182.725,87.068c83.053,32.809 213.239,16.159 223.271,-31.693c10.829,-51.654 -10.054,-93.997 -38.721,-144.652Z" style="fill:#b5cdd6;fill-opacity:0.48;stroke:#000;stroke-width:8.33px;"/><path id="slu" d="M2372.28,1039.4c137.885,-43.753 210.598,-45.982 266.9,-59.267c79.033,-18.649 102.376,-16.594 155.145,12.09c41.461,22.537 101.491,66.665 128.081,101.037c20.289,26.228 42.437,39.511 61.636,107.337c7.116,25.14 6.469,84.315 -84.506,68.32c-34.136,-6.002 -48.724,-11.504 -81.453,-26.006c-28.981,-12.842 -33.555,-22.521 -51.916,-26.881c-36.596,-8.691 -84.311,0.174 -45.832,15.659c40.163,16.162 78.313,49.408 111.548,62.536c83.053,32.809 213.239,16.159 223.27,-31.693c10.829,-51.654 -8.495,-102.222 -59.076,-177.359c-82.214,-122.128 -126.502,-145.528 -205.71,-177.954c-72.859,-29.828 -115.868,-13.698 -169.848,-2.191c-123.946,26.422 -144.388,33.651 -231.524,84.018c2.915,-9.436 -16.715,50.354 -16.715,50.354Z" style="fill:#b5cdd6;fill-opacity:0.48;stroke:#000;stroke-width:8.33px;"/><path id="slm" d="M2372.28,1039.4c42.053,-12.18 74.634,-22.203 105.164,-29.479c67.192,-16.014 116.862,-18.416 161.736,-29.788c77.59,-19.664 102.376,-16.594 155.145,12.09c41.461,22.537 101.491,66.665 128.081,101.037c20.289,26.228 42.437,39.511 61.636,107.337c7.116,25.14 6.469,84.315 -84.506,68.32c-34.136,-6.002 -48.724,-11.504 -81.453,-26.006c-28.981,-12.842 -33.555,-22.521 -51.916,-26.881c-36.596,-8.691 34.295,-35.624 72.861,-9.419c63.292,43.003 104.451,33.581 91.399,-0.425c-14.404,-37.529 -91.347,-94.472 -169.3,-129.807c-36.188,-16.404 -117.198,-6.746 -145.507,-6.448c-120.791,1.271 -142.696,2.892 -266.46,39.118c2.915,-9.436 23.12,-69.649 23.12,-69.649Z" style="fill:#b5cdd6;fill-opacity:0.48;stroke:#000;stroke-width:8.33px;"/><path id="mo" d="M2307.68,1234.01c42.054,-12.18 113.151,166.529 144.529,165.846c63.719,-1.387 43.611,1.864 88.484,-9.508c77.59,-19.664 78.782,-25.006 119.461,-28.242c33.63,-2.675 25.223,-35.399 -18.632,-54.192c-30.479,-13.061 -44.18,-15.511 -101.229,-5.783c-25.756,4.392 -72.978,-4.077 -111.496,-50.964c-22.001,-26.781 -67.84,-44.014 -69.612,-91.426c-0.506,-13.536 39.564,-53.1 95.268,-18.152c75.265,47.221 138.502,-7.782 189.933,-3.94c66.805,4.991 53.896,27.665 104.023,47.782c34.908,14.009 52.052,-5.018 90.618,21.187c63.292,43.003 104.451,33.581 91.399,-0.425c-14.404,-37.529 -91.347,-94.472 -169.3,-129.807c-36.188,-16.404 -117.198,-6.746 -145.507,-6.448c-120.791,1.271 -142.696,2.892 -266.46,39.118c2.915,-9.436 -41.479,124.954 -41.479,124.954Z" style="fill:#b5cdd6;fill-opacity:0.48;stroke:#000;stroke-width:8.33px;"/><path id="opt" d="M2475.75,1425.14c0.068,-8.407 -35.251,-24.96 -23.538,-25.287c35.013,-0.976 43.611,1.864 88.484,-9.508c77.59,-19.664 78.74,-25.599 119.461,-28.242c37.747,-2.45 66.901,-14.073 128.242,9.626c66.247,25.595 88.482,22.057 124.571,58.901c55.936,57.105 82.436,89.433 83.783,143.43c0.24,9.61 -3.92,74.233 23.205,128.061c13.394,26.58 29.741,55.823 38.497,75.057c5.382,11.823 -15.352,6.119 -46.166,-37.121c-13.171,-18.482 -13.293,-40.465 -25.639,-71.801c-8.835,-22.426 -9.997,-41.923 -10.602,-79.251c-0.809,-49.893 -27.312,-101.253 -68.512,-140.787c-44.102,-42.318 -63.228,-28.218 -141.181,-63.553c-36.188,-16.404 -80.909,-8.598 -108.749,-3.464c-88.828,16.38 -181.856,43.939 -181.856,43.939Z" style="fill:#b5cdd6;fill-opacity:0.48;stroke:#000;stroke-width:8.33px;"/><path id="LD" d="M2533.8,1410.14c0.069,-8.406 79.767,95.288 95.987,171.946c7.83,37.008 55.699,27.764 161.652,70.362c27.615,11.103 114.451,15.726 140.615,-5.482c19.462,-15.777 44.6,-20.631 43.995,-57.959c-0.809,-49.893 -27.312,-101.253 -68.512,-140.787c-44.102,-42.318 -63.228,-28.218 -141.181,-63.553c-36.188,-16.404 -80.909,-8.598 -108.749,-3.464c-88.828,16.38 -123.807,28.937 -123.807,28.937Z" style="fill:#b5cdd6;fill-opacity:0.48;stroke:#000;stroke-width:8.33px;"/><path id="CL" d="M2533.65,1410.58c0.068,-8.406 107.078,126.112 99.101,209.946c-1.811,19.031 -3.1,117.04 -22.536,127.637c-76.93,41.944 -35.906,-95.161 -53.357,-162.967c-11.085,-43.071 -80.733,-99.418 -74.941,-150.202c2.642,-23.159 51.733,-24.414 51.733,-24.414Z" style="fill:#b5cdd6;fill-opacity:0.48;stroke:#000;stroke-width:8.33px;"/><path id="VPL" d="M2878.27,2173.39c15.8,-22.222 41.228,-45.095 68.68,-79.947c50.071,-63.569 74.542,-129.218 44.397,-186.868c-16.827,-32.181 -63.985,-124.623 -95.614,-180.067c-9.93,-17.406 -84.312,39.327 -50.951,60.148c22.927,14.31 80.725,93.129 79.664,103.242c-4.267,40.669 6.476,88.088 -30.85,136.16c-39.968,51.477 -86.277,68.099 -113.064,114.888c32.306,9.982 97.738,32.444 97.738,32.444Z" style="fill:#b5cdd6;fill-opacity:0.48;stroke:#000;stroke-width:8.33px;"/><path id="VPM" d="M2657.03,2099.95c-2.591,4.683 -33.866,-60.362 -14.44,-78.504c29.049,-27.128 4.047,-5.264 75.562,-68.821c49.046,-43.588 -5.319,-135.979 54.768,-150.156c4.753,-1.122 1.969,7.128 25.809,-2.103c28.156,-10.901 42.188,-27.425 64.44,1.279c5.116,6.599 62.336,78.14 61.275,88.253c-4.267,40.669 6.476,88.088 -30.85,136.16c-39.968,51.477 -86.277,68.099 -113.064,114.888c32.306,9.982 -123.5,-40.996 -123.5,-40.996Z" style="fill:#b5cdd6;fill-opacity:0.48;stroke:#000;stroke-width:8.33px;"/><path id="PCN" d="M2588.09,1793.82c6.236,-1.247 -75.147,102.396 -138.197,108.838c-14.312,1.462 -87.07,15.592 -97.225,1.278c-40.194,-56.657 66.237,-44.223 114.398,-69.057c30.592,-15.775 64.074,-81.684 102.381,-84.798c17.47,-1.42 18.643,43.739 18.643,43.739Z" style="fill:#b5cdd6;fill-opacity:0.48;stroke:#000;stroke-width:8.33px;"/><path id="m-c" serif:id="m/c" d="M2412.63,1522.01c22.02,7.807 61.34,198.658 -24.298,213.522c-14.235,2.47 -48.781,159.481 -63.393,151.622c-30.658,-16.49 -162.152,-58.08 -169.042,-63.244c7.727,-4.33 24.258,-66.116 38.08,-102.038c19.042,-49.492 36.586,-80.426 51.852,-120.719c24.864,-65.628 39.872,-86 40.708,-103.818c0.414,-8.833 20.015,8.218 45.132,15.512c54.292,15.767 80.961,9.163 80.961,9.163Z" style="fill:#b5cdd6;fill-opacity:0.48;stroke:#000;stroke-width:8.33px;"/><path id="I" d="M2412.63,1522.01c22.02,7.807 61.34,198.658 -24.298,213.522c-14.235,2.47 -33.874,103.726 -48.5,129.524c16.772,-2.473 83.039,-19.281 123.205,-28.249c13.822,-3.087 35.086,-31.185 57.394,-54.612c15.271,-16.037 46.572,-29.588 42.487,-55.596c-4.71,-29.987 3.497,-56.421 -3.56,-128.821c6.71,-11.74 -42.088,-83.093 -56.509,-99.987c-26.594,-49.57 -20.529,16.641 -90.219,24.219Z" style="fill:#b5cdd6;fill-opacity:0.48;stroke:#000;stroke-width:8.33px;"/><path id="VAL" d="M2362.26,2002.1c12.916,-33.175 14.61,-62.554 13.843,-88.815c50.321,-3.535 84.112,-7.595 126.204,-32.954c38.704,-23.318 69.45,-59.318 88.229,-90.483c13.379,-22.204 14.052,-68.857 58.985,-47.907c13.734,6.404 68.513,42.686 103.193,54.283c-15.832,17.142 -7.757,101.064 -17.801,131.547c-11.838,35.926 -92.793,81.862 -97.221,101.898c-4.957,22.428 6.844,50.846 17.854,69.787c-52.184,-16.124 -293.286,-97.356 -293.286,-97.356Z" style="fill:#b5cdd6;fill-opacity:0.48;stroke:#000;stroke-width:8.33px;"/><path id="IMD" d="M2116.82,1808.98c12.026,-38.922 24.262,-63.745 65.985,-198.781c103.137,-41.798 47.042,23.884 17.279,96.07c-27.044,65.591 -26.814,108.786 -47.033,119.459c-18.79,-5.805 -36.231,-16.748 -36.231,-16.748Z" style="fill:#b5cdd6;fill-opacity:0.48;stroke:#000;stroke-width:8.33px;"/><path id="CM" d="M2361.96,2002c-38.923,-12.026 -143.484,-50.732 -278.519,-92.454c7.493,-24.251 28.096,-83.455 32.576,-97.954c29.621,11.239 54.412,21.711 109.3,38.237c69.568,20.946 136.59,48.594 147.268,74.813c11.233,27.578 -10.625,77.358 -10.625,77.358Z" style="fill:#b5cdd6;fill-opacity:0.48;stroke:#000;stroke-width:8.33px;"/><path id="PVT" d="M2182.8,1610.2c12.026,-38.922 30.857,-89.59 45.892,-138.249c38.737,-7.853 35.429,-4.671 52.919,13.398c11.757,12.147 -12.912,63.427 -27.736,89.768c-9.678,17.197 -9.35,4.402 -71.075,35.083Z" style="fill:#b5cdd6;fill-opacity:0.48;stroke:#000;stroke-width:8.33px;"/><path id="RT" d="M2978.14,1633.17c0,-0 -37.382,4.273 -64.117,24.782c-26.596,20.404 -21.53,67.021 -0.939,99.74c14.773,23.475 61.575,113.842 73.204,137.648c37.362,76.489 10.356,141.814 -52.385,213.579c-73.743,84.35 -55.124,64.635 -55.124,64.635l93.017,30.876c-0,0 90.646,-85.957 119.327,-124.194c15.687,-20.914 41.005,-89.757 22.481,-124.243c-9.876,-18.384 -89.451,-131.347 -117.905,-172.962c-13.885,-20.308 14.61,-29.408 10.029,-52.785c-4.581,-23.377 -27.588,-97.076 -27.588,-97.076Z" style="fill:none;stroke:#000;stroke-width:8.33px;"/><path id="sg" d="M2441.69,1192.24c-4.695,-1.175 13.9,43.925 63.195,64.965c22.713,9.695 52.418,-2.485 66.996,-1.667c98.074,5.504 161.048,105.077 120.188,104.907c-33.737,-0.141 23.435,-16.065 -50.543,-52.539c-29.742,-14.663 -44.18,-15.511 -101.229,-5.783c-25.756,4.392 -72.978,-4.077 -111.496,-50.964c-22.001,-26.781 -67.84,-44.014 -69.612,-91.426c-0.506,-13.536 39.564,-53.1 95.268,-18.152c75.265,47.221 138.502,-7.782 189.933,-3.94c66.805,4.991 53.896,27.665 104.023,47.782c34.908,14.009 3.486,30.216 -42.079,13.679c-71.928,-26.105 -97.468,-5.516 -134.164,-2.087c-41.448,3.874 -45.468,16.513 -130.48,-4.775Z" style="fill:#b5cdd6;fill-opacity:0.48;stroke:#000;stroke-width:8.33px;"/><path id="po" d="M2441.69,1192.24c-4.695,-1.175 13.9,43.925 63.195,64.965c22.713,9.695 52.418,-2.485 66.996,-1.667c38.44,2.157 92.372,29.507 104.184,43.772c30.174,36.438 34.516,0.864 -11.665,-27.75c-20.099,-12.454 -70.525,-24.96 -62.777,-48.125c5.009,-14.977 38.057,-21.842 56.586,-14.628c35.05,13.646 93.69,6.832 48.125,-9.705c-71.928,-26.105 -97.468,-5.516 -134.164,-2.087c-41.448,3.874 -45.468,16.513 -130.48,-4.775Z" style="fill:#b5cdd6;fill-opacity:0.48;stroke:#000;stroke-width:8.33px;"/><path id="fov" d="M3877.55,514.621l-1198.96,-397.993l-595.157,1792.91l1198.96,397.993l595.158,-1792.91Z" style="fill:none;stroke:#000;stroke-width:12.5px;"/><path id="fi" d="M3218.95,1267.56c9.571,17.986 15.125,37.257 12.616,59.103l-6.566,22.925l-17.058,32.561l-11.875,16.042l-23.718,23.105l-21.653,12.695l-19.776,7.024l-21.36,5.451l-24.656,0.204l-47.063,-8.928l-51.303,-8.038l-68.531,-15.837l-27.025,-8.941l40.666,45.061l28.63,32.487l23.248,35.699l11.881,38.898l1.571,38.998l1.15,21.9l2.322,22.095l5.537,30.048l25.16,57.631l17.198,28.631c32.688,49.291 70.214,49.043 108.653,39.452l13.364,-15.757c-0,-0 12.613,-7.614 14.363,-22.775c1.75,-15.161 13.011,-111.311 -9.309,-149.407c-19.658,-33.554 -13.841,-21.414 -18.075,-38.031c-4.234,-16.616 19.763,-28.685 38.618,-59.24c18.855,-30.554 35.139,-91.503 38.289,-103.3c3.151,-11.797 20.685,-75.956 19.277,-83.009c-10.953,-54.869 -34.575,-56.747 -34.575,-56.747Z" style="fill:none;stroke:#000;stroke-width:8.33px;"/><path id="int" d="M3232.32,1837.61c-13.795,5.841 41.11,32.359 20.457,100.676c-2.892,9.568 -44.642,40.621 -86.479,44.236c-39.288,3.395 -67.315,-44.35 -54.727,-30.047c31.825,65.562 -20.032,150.783 -139.777,251.953l114.224,37.917c63.384,-115.741 134.561,-55.47 181.448,-101.946c32.225,-31.943 26.985,-117.386 41.011,-155.059c18.834,-50.588 51.252,-52.676 54.386,-81.728c5.373,-49.81 -64.406,-94.008 -130.543,-66.002Z" style="fill:none;stroke:#000;stroke-width:8.33px;"/><path id="st" d="M3141.85,1799.04c-22.711,12.627 -36.774,10.305 -77.136,-8.975c-66.878,-51.957 -100.92,-39.834 -37.549,37.699c14.125,17.281 61.605,98.813 84.403,124.716c31.825,65.562 136.946,8.026 143.108,-20.537c15.915,-73.766 -41.573,-104.382 -58.124,-111.332l-28.384,-8.05l-26.318,-13.521Z" style="fill:none;stroke:#000;stroke-width:8.33px;"/><path id="GPe" d="M3261.35,2300.55c-0,-0 27.067,-44.533 -3.162,-117.025c-10.804,-25.908 -11.901,-27.443 -19.303,-26.416c-13.573,1.882 -28.968,8.027 -37.065,5.9c-12.601,-3.31 -69.861,11.308 -85.824,37.091c-15.963,25.782 -29.976,42.249 -29.976,42.249l175.33,58.201Z" style="fill:none;stroke:#000;stroke-width:8.33px;"/><path id="CP" d="M3502.74,1643.74c0,0 -67.616,-95.29 -81.918,-110.372c-14.302,-15.083 -67.234,-49.706 -78.748,-41.452c-11.515,8.254 -17.303,24.187 -19.301,43.104c-1.999,18.917 -7.028,49.196 -44.738,95.643c-37.71,46.446 -37.672,85.821 -36.196,104.49c1.475,18.67 2.722,46.387 -1.296,60.805c-4.018,14.417 -8.957,33.474 4.381,36.127c15.388,3.061 6.249,-12.603 60.428,2.251c54.179,14.853 55.135,44.242 57.613,68.238c2.478,23.996 -31.379,23.34 -53.963,81.381c-9.148,23.51 -2.72,27.109 -20.013,111.716c-3.952,19.337 -34.916,63.861 -31.684,83.865c3.232,20.005 31.097,57.846 4.044,121.011c8.551,2.642 21.045,6.986 21.045,6.986l220.346,-663.793Z" style="fill:none;stroke:#000;stroke-width:8.33px;"/><path id="MH" d="M2283.9,1304.27c-0,0 20.837,8.842 45.086,34.281c43.496,45.634 59.047,69.394 44.895,68.825c-27.111,-1.09 -43.601,-8.07 -57.844,21.223c-14.242,29.292 -77.18,44.765 -87.086,42.576c19.761,-63.955 54.949,-166.905 54.949,-166.905Z" style="fill:none;stroke:#000;stroke-width:8.33px;"/><path id="sm" d="M2308.48,1231.6c-0,-0 30.778,8.617 44.258,34.187c13.479,25.569 77.887,123.627 88.232,131.092c37.174,26.825 51.527,57.255 19.797,71.959c-56.913,26.374 -53.727,-5.134 -72.248,-49.564c-25.103,-60.22 -94.714,-112.81 -104.619,-115c19.76,-63.954 24.58,-72.674 24.58,-72.674Z" style="fill:none;stroke:#000;stroke-width:8.33px;"/><path id="LH" d="M2264.69,1464.42c34.12,42.007 60.203,49.759 110.611,57.432c28.576,4.35 61.64,-2.708 72.15,-9.94c24.506,-16.863 44.322,-63.535 -19.139,-32.904c-31.494,15.201 -27.174,-70.501 -54.285,-71.591c-27.111,-1.09 -44.197,-8.352 -57.843,21.223c-9.38,20.329 -41.589,37.97 -51.494,35.78Z" style="fill:none;stroke:#000;stroke-width:8.33px;"/><path id="LM1" serif:id="LM" d="M3199.87,1157.98l-13.128,3.35c0,-0 2.377,36.52 11.852,49.714c9.476,13.194 12.307,44.1 27.8,55.689c15.493,11.588 25.736,41.968 27.125,57.573c1.388,15.605 -17.951,81.142 -27.082,110.455c-9.131,29.312 -24.654,72.435 -35.129,82.9c-10.476,10.464 -31.882,32.988 -33.44,42.719c-4.09,25.536 9.941,25.115 24.434,64.282c6.997,18.911 6.404,92.297 5.013,106.062c-1.39,13.766 -1.466,36.062 -10.181,43.354c-8.716,7.292 -21.965,14.823 -20.142,21.747c1.823,6.923 12.379,15.039 15.988,16.385c3.609,1.347 19.953,-1.226 19.265,-14.913c-0.688,-13.686 11.303,-104.643 11.391,-94.453c0.088,10.191 1.467,-73.525 -12.193,-99.424c-13.66,-25.899 -14.898,-32.652 -12.021,-39.3c5.299,-12.25 16.46,-18.131 32.546,-33.903c16.086,-15.772 51.523,-128.967 55.467,-152.419c3.944,-23.451 9.915,-25.065 7.917,-42.559c-1.998,-17.495 -25.9,-64.09 -32.77,-80.251c-6.869,-16.161 -4.942,-42.87 -4.942,-42.87l-37.77,-54.138Z" style="fill:none;stroke:#000;stroke-width:8.33px;"/><path id="LM2" serif:id="LM" d="M3287.26,1335.87l-11.516,6.329c-0,0 6.545,15.708 9.127,23.2c2.583,7.491 8.539,68.276 14.819,73.988c6.28,5.712 9.677,39.464 7.533,50.142c-2.144,10.678 0.164,49.085 -26.343,81.872c-26.507,32.788 -47.483,75.953 -49.393,101.963c-1.909,26.011 -9.941,63.997 -4.42,82.366c5.52,18.369 -9.246,53.932 -12.501,64.17c-3.255,10.237 10.815,21.553 15.739,10.034c4.925,-11.52 16.661,-50.045 13.299,-70.141c-3.362,-20.096 -2.883,-68.653 9.666,-92.258c12.55,-23.605 49.491,-65.799 60.546,-94.331c11.055,-28.531 17.78,-105.945 13.582,-125.256c-4.199,-19.311 -7.099,-54.793 -12.99,-69.079c-5.892,-14.286 -27.148,-42.999 -27.148,-42.999Z" style="fill:none;stroke:#000;stroke-width:8.33px;"/><path id="PO" d="M2650.15,1606.59c21.587,11.72 79.744,23.462 138.129,43.459c59.562,20.401 102.62,-3.026 107.554,21.121c4.935,24.147 1.352,32.67 -34.7,61.497c-36.053,28.826 -40.867,77.733 -86.932,69.431c-46.065,-8.302 -119.28,-61.793 -137.776,-65.596c-18.496,-3.802 -11.326,-10.88 -7.606,-44.846c6.025,-55.013 3.102,-94.961 21.331,-85.066Z" style="fill:none;stroke:#000;stroke-width:8.33px;"/></svg>