<?xml version="1.0" encoding="UTF-8" standalone="no"?><!DOCTYPE svg PUBLIC "-//W3C//DTD SVG 1.1//EN" "http://www.w3.org/Graphics/SVG/1.1/DTD/svg11.dtd"><svg width="100%" height="100%" viewBox="0 0 641 888" version="1.1" xmlns="http://www.w3.org/2000/svg" xmlns:xlink="http://www.w3.org/1999/xlink" xml:space="preserve" xmlns:serif="http://www.serif.com/" style="fill-rule:evenodd;clip-rule:evenodd;stroke-linecap:round;stroke-linejoin:round;stroke-miterlimit:1.5;"><rect id="image" x="1.042" y="1.631" width="635.182" height="881.921" style="fill:#e7e7e7;fill-opacity:0.03;stroke:#000;stroke-width:2.08px;"/><path id="_-" serif:id="?" d="M259.677,883.553c0,-0 -4.079,-7.461 -3.618,-13.552c0.461,-6.091 -5.486,-8.515 -12.084,-13.729c-6.598,-5.214 -15.29,-11.921 -22.976,-15.225c-7.685,-3.304 -17.633,-7.699 -21.984,-4.727c-4.351,2.972 1.445,5.304 -3.066,4.941c-4.511,-0.363 -28.446,-3.385 -30.671,-6.884c-2.224,-3.499 -7.036,-9.487 -8.733,-14.048c-1.698,-4.56 2.697,-15.16 4.244,-16.321c1.548,-1.16 6.665,-8.146 11.335,-8.376c4.67,-0.23 14.785,0.152 6.618,-2.505c-8.167,-2.657 1.66,-4.166 -7.709,-5.23c-9.369,-1.065 6,4.581 -6.584,6.217c-12.584,1.636 -12.748,0.153 -14.926,-0.226c-2.178,-0.378 -6.329,1.729 -10.304,-3.719c-3.975,-5.449 -1.75,-2.912 0.484,-5.883c2.234,-2.971 2.021,4.219 -8.895,-6.756c-10.916,-10.975 -3.903,-0.205 -12.551,-5.909c-8.649,-5.704 -6.226,-3.745 -2.424,-6.509c3.802,-2.765 7.581,-14.522 10.728,-14.75c3.147,-0.227 0.734,3.747 4.908,2.761c4.175,-0.986 3.25,-4.501 5.501,-2.308c2.251,2.193 0.261,4.612 3.706,8.617c3.444,4.005 7.048,15.684 11.979,16.884c4.93,1.2 7.771,1.186 9.64,0.844c1.868,-0.343 8.287,-4.011 13.37,-4.012c5.082,-0.001 3.481,2.199 6.459,3.698c2.977,1.498 9.73,1.53 11.533,2.508c1.803,0.977 9.425,1.637 10.066,3.664c0.641,2.026 3.213,8.359 0.256,12.098c-2.956,3.74 -13.215,9.623 -17.036,12.786c-3.821,3.162 -11.263,2.765 -11.278,6.131c-0.015,3.366 9.854,3.452 12.313,4.651c2.459,1.199 2.685,4.722 5.81,5.992c3.125,1.269 8.471,0.191 14.376,-2.994c5.905,-3.185 4.987,-4.936 13.774,-3.371c8.786,1.564 10.768,-5.51 18.783,-4.625c8.015,0.885 8.803,5.577 15.338,5.781c6.535,0.203 0.534,5.128 1.944,6.804c1.411,1.675 3.581,2.883 6.548,2.245c2.968,-0.639 -0.896,-5.787 0.848,-7.777c1.744,-1.989 5.623,-3.881 6.024,-7.262c0.401,-3.381 7.684,0.891 6.793,-3.729c-0.891,-4.62 -4.452,-7.247 -6.229,-5.221c-1.776,2.026 1.985,4.488 -1.558,5.427c-3.543,0.938 -2.858,3.699 -7.211,2.24c-4.353,-1.46 -6.149,-5.329 -4.717,-12.769c1.432,-7.441 7.297,-9.515 10.437,-9.996c3.14,-0.481 5.673,-2.854 6.767,-1.754c1.094,1.1 11.222,11.19 11.222,11.19c-0,-0 -0.978,5.021 0.022,6.377c0.999,1.357 4.287,4.108 3.974,5.917c-0.313,1.81 -5.203,8.96 -10.39,12.178c-5.186,3.217 -6.87,2.288 -8.307,4.812c-1.436,2.524 3.766,4.046 4.178,5.836c0.411,1.79 0.263,4.006 1.344,4.464c1.081,0.459 8.543,6.565 9.294,7.737c0.751,1.172 4.133,3.847 4.734,5.639c0.601,1.792 0.708,3.183 0.774,8.042c0.065,4.858 -0.318,5.679 0.624,6.185c0.942,0.505 4.163,-1.742 4.545,2.328c0.383,4.069 -2.193,13.265 -2.636,13.763c-0.442,0.499 -1.038,1.41 -1.038,1.41l7,-0c0,-0 -0.835,-6.787 0.437,-8.144c1.272,-1.358 3.703,-0.113 3.414,-3.124c-0.289,-3.011 1.232,-11.274 -0.547,-13.431c-1.779,-2.157 2.437,-4.178 -7.857,-7.23c-10.294,-3.053 2.137,-9.125 5.351,-9.766c3.214,-0.641 3.893,-0.017 6.098,3.001c2.204,3.019 6.344,15.047 8.439,20.408c2.095,5.36 6.098,7.11 7.243,10.113c1.145,3.002 2.597,8.173 2.597,8.173l-66.543,-0Z" style="fill:#e7e7e7;fill-opacity:0.03;stroke:#000;stroke-width:2.08px;"/><path id="LM" d="M1.042,136.988l-0,-11.656c62.087,-49.816 122.546,-92.774 181.395,-123.701l14.864,0c-69.395,37.501 -134.779,82.854 -196.259,135.357Z" style="fill:#e7e7e7;fill-opacity:0.03;stroke:#000;stroke-width:2.08px;"/><path id="L1" d="M1.042,136.988l-0,34.72c78.922,-67.357 164.948,-124.149 258.278,-170.077l-62.019,0c-72.86,40.408 -137.868,85.787 -196.259,135.357Z" style="fill:#e7e7e7;fill-opacity:0.03;stroke:#000;stroke-width:2.08px;"/><path id="L2-3" serif:id="L2/3" d="M1.042,171.708l-0,68.698c140.602,-130.923 338.851,-248.739 415.526,-238.775l-157.248,0c-98.999,49.073 -184.26,106.256 -258.278,170.077Z" style="fill:#e7e7e7;fill-opacity:0.03;stroke:#000;stroke-width:2.08px;"/><path id="L4" d="M1.042,240.406l-0,37.712c193.526,-186.516 322.899,-237.661 635.181,-276.487l-219.655,0c-105.998,-2.415 -302.447,134.482 -415.526,238.775Z" style="fill:#e7e7e7;fill-opacity:0.03;stroke:#000;stroke-width:2.08px;"/><path id="L5" d="M1.042,278.118l-0,184.501c106.181,-271.231 340.027,-399.418 635.181,-408.773l0,-52.215c-315.464,37.892 -443.802,94.554 -635.181,276.487Z" style="fill:#e7e7e7;fill-opacity:0.03;stroke:#000;stroke-width:2.08px;"/><path id="L6a" d="M1.042,462.619l-0,219.721c5.741,6.224 27.62,-10.479 27.74,-34.955c0.108,-22.131 -21.464,-51.232 -18.544,-64.385c77.45,-348.875 346.83,-500.738 625.985,-472.61l0,-56.544c-162.01,1.965 -500.045,57.985 -635.181,408.773Z" style="fill:#e7e7e7;fill-opacity:0.03;stroke:#000;stroke-width:2.08px;"/><path id="L6b" d="M10.238,583c7.493,1.528 0.395,9.021 3.978,13.776c3.167,4.203 13.437,45.054 21.99,47.242l5.581,-35.069c6.792,-58.555 -2.097,-58.842 7.663,-89.068c30.151,-93.381 96.392,-233.702 216.592,-309.248c93.232,-58.597 178.678,-81.747 250.789,-89.623c24.007,-2.621 62.011,11.112 74.867,22.863c19.347,17.684 35.705,54.571 44.344,55.393l-0,-14.876c-32.905,-54.379 -70.627,-77.94 -104.397,-75.832c-266.03,16.61 -461.673,198.902 -521.407,474.442Z" style="fill:#e7e7e7;fill-opacity:0.03;stroke:#000;stroke-width:2.08px;"/><path id="ec" d="M251.969,883.553c0,-0 -6.801,-10.087 -13.289,-15.198c-6.488,-5.111 -23.555,-18.029 -30.509,-19.617c-6.953,-1.588 -38.216,0.167 -45.346,-6.27c-7.131,-6.438 -8.442,-16.384 -13.124,-24.643c-4.485,-7.912 -19.104,-21.023 -29.66,-33.496c-7.662,-9.053 -26.185,-13.236 -44.049,-14.363c-17.863,-1.127 -24.306,-27.978 -33.835,-48.815c-9.528,-20.837 -7.019,-44.372 -6.598,-66.525c0.395,-20.764 6.6,-42.619 6.903,-51.848c0.303,-9.23 2.121,-34.268 2.354,-41.972c0.232,-7.705 0.766,19.103 7.875,33.366c1.294,2.596 -3.446,-2.145 -3.343,6.863c0.104,9.008 -10.189,71.335 -5.942,91.868c4.246,20.532 16.91,53.765 24.641,64.294c7.726,10.524 26.053,5.126 42.885,10.624c8.972,2.931 14.248,10.462 20.137,16.117c15.797,15.169 20.587,26.042 23.365,31.882c5.703,11.986 7.416,17.641 14.428,20.669c7.011,3.027 36.073,4.932 45.443,8.413c23.737,8.819 38.899,30.243 44.545,37.267c0.834,1.036 1.106,1.398 0.796,1.384c-1.967,-0.087 -7.677,-0 -7.677,-0Z" style="fill:#e7e7e7;fill-opacity:0.03;stroke:#000;stroke-width:2.08px;"/><path id="sg" d="M458.869,409.663c0,-0 2.127,9.15 9.211,6.38c7.084,-2.77 -0.682,-12.118 6.244,-18.867c6.926,-6.748 10.656,-23.882 70.911,-27.915c60.256,-4.033 66.814,3.917 75.747,-0.046c8.933,-3.963 9.57,-6.059 8.49,-12.886c-1.081,-6.827 -12.85,-18.363 -56.198,-24.248c-33.871,-4.598 -63.187,-19.151 -94.301,-10.215c-40.926,11.754 -77.413,27.2 -105.396,47.132c-26.38,18.79 10.285,8.303 19.512,7.557c9.226,-0.746 61.641,-32.266 91.629,-35.841c29.987,-3.575 74.666,5.932 87.56,8.742c12.894,2.81 -45.549,5.657 -67.089,13.019c-21.54,7.363 -41.331,14.651 -43.537,23.032c-2.205,8.38 -2.783,24.156 -2.783,24.156Z" style="fill:#e7e7e7;fill-opacity:0.03;stroke:#000;stroke-width:2.08px;"/><path id="po" d="M461.603,385.694c12.607,-47.2 -27.348,-1.907 -68.514,-9.139c9.226,-0.746 61.641,-32.266 91.629,-35.841c29.987,-3.575 74.666,5.932 87.56,8.742c12.894,2.81 -45.549,5.657 -67.089,13.019c-21.54,7.363 -41.38,14.839 -43.586,23.219Z" style="fill:#e7e7e7;fill-opacity:0.03;stroke:#000;stroke-width:2.08px;"/><path id="sp2-3" serif:id="sp2/3" d="M173.362,407.114c-2.728,-27.686 -4.698,-20.957 -7.845,-14.653c-30.352,60.817 -50.925,121.949 -54.585,171.658c3.955,35.191 16.872,57.704 34.062,74.175c47.486,41.687 81.839,-11.227 114.8,-74.175c60.818,-82.202 144.589,-153.124 191.786,-168.078c3.953,-1.252 32.944,-52.638 -16.435,-22.824c-68.027,41.074 -77.216,63.062 -162.522,137.966c-57.062,50.102 -48.254,23.655 -61.663,36.077c-12.64,11.711 6.263,35.374 -24.509,33.643c-19.345,-1.088 -39.982,-36.96 -38.496,-52.066c5.747,-58.416 12.839,-61.895 27.722,-94.445c2.002,-4.378 -1.853,-22.586 -2.315,-27.278Z" style="fill:#e7e7e7;fill-opacity:0.03;stroke:#000;stroke-width:2.08px;"/><path id="sp1" d="M636.223,278.033l0,-22.141c-20.079,-1.669 -54.249,-87.003 -119.097,-88.454c-83.855,-1.877 -251.447,54.594 -343.505,209.656c-6.288,10.591 -1.865,7.795 -0.411,28.109c1.066,14.889 4.482,26.736 10.231,14.165c37.823,-82.721 93.694,-139.055 107.538,-143.259c103.715,-71.347 185.594,-98.736 246.758,-86.024c24.411,5.073 83.784,85.896 98.486,87.948Z" style="fill:#e7e7e7;fill-opacity:0.03;stroke:#000;stroke-width:2.08px;"/><path id="mo" d="M541.1,402.752c-40.647,11.203 -42.66,5.474 -59.542,10.632c-13.636,4.166 -11.145,-13.488 -8.262,-16.13c7.129,-6.535 10.656,-23.883 70.911,-27.916c60.256,-4.033 66.814,3.918 75.747,-0.046c8.933,-3.963 9.57,-6.058 8.49,-12.885c-1.08,-6.827 -12.85,-18.364 -56.198,-24.249c-33.871,-4.598 -63.187,-19.151 -94.301,-10.215c-40.926,11.754 -77.536,27.03 -105.396,47.132c-20.384,14.708 -22.534,4.708 -27.953,8.621c-34.553,24.953 -56.391,42.961 -63.192,36.351c-6.773,-6.582 31.733,-42.66 67.904,-70.206c22.009,-16.762 97.795,-60.894 127.994,-61.227c60.299,-0.665 31.594,-3.564 158.921,52.048c0,11.676 0.026,40.491 0.026,56.069c-5.65,1.458 -46.143,10.755 -53.004,6.201c-5.713,-3.791 -38.67,4.862 -42.145,5.82Z" style="fill:#e7e7e7;fill-opacity:0.03;stroke:#000;stroke-width:2.08px;"/><path id="sr" d="M636.223,305.929c0,-0 -56.874,-32.295 -68.542,-43.503c-11.669,-11.208 -56.893,-25.359 -78.469,-22.893c-41.472,4.741 -114.976,45.183 -140.606,61.376c-25.631,16.193 -96.259,79.736 -111.832,107.825c-35.912,64.771 17.115,40.094 33.06,33.858c15.945,-6.236 22.949,-7.387 49.953,-25.86c27.003,-18.473 44.322,-27.461 47.583,-31.565c0.714,-0.898 80.993,-20.868 48.005,0.527c-10.558,6.848 -57.763,46.449 -79.022,66.712c-129.835,123.748 -103.545,80.224 -126.154,95.614c-6.63,4.514 -2.445,27.223 -9.926,30.818c-16.162,7.764 -30.724,0.373 -47.236,-29.901c-15.595,-28.593 10.323,-96.85 26.323,-124.27c33.572,-57.532 56.185,-109.384 125.701,-158.064c79.732,-55.834 191.601,-94.772 230.088,-77.03c38.486,17.742 85.441,79.454 101.074,88.46c0.058,0.033 0,27.896 0,27.896Z" style="fill:#e7e7e7;fill-opacity:0.03;stroke:#000;stroke-width:2.08px;"/><path id="so" d="M215.974,713.958c-42.346,-17.7 -70.072,-27.64 -100.963,-21.695c-8.917,1.716 -29.19,-29.008 -39.558,-86.091c-5.254,-28.927 -5.68,-56.108 0.1,-84.128c2.482,-12.033 11.018,-38.259 13.284,-44.562c28.302,-78.735 87.602,-187.109 179.049,-245.357c135.385,-86.234 229.096,-100.296 297.41,-88.435c21.042,3.653 42.688,69.532 70.927,76.799l0,34.189c-19.865,-0.42 -53.662,-88.737 -123.028,-88.497c-102.406,0.355 -266.88,70.418 -346.222,222.624c-22.174,42.538 -70.474,149.341 -48.475,207.141c6.09,16.002 39.176,88.705 91.77,42.348c35.595,-31.374 27.689,-70.173 138.206,-172.452c59.435,-55.004 108.796,-75.767 109.047,-69.39c0.26,6.606 -0.276,16.693 -9.313,18.363c-14.842,2.743 -76.055,39.603 -100.025,75.076c-38.028,56.28 -60.731,76.073 -75.783,125.821c-10.35,34.205 -10.085,117.616 -56.426,98.246Z" style="fill:#e7e7e7;fill-opacity:0.03;stroke:#000;stroke-width:2.08px;"/><path id="alv" d="M61.498,608.429c0.989,7.19 7.661,46.485 33.554,87.713c13.377,21.3 22.252,-0.354 4.467,-18.14c-6.421,-6.42 -13.698,-14.747 -24.066,-71.83c-5.254,-28.927 -5.68,-56.108 0.1,-84.128c2.482,-12.033 11.018,-38.259 13.284,-44.562c28.302,-78.735 87.602,-187.109 179.049,-245.357c135.385,-86.234 229.096,-100.296 297.41,-88.435c21.042,3.653 42.688,69.532 70.927,76.799l-0.181,-21.223c-8.317,-3.151 -33.548,-50.469 -51.334,-60.89c-35.39,-20.735 -73.858,-19.84 -118.835,-9.435c-190.406,44.049 -315.782,151.539 -371.229,281.395c-15.174,35.538 -51.145,67.293 -33.146,198.093Z" style="fill:#e7e7e7;fill-opacity:0.03;stroke:#000;stroke-width:2.08px;"/><path id="slm" d="M636.223,305.929c0,-0 -58.028,-32.295 -69.696,-43.503c-11.669,-11.208 -56.893,-25.359 -78.469,-22.893c-41.472,4.741 -114.976,45.183 -140.606,61.376c-25.631,16.193 -96.259,79.736 -111.832,107.825c-35.912,64.771 17.115,40.094 33.06,33.858c15.945,-6.236 22.949,-7.387 49.952,-25.86c27.004,-18.473 44.323,-27.461 47.584,-31.565c3.261,-4.104 -18.463,-11.653 -24.332,-5.973c-5.868,5.679 -45.295,35.761 -55.921,36.347c-10.626,0.586 -3.504,-12.814 10.13,-25.592c13.633,-12.777 50.529,-47.868 77.274,-61.768c26.746,-13.9 65.669,-44.668 109.675,-45.893c44.007,-1.226 46.736,4.107 85.223,21.849c38.487,17.742 52.325,21.519 67.958,30.525c0.058,0.033 0,-28.733 0,-28.733Z" style="fill:#e7e7e7;fill-opacity:0.03;stroke:#000;stroke-width:2.08px;"/><path id="APN" d="M636.223,514.872l0,-86.427c-10.169,1.782 -4.303,0.091 -20.828,0c-33.679,-0.186 -21.919,30.648 -18.022,41.639c11.169,31.496 23.479,42.092 38.85,44.788Z" style="fill:#e7e7e7;fill-opacity:0.03;fill-rule:nonzero;stroke:#000;stroke-width:2.08px;stroke-linecap:butt;stroke-miterlimit:2;"/><path id="cpd" d="M335.026,776.181c-8.364,-34.938 16.36,-7.778 49.094,7.872c11.815,5.648 17.308,24.282 27.094,32.777c12.904,11.202 24.119,19.473 51.17,66.723c-52.01,-0 -60.017,0 -78.275,0c-9.785,-7.702 -43.156,-82.612 -49.083,-107.372Z" style="fill:#e7e7e7;fill-opacity:0.03;fill-rule:nonzero;stroke:#000;stroke-width:2.08px;stroke-linecap:butt;stroke-linejoin:miter;stroke-miterlimit:4;"/><path id="em" d="M419.695,595.337c-12.024,11.557 -7.941,61.255 15.974,89.01c24.067,27.93 -35.672,-16.278 12.808,-81.596c6.893,-5.388 42.131,-27.893 34.266,-37.118c-14.319,-16.795 -45.466,12.805 -63.048,29.704Z" style="fill:#e7e7e7;fill-opacity:0.03;fill-rule:nonzero;stroke:#000;stroke-width:2.08px;stroke-linecap:butt;stroke-miterlimit:2;"/><path id="LP" d="M613.941,501.834c-8.607,-11.417 -14.877,-22.124 -16.568,-31.75c-1.607,-9.154 -4.571,0.569 -4.735,-27.492c-0.041,-6.898 -16.169,-15.739 -23.29,-14.148c-21.401,4.787 -119.039,-9.507 -108.567,-4.725c19.763,9.026 44.068,91.707 5.829,136.924c10.587,-4.207 20.97,9.082 17.84,12.552c6.584,0.005 30.379,-11.921 38.621,-16.391c10.837,-5.878 77.365,-45.657 90.87,-54.97Z" style="fill:#e7e7e7;fill-opacity:0.03;fill-rule:nonzero;stroke:#000;stroke-width:2.08px;stroke-linecap:butt;stroke-linejoin:miter;stroke-miterlimit:4;"/><path id="VPL" d="M636.223,800.22c-68.827,-19.616 -52.62,-10.454 -87.263,-37.348c-39.128,-30.375 -106.354,-61.692 -115.906,-82.834c-26.617,-58.913 34.821,-85.763 39.584,-95.71c11.624,1.329 163.585,215.892 163.585,215.892Z" style="fill:#e7e7e7;fill-opacity:0.03;fill-rule:nonzero;stroke:#000;stroke-width:2.08px;stroke-linecap:butt;stroke-linejoin:miter;stroke-miterlimit:4;"/><path id="PF" d="M636.223,514.872c-7.952,-1.284 -15.469,-5.108 -22.282,-13.038l-39.949,24.86c40.456,32.009 0.223,187.545 62.05,217.573l0.181,-229.395Z" style="fill:none;stroke:#000;stroke-width:2.08px;"/><path id="PO" d="M636.223,800.22c-31.051,-34.027 -117.866,-177.673 -163.585,-215.892c8.712,-7.568 9.032,-9.345 10.021,-11.411c11.624,1.329 46.432,-18.498 89.782,-46.148c2.549,-1.283 13.976,14.247 14.877,17.934c17.33,70.902 -4.482,170.215 48.724,199.564c-0,10.798 0.181,55.953 0.181,55.953Z" style="fill:#e7e7e7;fill-opacity:0.03;fill-rule:nonzero;stroke:#000;stroke-width:2.08px;stroke-linecap:butt;stroke-linejoin:miter;stroke-miterlimit:4;"/><path id="int" d="M52.691,594.172c-1.678,-2.364 -8.108,-25.662 -7.875,-33.366c0.232,-7.705 -0.562,-39.187 8.416,-46.516c4.441,-3.625 2.479,12.611 2.942,35.197c0.613,29.9 5.991,74.767 11.351,88.807c5.361,14.04 16.686,43.957 23.676,53.086c6.99,9.129 15.37,18.179 23.839,9.801c8.469,-8.379 29.7,-7.577 35.988,-5.645c6.287,1.932 49.371,14.93 52.821,17.719c3.451,2.79 12.949,7.24 18.899,8.582c4.202,0.948 20.058,0.224 24.807,1.554c8.109,2.27 15.177,4.953 18.15,14.283c2.973,9.33 1.246,21.084 4.752,27.971c3.505,6.888 12.34,22.957 22.762,30.327c10.742,7.597 19.222,8.125 21.636,9.692c2.413,1.567 1.879,14.477 -1.012,14.892c-14.916,2.143 9.995,-4.078 -10.611,-10.978c-11.633,-3.896 -26.712,-20.857 -29.73,-24.409c-7.152,-8.421 -15.082,-21.919 -14.04,-37.093c0.726,-10.594 -8.619,-22.955 -27.765,-19.474c-19.146,3.481 -4.197,-1.548 -58.51,-19.225c-47.936,-15.602 -41.975,-9.67 -62.255,0.646c-8.97,4.563 -22.866,-3.977 -31.232,-18.741c-10.551,-18.617 5.279,-4.861 -17.612,-52.988c-6.903,-14.514 -7.718,-41.757 -9.397,-44.122Z" style="fill:#e7e7e7;fill-opacity:0.03;stroke:#000;stroke-width:2.08px;"/><path id="int1" serif:id="int" d="M78.842,882.838c0,0 -5.145,-12.59 -4.348,-30.173c0.798,-17.583 2.394,-42.109 -10.72,-58.154c-11.616,-14.211 -33.133,-56.878 -36.666,-99.911c-3.532,-43.034 7.057,-55.12 8.833,-49.16c1.775,5.961 -7.275,33.019 0.715,57.556c7.99,24.536 19.826,68.364 42.186,67.176c22.361,-1.188 37.213,13.173 38.336,14.032c1.123,0.859 -45.218,-4.304 -38.336,9.87c3.298,6.792 4.429,51.359 6.682,63.648c2.252,12.289 19.801,7.857 26.414,8.502c6.614,0.645 -0.129,16.533 -2.021,17.329c-1.892,0.796 -31.075,-0.715 -31.075,-0.715Z" style="fill:none;stroke:#000;stroke-width:2.08px;"/><path id="LGd" d="M460.781,423.719c18.098,12.248 45.895,79.69 5.829,136.924c-22.909,9.233 -48.196,38.116 -53.465,47.786c-83.672,-34.538 -54.409,-65.807 -83.139,-70.721c15.54,-29.573 11.744,-26.3 34.188,-49.791c15.644,-16.371 44.371,-42.745 64.071,-51.916c14.353,-6.683 32.516,-12.282 32.516,-12.282Z" style="fill:#e7e7e7;fill-opacity:0.03;fill-rule:nonzero;stroke:#000;stroke-width:2.08px;stroke-linecap:butt;stroke-linejoin:miter;stroke-miterlimit:4;"/><path id="ZI" d="M394.074,747.248c-22.496,-33.114 13.454,-44.59 42.099,-62.246c13.235,17.683 27.565,24.492 46.22,42.594c19.858,19.269 40.778,42.966 73.281,62.722c25.823,15.696 49.015,10.63 64.333,18.015c12.583,6.066 11.188,13.681 16.035,19.946c0.214,3.018 0.181,21.834 0.181,55.274l-106.527,-0c-6.125,-14.746 -94.548,-48.43 -118.482,-66.723c-14.406,-11.009 -13.201,-24.364 -27.094,-32.777c-20.366,-12.334 19.602,-22.604 9.954,-36.805Z" style="fill:#e7e7e7;fill-opacity:0.03;fill-rule:nonzero;stroke:#000;stroke-width:2.08px;stroke-linecap:butt;stroke-linejoin:miter;stroke-miterlimit:4;"/><path id="fi" d="M274.087,623.066l2.206,14.076c2.039,36.855 13.103,89.41 39.178,168.078c-19.585,-3.325 -31.19,-14.534 -39.24,-29.253c-13.876,-21.074 -4.345,-29.13 -11.659,-41.153c-5.633,-9.261 -13.307,-15.082 -22.118,-18.984c7.58,-7.866 12.722,-19.278 15.984,-33.428c6.476,-19.779 9.242,-49.452 15.649,-59.336Z" style="fill:none;stroke:#000;stroke-width:2.08px;"/><path id="fi1" serif:id="fi" d="M234.144,728.236c21.84,-5.896 30.364,30.749 22.22,29.786c-15.955,-1.888 -31.315,-9.495 -40.126,-13.398c7.58,-7.865 -1.903,-11.04 17.906,-16.388Z" style="fill:none;stroke:#000;stroke-width:2.08px;"/><path id="STN" d="M411.214,816.83c31.211,26.194 98.672,41.415 118.482,66.723l-67.312,-0c-6.125,-14.746 -27.236,-48.43 -51.17,-66.723Z" style="fill:#e7e7e7;fill-opacity:0.03;fill-rule:nonzero;stroke:#000;stroke-width:2.08px;stroke-linecap:butt;stroke-linejoin:miter;stroke-miterlimit:4;"/><path id="RT" d="M312.81,707.626c24.713,-22.766 37.477,-12.341 41.331,-22.624c6.164,-16.445 34.824,28.084 32.892,44.204c-1.025,8.557 12.429,26.303 2.079,33.349c-12.002,8.169 -11.914,18.294 -20.155,13.303c-20.367,-12.333 -24.587,-12.093 -34.991,-25.75c-11.425,-14.999 -6.24,-44.943 -21.156,-42.482Z" style="fill:#e7e7e7;fill-opacity:0.03;fill-rule:nonzero;stroke:#000;stroke-width:2.08px;stroke-linecap:butt;stroke-linejoin:miter;stroke-miterlimit:4;"/><path id="CP" d="M54.225,883.553l-53.183,-0l-0,-201.213c-0,0 17.644,-2.237 21.038,13.894c3.393,16.131 15.359,62.339 38.988,94.279c23.63,31.941 5.703,77.081 17.774,92.325c-13.06,0 -24.617,0.715 -24.617,0.715Z" style="fill:none;stroke:#000;stroke-width:2.08px;"/><path id="LA" d="M87.001,785.401c8.893,-2.921 28.095,-0.325 35.533,5.922c7.439,6.247 22.932,19.315 26.754,25.805c3.822,6.489 9.253,23.464 16.313,27.02c12.665,6.38 40.472,-3.86 60.874,15.078c2.558,2.375 29.198,24.217 23.632,26.401c-6.287,2.467 -119.876,0.444 -125.028,-0c-10.764,-0.927 -6.623,-22.221 -17.969,-20.039c-20.356,3.913 -22.588,-6.375 -22.502,-12.942c0.085,-6.567 -0.836,-39.605 -3.381,-48.247c-2.545,-8.641 -5.601,-15.261 5.774,-18.998Z" style="fill:#e7e7e7;fill-opacity:0.03;stroke:#000;stroke-width:2.08px;"/><path id="ml" d="M467.49,709.89c-21.831,-9.692 -55.736,-53.298 -31.821,-25.543c24.067,27.93 18.39,15.154 91.635,84.49c60.218,57.004 84.388,11.403 108.738,59.442c-0,-5.464 0.181,-23.865 0.181,-28.059c-66.893,-21.635 -45.865,-6.734 -82.48,-33.614c-22.921,-16.827 -61.645,-45.79 -86.253,-56.716Z" style="fill:#e7e7e7;fill-opacity:0.03;fill-rule:nonzero;stroke:#000;stroke-width:2.08px;stroke-linecap:butt;stroke-miterlimit:2;"/><path id="LGv" d="M289.379,612.021c7.689,-31.716 32.92,-55.482 40.627,-74.313c28.452,3.405 -1.745,35.651 83.139,70.721c-4.579,10.838 -0.037,53.441 22.62,76.029c-10.926,7.687 -25.154,12.854 -37.88,24.132c-24.897,22.064 -16.573,-29.961 -47.845,-31.229c-23.983,-0.972 -47.265,21.893 -49.507,24.842c-4.306,5.661 -16.753,-67.09 -11.154,-90.182Z" style="fill:#e7e7e7;fill-opacity:0.03;fill-rule:nonzero;stroke:#000;stroke-width:2.08px;stroke-linecap:butt;stroke-linejoin:miter;stroke-miterlimit:4;"/><path id="opt" d="M302.426,717.311c3.303,-2.828 5.037,-7.896 10.407,-9.688c14.631,-4.884 11.137,36.26 25.672,80.197c15.553,47.013 41.904,95.335 45.615,95.733c-12.006,0.391 -22.307,-1.753 -43.015,-0c-12.796,-16.776 -18.015,-33.352 -15.577,-55.38c3.011,-27.217 -16.969,-83.65 -23.102,-110.862Z" style="fill:#e7e7e7;fill-opacity:0.03;fill-rule:nonzero;stroke:#000;stroke-width:2.08px;stroke-linecap:butt;stroke-linejoin:miter;stroke-miterlimit:4;"/><path id="opt1" serif:id="opt" d="M636.223,390.731c0,-0 -45.27,10.999 -52.899,6.249c-7.629,-4.751 -66.768,13.186 -81.762,13.492c-14.994,0.307 -33.18,7.01 -36.025,6.093c-2.845,-0.917 -6.006,-3.481 -14.133,-3.481c-8.128,0 -63.061,31.634 -87.21,57.808c-24.149,26.175 -67.5,93.239 -71.739,98.847c-4.24,5.608 -18.471,48.722 -15.328,75.215c2.783,23.455 17.998,92.12 26.534,118.988c7.35,23.137 12.439,38.76 12.716,47.701c0.277,8.942 -5.322,33.738 -1.258,50.296c1.709,6.965 9.524,9.307 11.101,21.614l14.885,-0c0,-0 -17.036,-19.155 -16.059,-41.23c0.977,-22.074 1.708,-36.18 -4.788,-57.981c-6.495,-21.8 -17.832,-67.031 -17.832,-67.031c-0,0 12.364,-11.747 16.206,-14.795c17.453,-13.845 32.425,-14.67 32.425,-14.67c0,-0 15.549,-11.705 -6.821,-10.156c-6.52,0.451 -29.937,9.345 -37.703,18.735c-7.767,9.39 -8.237,4.251 -8.954,1.99c-0.717,-2.261 -12.414,-55.448 -9.513,-75.481c2.901,-20.033 17.135,-44.449 36.28,-75.706c19.144,-31.257 17.581,-37.1 26.711,-45.54c9.371,-8.662 55.123,-64.712 95.726,-73.216c6.565,-1.374 3.448,-3.517 14.527,-4.927c18.785,-2.391 63.992,3.881 76.43,4.899c15.213,1.246 24.933,3.284 31.608,0c2.777,-1.366 17.908,0.894 20.4,8.553c1.248,3.834 9.444,-6.46 14.733,-7.174c11.484,-1.55 31.561,-1.346 31.561,-1.346l0.181,-37.746Z" style="fill:#e7e7e7;fill-opacity:0.03;stroke:#000;stroke-width:2.08px;"/><path id="cing" d="M636.042,184.39l0.181,-74c-36.609,-3.476 -66.582,-4.129 -91.703,-2.718c-3.779,-0.782 49.833,5.62 91.522,76.718Z" style="fill:none;stroke:#000;stroke-width:2.08px;"/></svg>