<?xml version="1.0" encoding="UTF-8" standalone="no"?><!DOCTYPE svg PUBLIC "-//W3C//DTD SVG 1.1//EN" "http://www.w3.org/Graphics/SVG/1.1/DTD/svg11.dtd"><svg width="100%" height="100%" viewBox="0 0 1165 1108" version="1.1" xmlns="http://www.w3.org/2000/svg" xmlns:xlink="http://www.w3.org/1999/xlink" xml:space="preserve" xmlns:serif="http://www.serif.com/" style="fill-rule:evenodd;clip-rule:evenodd;stroke-linecap:round;stroke-linejoin:round;stroke-miterlimit:1.5;"><path id="st" d="M409.004,569.023c-0,-0 -11.476,-11.676 -21.264,-36.144c-9.788,-24.467 4.909,-61.355 -23.176,-71.406c-28.086,-10.052 -72.53,7.859 -57,40c15.529,32.141 85.575,79.281 94.468,76c8.894,-3.281 6.972,-8.45 6.972,-8.45Z" style="fill:none;stroke:#000;stroke-width:0.83px;"/><path id="LM" d="M408.564,498.473c-0,-0 36.04,7.613 50,4c13.959,-3.613 45.127,-17.965 64,-24.694c18.872,-6.728 62.151,-8.109 71.537,-6.306c9.387,1.803 -22.013,-11.559 -36.537,-19c-11.402,-5.842 -45.312,-9.445 -64.944,-2.51c-21.776,7.691 -23.557,27.559 -37.056,24.51c-13.93,-3.147 -29.29,6.552 -36,15c-7.511,9.455 -18.597,4.93 -29,3c-10.403,-1.931 10.206,1.092 25,-6c1.873,-0.898 5.561,-12.566 15.001,-17.783c10.287,-5.684 26.468,-5.019 30.696,-7.835c22.53,-15.006 24.555,-15.425 38.693,-23.382c17.295,-9.734 54.419,0.931 98.251,24c36.321,19.115 62.013,30.159 81.423,39c19.41,8.84 29.541,17.007 16.829,13c-12.712,-4.007 -39.407,-14.271 -56.699,-21.825c-17.292,-7.553 -43.582,-14.634 -62.78,-13.869c-19.198,0.765 -50.724,6.836 -69.414,17.694c-18.69,10.858 -28.938,12.057 -45,16c-16.062,3.943 -44.935,-2.746 -56,-7c-11.066,-4.255 -24.091,-11.986 2,-6Z" style="fill:none;stroke:#000;stroke-width:0.83px;"/><path id="sp" d="M701.564,979.663c-0,0 0.65,-15.28 30,-51.19c29.349,-35.91 66.686,-75.527 74,-108.614c7.313,-33.087 17.785,-87.262 -26,-175.386c-17.493,-35.206 -39.916,-49.426 -59.394,-63.557c-29.277,-21.241 -55.455,-33.001 -76.606,-41.443c-35.223,-14.058 -93.814,-18.79 -101,45c-6.63,58.85 0.402,141.499 32,173c10.071,10.04 8.583,42.071 15.537,46c4.387,2.478 17.732,-9.76 16.463,-26c-2.187,-27.975 -20.717,-62.675 -34.926,-84c-12.44,-18.67 -18.32,-91.984 -2.074,-115c16.246,-23.016 49.697,-28.582 93.132,-5c43.435,23.582 74.605,36.393 97.868,80c23.262,43.607 54.001,127.397 14,189c-40.002,61.603 -81.193,91.672 -93,137.19l20,0Z" style="fill:none;stroke:#000;stroke-width:0.83px;"/><path id="so" d="M701.564,979.663c-0,0 0.65,-15.28 30,-51.19c29.349,-35.91 66.686,-75.527 74,-108.614c7.313,-33.087 17.785,-87.262 -26,-175.386c-16.42,-33.047 -40.697,-49.097 -58.986,-63.243c-30.482,-23.575 -55,-32.971 -77.014,-41.757c-35.223,-14.058 -93.814,-18.79 -101,45c-6.63,58.85 0.402,141.499 32,173c5.88,5.862 -5.399,1.884 -30.049,-12.865c-24.65,-14.748 -7.504,-2.573 -18.877,-84.135c-3.44,-24.67 -16.32,-106.782 -0.074,-129.798c34.598,-49.016 106.42,-36.2 150.679,-14.202c47.744,23.73 97.748,69.414 124.321,108c43.146,62.651 67.001,123.397 22,220c-31.016,66.581 -74.193,95.672 -108,135.19c12.129,0 -13,0 -13,0Z" style="fill:none;stroke:#000;stroke-width:0.83px;"/><path id="alv" d="M731.564,979.785c-0,0 17.65,-16.402 47,-52.312c29.349,-35.91 60.686,-83.527 68,-116.614c7.313,-33.087 26.785,-71.262 -17,-159.386c-16.42,-33.047 -77.697,-97.701 -95.986,-111.846c-30.482,-23.576 -83.557,-43.867 -105.571,-52.653c-35.223,-14.058 -116.257,-20.137 -123.443,43.653c-3.929,34.874 -4.006,91.762 4.788,129.428c6.045,25.894 11.339,75.584 13.212,93.418c0.867,8.257 14.447,-11.438 3.074,-93c-3.44,-24.67 -16.32,-106.782 -0.074,-129.798c34.598,-49.016 106.42,-36.2 150.679,-14.202c47.744,23.73 97.748,69.414 124.321,108c43.146,62.651 67.001,123.397 22,220c-31.016,66.581 -74.193,95.672 -108,135.19c12.129,0 17,0.122 17,0.122Z" style="fill:none;stroke:#000;stroke-width:0.83px;"/><path id="sr" d="M648.564,979.663c-0,0 2.65,-39.28 32,-75.19c29.349,-35.91 50.686,-78.527 58,-111.614c7.313,-33.087 1.905,-67.262 -23,-117.386c-12.52,-25.197 -87.675,-113.183 -111.75,-79.162c-23.817,33.658 9.554,137.877 2.929,133.978c-24.857,-14.629 -20.896,-15.491 -35.105,-36.816c-12.44,-18.67 -18.32,-91.984 -2.074,-115c16.246,-23.016 49.697,-28.582 93.132,-5c43.435,23.582 74.605,36.393 97.868,80c23.262,43.607 54.001,127.397 14,189c-40.002,61.603 -81.193,91.672 -93,137.19c12.129,0 -33,0 -33,0Z" style="fill:none;stroke:#000;stroke-width:0.83px;"/><path id="slm" d="M648.564,979.663c-0,0 2.65,-39.28 32,-75.19c29.349,-35.91 50.686,-78.527 58,-111.614c7.313,-33.087 1.905,-67.262 -23,-117.386c-12.52,-25.197 -87.675,-113.183 -111.75,-79.162c-23.817,33.658 7.12,121.372 7.562,105.097c0.966,-35.553 22.454,-43.303 30.889,-40.721c14.619,4.475 45.084,41.269 48.034,56.269c15.263,77.608 -0.399,103.721 -40.4,165.324c-40.002,61.603 -22.639,51.865 -34.446,97.383l33.111,0Z" style="fill:none;stroke:#000;stroke-width:0.83px;"/><path id="image" d="M1163.83,0.5l0,1106.16l-1163.33,0l0,-1106.16l1163.33,0Z" style="fill:none;stroke:#000;stroke-width:1px;"/><path id="fov" d="M1163.83,0.5l0,979.163l-1163.33,0l0,-979.163l1163.33,0Z" style="fill:none;stroke:#000;stroke-width:1px;"/><path id="LM1" serif:id="LM" d="M1129.56,979.663c-0,0 27.995,-49.946 22,-91.19c-6.089,-41.887 -33.673,-274.896 -173,-470c-138.55,-194.015 -244.103,-256.487 -355,-310c-109.527,-52.852 -308.775,-94.372 -390.926,-107.973l49.926,0c99.987,9.528 297.97,68.01 348,95.973c50.56,28.259 187.777,90.205 299,228c105.531,130.743 169.283,268.327 196,379c24.909,103.181 29.783,123.066 33.269,152c3.487,28.933 13.992,78.824 -18.269,124.19l-11,0Z" style="fill:none;stroke:#000;stroke-width:0.83px;"/><path id="L1" d="M1129.56,979.663c-0,0 27.995,-49.946 22,-91.19c-6.089,-41.887 -33.673,-274.896 -173,-470c-138.55,-194.015 -244.103,-256.487 -355,-310c-109.527,-52.852 -308.775,-94.372 -390.926,-107.973c4.589,0 -169.251,0 -232.138,0l-0,24c33.198,1.455 96.327,10.251 163.287,11.652c55.28,1.156 113.319,-8.427 161.159,1.754c153.774,32.725 263.371,76.166 294.618,89.567c63.56,27.259 174.777,92.205 286,230c61.062,75.65 103.105,128.342 131.186,196.109c20.45,49.352 35.084,114.716 43.814,161.891c18.909,102.181 39.783,132.066 43.269,161c3.487,28.933 10.992,26.824 -20.269,103.19c-8.102,0 26,0 26,0Z" style="fill:none;stroke:#000;stroke-width:0.83px;"/><path id="L2-3" serif:id="L2/3" d="M993.564,979.663c-0,0 78.995,-52.946 73,-94.19c-3.289,-22.624 -28.224,-68.768 -43.699,-157.175c-13.885,-79.319 -82.648,-238.103 -105.301,-269.825c-138.55,-194.015 -198.103,-215.487 -309,-269c-109.527,-52.852 -270.775,-90.372 -352.926,-107.973c4.589,-0 -192.251,-18 -255.138,-18c0,13.002 0,-39 0,-39c33.198,1.455 96.327,10.251 163.287,11.652c55.28,1.156 113.319,-8.427 161.159,1.754c153.774,32.725 263.371,76.166 294.618,89.567c63.56,27.259 174.777,92.205 286,230c61.062,75.65 103.105,128.342 131.186,196.109c20.45,49.352 35.084,114.716 43.814,161.891c18.909,102.181 39.783,132.066 43.269,161c3.487,28.933 10.992,26.824 -20.269,103.19l-110,0Z" style="fill:none;stroke:#000;stroke-width:0.83px;"/><path id="L4" d="M990.564,688.473c5.595,12.649 18.622,39.3 26.58,57.247c10.402,23.456 14.488,32.663 5.721,-17.422c-13.885,-79.319 -82.648,-238.103 -105.301,-269.825c-138.55,-194.015 -198.103,-215.487 -309,-269c-109.527,-52.852 -270.775,-90.372 -352.926,-107.973c4.589,-0 -192.251,-18 -255.138,-18l0,36c160.198,8.455 220.606,22.225 268.446,32.406c153.774,32.725 265.396,66.312 294.692,83.567c61.56,36.259 188.061,114.205 258.926,202c61.062,75.65 148.591,227.125 168,271Z" style="fill:none;stroke:#000;stroke-width:0.83px;"/><path id="L5" d="M990.564,688.473c3.624,8.192 37.21,73.869 55.567,133.554c12.026,39.101 37.251,73.937 0.913,110.25c-2.931,2.929 -28.397,29.321 -53.48,47.386c-46.639,0 -119.472,0.204 -160.01,0c29.541,-29.49 141.436,-47.296 149.319,-89.131c12.508,-66.386 -41.632,-97.382 -50.008,-145.234c-13.885,-79.319 -63.762,-178.876 -89.301,-208.325c-107.55,-124.015 -180.103,-199.987 -291,-253.5c-109.527,-52.852 -185.379,-79.333 -267.926,-94.973c-37.411,-7.088 -221.251,-37 -284.138,-37c0,13.002 0,-52 0,-52c160.198,8.455 220.606,22.225 268.446,32.406c153.774,32.725 265.396,66.312 294.692,83.567c61.56,36.259 188.061,114.205 258.926,202c61.062,75.65 148.591,227.125 168,271Z" style="fill:none;stroke:#000;stroke-width:0.83px;"/><path id="L6a" d="M895.564,693.473c2.591,5.856 -1.634,50.079 10.991,90.333c5.035,16.056 11.945,29.772 25.179,43.79c28.083,29.747 37.648,42.368 1.31,78.681c-2.931,2.929 -93.397,55.412 -118.48,73.477c-46.639,-0 59.528,0.113 18.99,-0.091c29.541,-29.49 141.436,-47.296 149.319,-89.131c12.508,-66.386 -41.632,-97.382 -50.008,-145.234c-13.885,-79.319 -63.762,-178.876 -89.301,-208.325c-107.55,-124.015 -180.103,-199.987 -291,-253.5c-109.527,-52.852 -189.827,-78.124 -271.979,-95.726c4.589,0 -217.198,-36.247 -280.085,-36.247l0,54c166.198,13.455 214.103,13.544 261.942,23.725c153.774,32.725 241.465,72.993 270.761,90.248c61.56,36.259 145.066,86.239 223.931,167.034c67.908,69.57 119.021,163.091 138.43,206.966Z" style="fill:none;stroke:#000;stroke-width:0.83px;"/><path id="L6b" d="M895.564,693.473c2.544,5.75 -2.049,48.852 10.279,88.119c5.235,16.676 13.239,33.028 25.711,45.82c28.559,29.289 37.828,42.552 1.49,78.865c-2.931,2.929 -93.397,55.412 -118.48,73.477c16.361,-61 104.426,-61.387 112.309,-103.222c6.102,-32.386 -53.632,-35.382 -53.008,-120.234c0.591,-80.523 -57.762,-161.206 -83.301,-190.655c-54.025,-62.296 -88.254,-73.245 -127.976,-99.386c-39.355,-25.899 -92.194,-62.026 -147.385,-88.658c-109.527,-52.853 -163.466,-86.25 -245.618,-103.852c4.589,0 -206.198,-27.247 -269.085,-27.247c0,13.002 0,-41 0,-41c166.198,13.455 212.606,13.225 260.446,23.406c153.774,32.725 242.961,73.312 272.257,90.567c61.56,36.259 147.496,86.814 227.361,170.609c67.074,70.374 115.591,159.516 135,203.391Z" style="fill:none;stroke:#000;stroke-width:0.83px;"/><path id="cc" d="M783.709,590.079c67.074,70.375 60.544,106.886 72.871,146.154c5.235,16.675 -7.493,94.739 -40.831,140.053c-1.702,2.314 -34.83,54.691 -84.055,103.377c25.324,0 46.161,0.122 58.87,0.122c16.361,-61 58.791,-64.418 66.673,-106.253c6.102,-32.386 16.004,-32.382 16.628,-117.234c0.591,-80.523 -57.762,-161.206 -83.301,-190.655c-54.025,-62.296 -88.254,-73.245 -127.976,-99.386c-39.355,-25.899 -92.194,-62.026 -147.385,-88.658c-109.527,-52.853 -163.466,-86.25 -245.618,-103.852c-31.236,-4.834 -40.448,2.642 14.294,16.057c23.32,5.715 59.981,20.912 93.734,37.639c37.067,18.369 68.959,38.771 85.333,54.463c32.795,31.43 59.636,39.613 81.973,51.966c40.371,22.327 66.028,33.442 85.532,43.907c62.955,33.779 73.393,28.506 153.258,112.3Z" style="fill:none;stroke:#000;stroke-width:0.83px;"/><path id="po" d="M611.564,701.473c-7.179,-1.6 -7.77,27.041 -3,33c4.769,5.958 32.394,29.028 27,56c-5.395,26.971 -47.169,65.913 -59.111,106c-10.702,35.923 0.769,34.875 -0,47c-0.769,12.125 -30.51,-19.925 -31.889,-30c-0.611,-4.465 4.632,-21.019 11.082,-33.115c8.105,-15.202 18.116,-26.84 20.807,-37.885c2.79,-11.455 3.012,-36.087 -2.393,-57.759c-4.117,-16.508 -11.498,-31.299 -23.496,-37.241c-29.467,-14.594 -21.338,-2.676 -23,4c-1.663,6.675 33.597,12.435 31,44c-1.157,14.057 -0.08,34.802 -4.858,50.579c-5.951,19.649 -18.229,34.9 -23.142,58.421c-8.159,39.057 55.676,76.3 62,64c8.287,-16.118 -1.627,-36.923 2,-53c10.352,-45.896 55.791,-102.625 58,-129c2.375,-28.362 -27.9,-82.08 -41,-85Z" style="fill:none;stroke:#000;stroke-width:0.83px;"/><path id="mo" d="M574.06,784.714c-0.967,-3.88 5.267,-12.955 7.28,-5.33c5.783,21.9 10.536,28.134 16.865,19.788c15.175,-20.009 7.903,-67.766 10.359,-64.699c4.769,5.958 32.394,29.028 27,56c-5.395,26.971 -47.169,65.913 -59.111,106c-10.702,35.923 0.769,34.875 -0,47c-0.769,12.125 -30.51,-19.925 -31.889,-30c-0.611,-4.465 4.632,-21.019 11.082,-33.115c8.105,-15.202 18.116,-26.84 20.807,-37.885c2.79,-11.455 3.012,-36.087 -2.393,-57.759Z" style="fill:none;stroke:#000;stroke-width:0.83px;"/><path id="sg" d="M611.564,701.473c-4.412,-0.984 1.652,-35.099 23.949,-41.065c17.76,-4.751 44.703,39.78 51.74,50.44c10.592,16.045 17.417,75.801 -10.689,130.625c-11.244,21.931 -38.148,52.272 -49.613,81.116c-10.498,26.408 -5.79,37.914 -11.498,57.074l-79.889,0c-0.611,-4.464 -41.368,-53.209 -34.918,-65.305c8.105,-15.202 12.116,-67.176 14.807,-78.222c2.79,-11.455 10.012,-32.75 4.607,-54.422c-4.117,-16.508 2.109,-25.917 7.447,-25.241c6.825,0.863 33.16,13.435 31.057,39c-1.157,14.057 -0.08,34.802 -4.858,50.579c-5.951,19.649 -18.229,34.9 -23.142,58.421c-8.159,39.057 55.676,76.3 62,64c8.287,-16.118 -1.627,-36.923 2,-53c10.352,-45.896 55.791,-102.625 58,-129c2.375,-28.362 -27.9,-82.08 -41,-85Z" style="fill:none;stroke:#000;stroke-width:0.83px;"/><path id="CP" d="M502.019,418.473c5.125,14.899 -35.781,43.308 -45.661,43.951c-9.683,0.631 -20.366,-1.555 -32.443,11.772c-9.939,10.967 -25.854,29.028 -45.234,-0.721c-4.17,-6.401 -6.688,-17.243 -13.007,-28.002c-7.249,-12.343 -17.671,-3.437 -26.381,-9.301c-8.142,-5.481 1.397,-13.891 -11.886,-15.519c-9.752,-1.194 -9.793,12.388 -38.981,0.89c-24.383,-9.606 -24.708,-13.996 -44.67,2.984c-16.736,14.235 -30.273,22.067 -47.368,5.133c-18.102,-17.93 -60.556,-11.398 -88.824,-15.475c-54.099,-7.803 -87.376,1.172 -107.064,7.288l0,-176c0,-0 136.442,10.186 176.069,16.516c39.627,6.329 118.084,26.453 198.995,64.484c80.91,38.03 126.03,90.765 126.455,92Z" style="fill:none;stroke:#000;stroke-width:0.83px;"/><path id="RT" d="M0.5,728.782c0,0 33.607,-15.717 50.064,-56.309c16.456,-40.592 73.67,-89.763 105,-109c31.329,-19.237 85.673,-46.726 142,-18.5c56.327,28.226 46.499,30.466 60,30.5c13.501,0.034 -10.895,-13.622 -2,-18c4.751,-2.339 27.81,11.128 38.747,22.066c9.538,9.537 20.702,13.474 17.253,26.934c-7.405,28.895 -26.469,22.179 -33.306,24.804c-17.038,6.538 -31.672,-8.91 -47.694,-14.804c-22.452,-8.26 -82.036,-33.342 -120,-14c-37.965,19.342 -90.955,43.379 -115,89c-24.046,45.62 -54.581,95.421 -95.064,104l0,-66.691Z" style="fill:none;stroke:#000;stroke-width:0.83px;"/><path id="fi" d="M504.811,633.091c0,0 -75.31,-13.811 -92.607,-55.618c-17.297,-41.807 -7.195,-69.956 -7.64,-70c-0.445,-0.044 26.321,6.452 47.48,5.189c21.159,-1.263 59.689,-19.431 59.689,-19.431c0,-0 3.781,1.244 -5.188,26.958c-8.97,25.715 -3.233,101.483 -1.734,112.902Z" style="fill:none;stroke:#000;stroke-width:0.83px;"/><path id="int" d="M0.5,728.782c0,0 39.6,-19.748 53.918,-64.606c14.318,-44.858 111.021,-116.744 151.934,-124.787c40.913,-8.043 62.211,-18.801 125.047,23.772c62.835,42.573 21.057,-10.784 15.903,-18.188c-5.153,-7.404 -43.816,-33.486 -42.515,-51.742c1.301,-18.256 18.562,-34.86 30.777,-34.554c12.215,0.307 37.66,-14.247 21.204,-17.204c-16.456,-2.958 -22.313,-5.665 -24.204,-17c-1.892,-11.335 -10.152,3.795 -28.206,2c-18.055,-1.795 -37.279,-22.377 -55.919,-6c-18.64,16.377 -29.493,23.625 -42.087,16c-12.594,-7.625 -11.371,13.56 -24.788,22.204c-13.417,8.645 -70.937,45.518 -91,50.554c-20.063,5.036 -64.689,-6.791 -90.064,1.242l0,218.309Z" style="fill:none;stroke:#000;stroke-width:0.83px;"/><path id="GPe" d="M0.5,421.473c0,-0 59.363,-17.771 107.064,-7.288c47.701,10.483 104.147,1.095 86.953,26.832c-17.193,25.737 -71.702,50.796 -88.168,61.898c-16.466,11.102 -63.074,5.639 -77.938,4.72c-14.865,-0.918 -27.911,2.838 -27.911,2.838l0,-89Z" style="fill:none;stroke:#000;stroke-width:0.83px;"/><path id="cimg" d="M814.564,979.754c-0,-0 13.206,-34.655 31.07,-42.085c17.865,-7.43 55.43,-32.491 63.265,-36.37c7.836,-3.879 29.982,-32.486 0.236,-58.197c-29.746,-25.711 -22.316,-32.738 -27.379,-39.181c-5.064,-6.442 -10.243,5.756 -12.025,19.554c-1.783,13.798 -9.203,55.299 -19.157,68.438c-9.954,13.139 -30.316,35.889 -38.29,43.866c-7.974,7.977 -21.712,43.975 -21.712,43.975l23.992,-0Z" style="fill:none;stroke:#000;stroke-width:0.83px;"/><path id="LD" d="M481.564,856.473c-17.832,1.55 -52.812,2.749 -69,-8c-16.188,-10.749 -47.676,-23.972 -55,-39c-7.325,-15.028 -4.943,-135.64 5,-153c9.943,-17.361 32.606,-29.979 48,-39c15.393,-9.021 53.657,-3.726 68,9c14.343,12.726 47.482,85.131 35.511,138.201c-11.97,53.07 -14.679,90.248 -32.511,91.799Z" style="fill:none;stroke:#000;stroke-width:0.83px;"/><path id="VPM" d="M286.564,712.473c-19.816,11.699 -63.403,53.031 -69,68c-4.173,11.16 -129.285,13.27 -102.654,-28.873c14.774,-23.378 26.946,-56.926 78.908,-87.438c36.867,-21.648 77.478,-28.569 115.593,-19.928c27.204,6.168 24.099,-4.673 24.884,27.239c0.524,21.294 -37.056,34.697 -47.731,41Z" style="fill:none;stroke:#000;stroke-width:0.83px;"/><path id="VPL" d="M142.157,641.06c-41.742,29.735 -73.71,94.278 -81.626,108.16c-7.916,13.882 -38.919,46.253 -60.031,46.253c0.478,12.943 -0,37.136 -0,51.912c28.98,-5.714 95.619,-33.272 104.064,-67.912c7.528,-30.884 37.292,-84.799 89.254,-115.311c36.867,-21.648 101.466,-30.416 134.853,-17.08c23.384,9.341 -14.531,25.121 24.624,25.112c4.142,-0.001 7.254,-13.876 9.968,-16.901c18.867,-21.024 -29.4,-38.265 -52.353,-46.086c-9.787,-3.335 -45.434,-19.506 -81.666,-12.703c-38.41,7.212 -77.476,37.71 -87.087,44.556Z" style="fill:none;stroke:#000;stroke-width:0.83px;"/><path id="VAL" d="M300.564,813.473c0.503,11.89 -45.914,7.952 -72,33.912c-26.087,25.96 -61.892,56.392 -74,72.088c-14.825,19.217 -43.369,60.19 -43.369,60.19l-110.695,0l0,-132.278c0,0 80.534,-27.195 86.742,-42.019c16.259,-38.823 77.432,-15.808 96.78,-16.071c42.969,-0.584 32.508,-20.894 55.094,-35.494c22.586,-14.601 60.945,47.782 61.448,59.672Z" style="fill:none;stroke:#000;stroke-width:0.83px;"/><path id="PO" d="M296.454,801.916c-3.307,-8.316 -20.889,-33.789 -30.888,-41.278c-9.999,-7.489 -23.405,-14.663 -2.954,-29.969c20.45,-15.305 38.49,-27.576 53.422,-33.987c14.933,-6.411 40.546,-42.713 38.616,12.384c-1.93,55.096 -3.09,60.352 -0.476,78.299c2.614,17.946 -1.76,38.38 -29.61,34.108c-27.85,-4.273 -24.803,-11.24 -28.11,-19.557Z" style="fill:none;stroke:#000;stroke-width:0.83px;"/><path id="MD" d="M111.195,979.663c-0,0 51.77,-74.816 64.978,-82.815c13.208,-8 56.092,-56.592 71.463,-62.561c15.37,-5.969 54.145,-17.625 86.665,-12.814c32.519,4.811 31.445,1.286 67.263,19c35.818,17.714 45.065,18.627 69.535,16.706c24.469,-1.921 37.124,35.094 9.465,85.294c-11.432,20.748 -26,37.19 -26,37.19l-343.369,0Z" style="fill:none;stroke:#000;stroke-width:0.83px;"/></svg>